<svg width="500" height="500" viewBox="0 0 500 500" fill="none" xmlns="http://www.w3.org/2000/svg">
<mask id="mask0_1102_337" style="mask-type:alpha" maskUnits="userSpaceOnUse" x="134" y="59" width="231" height="382">
<path fill-rule="evenodd" clip-rule="evenodd" d="M144 59.3496C138.477 59.3496 134 63.8267 134 69.3496V430.651C134 436.174 138.477 440.651 144 440.651H355C360.523 440.651 365 436.174 365 430.651V69.3496C365 63.8268 360.523 59.3496 355 59.3496H144ZM154 94C154 91.2386 156.239 89 159 89H338C340.761 89 343 91.2386 343 94V129C343 131.761 340.761 134 338 134H159C156.239 134 154 131.761 154 129V94ZM154 159C154 156.239 156.239 154 159 154H228V282H159C156.239 282 154 279.761 154 277V159ZM243 159C243 156.239 245.239 154 248 154H338C340.761 154 343 156.239 343 159V207C343 209.761 340.761 212 338 212H248C245.239 212 243 209.761 243 207V159ZM248 224C245.239 224 243 226.239 243 229V326H343V229C343 226.239 340.761 224 338 224H248ZM243 349C243 346.239 245.239 344 248 344H338C340.761 344 343 346.239 343 349V405C343 407.761 340.761 410 338 410H248C245.239 410 243 407.761 243 405V349ZM159 300C156.239 300 154 302.239 154 305V410H223C225.761 410 228 407.761 228 405V300H159Z" fill="#2A6266"/>
</mask>
<g mask="url(#mask0_1102_337)">
<rect x="228" y="59" width="137" height="267" fill="#139B91"/>
<rect x="134" y="326" width="231" height="115" fill="#F4AC11"/>
<path d="M228 59H134V410H181L228 372V59Z" fill="#2A6266"/>
</g>
</svg>
