<svg width="500" height="500" viewBox="0 0 500 500" fill="none" xmlns="http://www.w3.org/2000/svg">
<path fill-rule="evenodd" clip-rule="evenodd" d="M258.128 156C265.175 156 270.889 161.713 270.889 168.761C270.889 180.13 284.635 185.824 292.674 177.785C297.657 172.801 305.738 172.801 310.721 177.785L322.215 189.279C327.199 194.263 327.199 202.343 322.215 207.326C314.176 215.365 319.87 229.111 331.239 229.111C338.287 229.111 344 234.825 344 241.872V258.128C344 265.175 338.287 270.889 331.239 270.889C319.87 270.889 314.176 284.635 322.215 292.674C327.199 297.657 327.199 305.738 322.215 310.721L310.721 322.215C305.737 327.199 297.657 327.199 292.674 322.215C284.635 314.176 270.889 319.87 270.889 331.239C270.889 338.287 265.175 344 258.128 344H241.872C234.824 344 229.111 338.287 229.111 331.239C229.111 319.87 215.365 314.176 207.326 322.215C202.343 327.199 194.263 327.199 189.279 322.215L177.785 310.721C172.801 305.737 172.801 297.657 177.785 292.674C185.824 284.635 180.131 270.889 168.761 270.889C161.713 270.889 156 265.175 156 258.128V241.872C156 234.825 161.713 229.111 168.761 229.111C180.13 229.111 185.824 215.365 177.785 207.326C172.801 202.343 172.801 194.263 177.785 189.279L189.279 177.785C194.263 172.801 202.343 172.801 207.326 177.785C215.365 185.824 229.111 180.13 229.111 168.761C229.111 161.713 234.825 156 241.872 156H258.128ZM250 288.877C269.869 288.877 285.975 272.77 285.975 252.901C285.975 233.033 269.869 216.926 250 216.926C230.131 216.926 214.025 233.033 214.025 252.901C214.025 272.77 230.131 288.877 250 288.877Z" fill="#939393"/>
</svg>
