<svg width="500" height="500" viewBox="0 0 500 500" fill="none" xmlns="http://www.w3.org/2000/svg">
<mask id="mask0_1102_316" style="mask-type:alpha" maskUnits="userSpaceOnUse" x="113" y="123" width="274" height="241">
<path fill-rule="evenodd" clip-rule="evenodd" d="M149.334 134.831C149.334 128.826 154.202 123.958 160.207 123.958H195.003C201.008 123.958 205.876 128.826 205.876 134.831V161.652H297.938V134.831C297.938 128.826 302.806 123.958 308.812 123.958H343.607C349.612 123.958 354.48 128.826 354.48 134.831V161.652H375.502C381.508 161.652 386.376 166.52 386.376 172.526V352.301C386.376 358.306 381.508 363.174 375.502 363.174H124.687C118.682 363.174 113.814 358.306 113.814 352.301V172.526C113.814 166.52 118.682 161.652 124.687 161.652H149.334V134.831ZM145.71 207.321C145.71 203.317 148.955 200.072 152.959 200.072H201.527C205.53 200.072 208.776 203.317 208.776 207.321V255.164C208.776 259.168 205.53 262.413 201.527 262.413H152.959C148.955 262.413 145.71 259.168 145.71 255.164V207.321ZM227.623 200.072C223.62 200.072 220.374 203.318 220.374 207.321V255.164C220.374 259.168 223.62 262.413 227.623 262.413H276.192C280.195 262.413 283.441 259.168 283.441 255.164V207.321C283.441 203.318 280.195 200.072 276.192 200.072H227.623ZM295.039 207.321C295.039 203.318 298.284 200.072 302.288 200.072H350.856C354.86 200.072 358.105 203.318 358.105 207.321V255.164C358.105 259.168 354.86 262.413 350.856 262.413H302.288C298.284 262.413 295.039 259.168 295.039 255.164V207.321ZM152.959 278.413C148.955 278.413 145.71 281.659 145.71 285.662V333.505C145.71 337.509 148.955 340.754 152.959 340.754H201.527C205.53 340.754 208.776 337.509 208.776 333.505V285.662C208.776 281.659 205.53 278.413 201.527 278.413H152.959ZM220.374 285.662C220.374 281.659 223.62 278.413 227.623 278.413H276.191C280.195 278.413 283.44 281.659 283.44 285.662V333.505C283.44 337.509 280.195 340.754 276.191 340.754H227.623C223.62 340.754 220.374 337.509 220.374 333.505V285.662ZM302.288 278.413C298.284 278.413 295.039 281.659 295.039 285.662V333.505C295.039 337.509 298.284 340.754 302.288 340.754H350.856C354.859 340.754 358.105 337.509 358.105 333.505V285.662C358.105 281.659 354.859 278.413 350.856 278.413H302.288Z" fill="#D9D9D9"/>
</mask>
<g mask="url(#mask0_1102_316)">
<rect x="2.90479" y="300.162" width="369.267" height="114.738" transform="rotate(-54.3763 2.90479 300.162)" fill="#2A6266"/>
<rect x="96.1704" y="366.993" width="369.267" height="114.738" transform="rotate(-54.3763 96.1704 366.993)" fill="#139B91"/>
<rect x="189.437" y="433.823" width="369.267" height="114.738" transform="rotate(-54.3763 189.437 433.823)" fill="#F4AC11"/>
</g>
</svg>
