<svg width="500" height="500" viewBox="0 0 500 500" fill="none" xmlns="http://www.w3.org/2000/svg">
<mask id="mask0_1102_337" style="mask-type:alpha" maskUnits="userSpaceOnUse" x="134" y="59" width="231" height="382">
<rect x="134" y="59.3496" width="231" height="381.301" rx="10" fill="#2A6266"/>
</mask>
<g mask="url(#mask0_1102_337)">
<rect x="-56" y="169.391" width="474.78" height="147.523" transform="rotate(-30 -56 169.391)" fill="#2A6266"/>
<rect x="17.7617" y="297.149" width="474.78" height="147.523" transform="rotate(-30 17.7617 297.149)" fill="#139B91"/>
<rect x="91.5234" y="424.908" width="474.78" height="147.523" transform="rotate(-30 91.5234 424.908)" fill="#F4AC11"/>
<rect x="228" y="59" width="137" height="267" fill="#139B91"/>
<rect x="134" y="326" width="231" height="115" fill="#F4AC11"/>
<path d="M228 59H134V410H181L228 372V59Z" fill="#2A6266"/>
</g>
<path d="M154 159C154 156.239 156.239 154 159 154H228V282H159C156.239 282 154 279.761 154 277V159Z" fill="white"/>
<rect x="243" y="154" width="100" height="58" rx="5" fill="white"/>
<path d="M243 229C243 226.239 245.239 224 248 224H338C340.761 224 343 226.239 343 229V326H243V229Z" fill="white"/>
<rect x="243" y="344" width="100" height="66" rx="5" fill="white"/>
<path d="M154 305C154 302.239 156.239 300 159 300H228V405C228 407.761 225.761 410 223 410H154V305Z" fill="white"/>
<rect x="154" y="89" width="189" height="45" rx="5" fill="white"/>
</svg>
