<svg width="500" height="500" viewBox="0 0 500 500" fill="none" xmlns="http://www.w3.org/2000/svg">
<path fill-rule="evenodd" clip-rule="evenodd" d="M324.935 176.051C325.979 175.981 326.895 175.951 327.701 175.951C331.153 175.953 331.963 176.425 332.938 176.994C333.033 177.049 333.13 177.105 333.23 177.162C333.501 177.315 333.809 177.496 334.156 177.7C337.346 179.575 343.763 183.347 353.637 184.238C360.753 184.88 369.04 184.056 379.37 181.785C385.843 180.362 389.579 173.69 387.812 167.302L383.597 152.059C381.83 145.671 375.234 142.024 368.737 143.334C362.127 144.667 358.787 144.725 357.215 144.584C357.091 144.572 356.995 144.568 356.912 144.565C356.832 144.561 356.764 144.558 356.698 144.55C356.367 144.508 356.052 144.33 354.172 143.264C353.786 143.046 353.335 142.79 352.805 142.49C347.009 139.218 339.717 136.14 327.716 136.136C319.323 136.133 308.863 137.627 295.037 140.97C290.065 142.172 286.701 146.404 286.237 151.21L285.475 151.421L318.597 271.184C314.55 271.439 310.38 272.128 306.186 273.288C282.77 279.764 267.505 298.454 272.09 315.033C276.676 331.612 299.375 339.802 322.791 333.326C345.915 326.931 361.09 308.625 357.049 292.203L357.058 292.2L324.935 176.051Z" fill="#2A6266"/>
<path fill-rule="evenodd" clip-rule="evenodd" d="M263.98 230.788C265.004 230.998 265.895 231.214 266.672 231.429C269.999 232.35 270.653 233.021 271.442 233.829C271.469 233.857 271.497 233.886 271.525 233.914C271.575 233.965 271.626 234.017 271.679 234.069C271.899 234.289 272.148 234.546 272.427 234.834C275.002 237.492 280.182 242.838 289.461 246.329C296.148 248.845 304.355 250.26 314.916 250.824C321.534 251.178 326.914 245.743 326.914 239.116L326.914 223.3C326.914 216.673 321.529 211.399 314.918 210.93C308.192 210.453 304.957 209.619 303.479 209.063C303.363 209.019 303.271 208.99 303.193 208.964C303.116 208.939 303.052 208.919 302.99 208.893C302.682 208.764 302.426 208.509 300.898 206.98C300.585 206.667 300.218 206.3 299.787 205.87C295.073 201.171 288.865 196.261 277.3 193.058C269.211 190.818 258.731 189.47 244.515 189.006C239.402 188.839 235.032 192.022 233.304 196.53H232.513V320.789C228.544 319.956 224.34 319.509 219.99 319.509C195.695 319.509 176 333.453 176 350.655C176 367.856 195.695 381.801 219.99 381.801C243.982 381.801 263.488 368.202 263.97 351.297H263.98V230.788Z" fill="#139B91"/>
<path fill-rule="evenodd" clip-rule="evenodd" d="M169.55 172.509C170.596 172.511 171.513 172.544 172.316 172.6C175.76 172.839 176.535 173.365 177.47 174C177.502 174.022 177.535 174.044 177.568 174.066C177.627 174.107 177.687 174.147 177.749 174.188C178.009 174.359 178.304 174.561 178.636 174.788C181.689 176.879 187.832 181.083 197.621 182.652C204.676 183.782 213 183.53 223.461 181.975C230.017 181.001 234.203 174.601 232.88 168.107L229.723 152.61C228.401 146.116 222.071 142.023 215.5 142.884C208.814 143.759 205.478 143.587 203.919 143.337C203.796 143.318 203.7 143.307 203.618 143.298C203.538 143.289 203.471 143.281 203.405 143.268C203.077 143.204 202.776 143.004 200.973 141.811C200.604 141.567 200.172 141.281 199.663 140.946C194.106 137.282 187.043 133.71 175.071 132.88C166.698 132.299 156.16 133.071 142.137 135.454C137.094 136.311 133.447 140.302 132.653 145.064L131.878 145.222L156.682 266.98C152.626 266.956 148.418 267.357 144.155 268.226C120.349 273.075 103.834 290.67 107.268 307.526C110.701 324.381 132.783 334.114 156.589 329.264C180.099 324.475 196.497 307.256 193.596 290.595L193.605 290.593L169.55 172.509Z" fill="#F4AC11"/>
</svg>
