<svg width="500" height="500" viewBox="0 0 500 500" fill="none" xmlns="http://www.w3.org/2000/svg">
<path d="M244.586 403.982C243.434 403.407 243.089 371.412 243.089 249.646C243.089 128.916 243.434 96 244.586 96C245.219 96 263.629 102.178 322.996 122.843C333.42 126.472 340.441 136.302 340.466 147.339L340.986 372.92C340.994 376.578 338.542 379.784 335.01 380.734C331.67 381.655 310.244 387.409 287.437 393.509C264.629 399.609 245.277 404.327 244.586 403.982Z" fill="#939393"/>
<path d="M159.535 362.53L159.23 241.935L159.044 131.251C159.02 116.875 170.667 105.207 185.044 105.207H226.394C231.161 105.207 235.025 109.072 235.025 113.839C235.025 118.606 231.161 122.471 226.394 122.471H202.278C187.919 122.471 176.278 134.111 176.278 148.471V249.416C176.278 319.16 175.818 376.936 175.357 377.742C170.601 385.344 159.558 371.497 159.535 362.53Z" fill="#939393"/>
</svg>
