<svg width="500" height="500" viewBox="0 0 500 500" fill="none" xmlns="http://www.w3.org/2000/svg">
<path d="M55.2233 138.089C131.959 108.319 167.768 98.1846 199.61 98.4312C206.801 98.4868 212.677 103.502 214.443 110.094L274.019 332.432C276.817 342.875 268.752 352.68 258.379 352.876C221.399 353.573 189.061 362.604 127.166 389.912C118.216 393.86 107.701 388.984 105.139 379.42L45.575 157.126C43.4663 149.256 47.6108 141.042 55.2233 138.089Z" fill="#2A6266" stroke="white" stroke-width="12"/>
<path d="M323.04 97.9953C241.214 89.1009 204.003 88.5795 173.31 97.059C166.378 98.974 162 105.339 162 112.163V342.345C162 353.156 172.327 360.54 182.398 358.044C218.299 349.146 251.872 349.5 318.726 359.858C328.393 361.355 337.287 353.924 337.287 344.022V113.886C337.287 105.739 331.158 98.8776 323.04 97.9953Z" fill="#139B91" stroke="white" stroke-width="12"/>
<path d="M444.476 151.089C367.741 121.319 331.932 111.185 300.09 111.431C292.899 111.487 287.023 116.502 285.257 123.094L225.681 345.432C222.883 355.875 230.947 365.68 241.32 365.876C278.301 366.573 310.638 375.604 372.534 402.912C381.484 406.86 391.998 401.984 394.561 392.42L454.125 170.126C456.233 162.256 452.089 154.042 444.476 151.089Z" fill="#F4AC11" stroke="white" stroke-width="12"/>
</svg>
