<svg width="500" height="500" viewBox="0 0 500 500" fill="none" xmlns="http://www.w3.org/2000/svg">
<path fill-rule="evenodd" clip-rule="evenodd" d="M261.698 197.16C262.696 197.365 263.564 197.575 264.32 197.785C267.561 198.682 268.198 199.335 268.967 200.123C269.041 200.199 269.117 200.277 269.197 200.357C269.411 200.57 269.654 200.821 269.926 201.102C272.434 203.691 277.48 208.898 286.518 212.298C292.966 214.724 300.865 216.099 311.002 216.66C317.62 217.026 323 211.588 323 204.961L323 190.178C323 183.55 317.613 178.283 311.003 177.795C304.663 177.327 301.589 176.532 300.173 175.999C300.06 175.956 299.97 175.927 299.894 175.903C299.819 175.878 299.757 175.858 299.696 175.833C299.396 175.708 299.147 175.459 297.659 173.97C297.354 173.665 296.997 173.308 296.576 172.889C291.985 168.312 285.938 163.529 274.672 160.409C266.853 158.243 256.738 156.934 243.047 156.472C238.011 156.303 233.695 159.389 231.916 163.791H231.047V284.827C227.181 284.016 223.087 283.58 218.849 283.58C195.184 283.58 176 297.163 176 313.918C176 330.674 195.184 344.256 218.849 344.256C242.218 344.256 261.218 331.01 261.689 314.544H261.698V313.918V197.16Z" fill="#939393"/>
</svg>
