<svg width="500" height="500" viewBox="0 0 500 500" fill="none" xmlns="http://www.w3.org/2000/svg">
<path fill-rule="evenodd" clip-rule="evenodd" d="M156.096 110.122C132.439 115.856 102.004 126.376 57.3934 143.683C52.6447 145.525 50.0522 150.653 51.3705 155.573L110.934 377.867C112.529 383.82 119.106 386.91 124.744 384.422C143.632 376.089 159.848 369.419 174.342 364.151C164.321 362.297 156 353.771 156 342.345V112.163C156 111.479 156.032 110.798 156.096 110.122ZM251.592 271.915L268.223 333.985C269.79 339.833 265.857 345.542 260.14 346.676C254.58 346.27 249.287 345.992 244.207 345.841C239.935 345.714 235.814 345.678 231.813 345.731L235.034 333.708L251.592 271.915ZM169.269 107.288C180.487 105.213 190.224 104.359 199.563 104.431C203.875 104.464 207.532 107.482 208.648 111.646L245.38 248.733L220.222 342.625L219.886 343.879C219.677 344.659 219.511 345.437 219.388 346.209L219.259 346.217C205.864 347.093 193.557 349.097 180.954 352.22C174.455 353.831 168 349.041 168 342.345V112.163C168 110.414 168.453 108.738 169.269 107.288Z" fill="#2A6266"/>
<path fill-rule="evenodd" clip-rule="evenodd" d="M174.907 102.842C170.751 103.99 168 107.851 168 112.163V342.345C168 349.041 174.455 353.831 180.954 352.22C193.597 349.087 205.943 347.08 219.388 346.209C219.511 345.437 219.677 344.659 219.886 343.879L279.461 121.541C281.878 112.522 289.973 105.509 300.044 105.431C309.254 105.36 318.749 106.126 329.302 107.908C327.696 105.759 325.239 104.27 322.392 103.96C240.437 95.0517 204.337 94.712 174.907 102.842ZM331.287 120.449C319.707 118.257 309.713 117.357 300.137 117.431C295.825 117.464 292.168 120.482 291.052 124.646L231.813 345.731C255.031 345.421 282.288 348.141 319.644 353.928C325.734 354.872 331.287 350.185 331.287 344.022V120.449Z" fill="#139B91"/>
<path d="M291.052 124.646C292.168 120.482 295.825 117.464 300.136 117.431C330.667 117.195 365.45 126.866 442.306 156.683C447.055 158.525 449.647 163.653 448.329 168.573L388.766 390.867C387.171 396.82 380.594 399.91 374.956 397.422C312.821 370.009 279.611 360.597 241.434 359.877C234.738 359.751 229.744 353.453 231.477 346.985L291.052 124.646Z" fill="#F4AC11"/>
</svg>
