<svg width="975" height="285" viewBox="0 0 975 285" fill="none" xmlns="http://www.w3.org/2000/svg">
<path opacity="0.6" d="M8 187.933C91.6377 126.795 260.5 103.933 365.551 164.678C455.983 216.97 594.396 288.884 698 275.933C790 264.433 889.5 226.433 967.5 142.433" stroke="#F4AC11" stroke-width="14" stroke-linecap="round"/>
<path opacity="0.6" d="M8 129.933C91.6377 68.7952 260.5 45.933 365.551 106.678C455.983 158.97 594.396 230.884 698 217.933C790 206.433 889.5 168.433 967.5 84.433" stroke="#139B91" stroke-width="14" stroke-linecap="round"/>
<path opacity="0.6" d="M7 65.933C90.6377 4.79523 259.5 -18.067 364.551 42.6778C454.983 94.9698 593.396 166.884 697 153.933C789 142.433 888.5 104.433 966.5 20.433" stroke="#2A6266" stroke-width="14" stroke-linecap="round"/>
</svg>
