<svg width="1440" height="1024" viewBox="0 0 1440 1024" fill="none" xmlns="http://www.w3.org/2000/svg">
<g clip-path="url(#clip0_306_54)">
<rect width="1440" height="1024" fill="#F4AC11"/>
<path d="M-16.4561 -43.7211C-45.6656 -25.4072 -36.0758 -12.0703 -57.3821 14.0299C-57.3821 36.9465 -55.3133 60.7444 -59.4283 83.3765C-64.5337 111.457 -70.3104 139.453 -71.5923 168.298C-73.2419 205.414 -69.8132 243.128 -62.6114 279.48C-56.2228 311.727 -55.8078 344.538 -48.5147 376.679C-38.1325 422.433 -23.7042 466.72 -22.7087 514.008C-21.6574 563.941 -23.756 613.919 -21.6855 663.842C-19.5151 716.172 -14.4888 768.378 -12.1361 820.724C-9.84945 871.603 4.79001 913.267 24.2424 959.872C33.3645 981.727 38.9218 1007.9 51.4126 1028.2C72.4075 1062.31 107.043 1083.34 142.359 1100.16C162.488 1109.74 182.31 1119.36 200.906 1131.76C216.334 1142.05 229.781 1150.68 247.629 1155.86C280.398 1165.38 315.594 1178.93 350.058 1180.3C381.818 1181.57 413.98 1185.57 445.665 1188.72C471.093 1191.24 495.425 1195.11 520.355 1200.43C546.986 1206.1 575.017 1205.51 601.979 1210.43C640.43 1217.44 676.999 1226.33 716.117 1228.39C775.874 1231.55 835.201 1233.62 895.054 1233.62C998.628 1233.62 1102.66 1233.53 1206.2 1231.35C1280.98 1229.77 1357.93 1228.44 1432.43 1221.23C1465.48 1218.03 1497.98 1211.28 1531 1207.93C1551.08 1205.89 1570.44 1203.06 1586.47 1189.63C1604.82 1174.26 1606.25 1165.47 1606.25 1142.22C1606.25 1113.63 1596.16 1088.45 1579.65 1065.14C1571.39 1053.47 1561.62 1045.42 1549.98 1037.18C1535.62 1027.01 1522.62 1014.44 1507.12 1006.03C1402.43 949.224 1337.04 853.404 1304.77 740.464C1296.33 710.939 1288.68 681.053 1278.28 652.132C1268.31 624.418 1259.75 594.338 1245.2 568.575C1219.56 523.195 1179.91 481.649 1141.97 446.48C1105.46 412.63 1061.9 383.085 1019.65 356.898C976.658 330.249 926.119 304.015 874.364 302.557C824.954 301.165 776.978 314.567 727.713 314.835C675.73 315.118 625.543 287.943 583.563 259.585C526.708 221.18 479.375 172.12 432.364 122.711C397.637 86.2118 366.253 47.1078 328.685 13.3478C305.387 -7.58933 283.098 -32.4518 254.564 -46.4495C237.514 -54.8139 216.845 -57.0975 198.405 -60.6599C172.543 -65.6558 147.031 -73.3553 120.873 -76.6892C74.8481 -82.5551 22.6408 -68.2343 -16.4561 -43.7211Z" fill="#139B91"/>
<path d="M-100.64 175.788C-115.925 177.817 -131.201 178.311 -146.526 180.727C-146.536 221.106 -160.046 248.282 -162.92 288.633C-164.593 312.118 -169.941 335.512 -169.792 359.081C-169.675 377.57 -167.373 395.872 -164.809 414.144C-161.396 438.469 -163.215 462.941 -159.156 487.208C-151.981 530.106 -136.937 570.958 -123.521 612.159C-98.268 689.71 -72.4512 767.107 -47.4599 844.73C-32.8877 889.991 -17.4706 935.293 -6.50428 981.593C-0.265976 1007.93 5.13985 1034.1 15.5493 1059.21C33.0852 1101.52 54.2911 1142.54 81.5401 1179.38C90.203 1191.09 96.0733 1204.04 103.911 1216.14C110.487 1226.3 123.847 1234.61 132.668 1242.47C172.585 1278.01 217.279 1299.64 262.578 1327.31C308.599 1355.42 346.474 1388.92 399.358 1403.16C448.168 1416.31 500.848 1415.39 550.69 1408.76C605.743 1401.44 661.856 1391.75 706.815 1356.61C714.708 1350.44 731.566 1338.14 733.601 1326.76C735.046 1318.67 729.077 1309.38 727.839 1301.52C723.82 1276.03 713.209 1251.89 706.898 1226.92C696.068 1184.06 688.163 1139.95 681.707 1096.24C671.579 1027.67 681.393 956.166 657.844 889.868C630.437 812.712 594.507 735.518 531.302 680.811C512.51 664.546 490.067 651.564 469.648 637.487C454.388 626.967 439.16 615.68 423.063 606.451C385.421 584.869 343.522 570.487 303.15 555.097C250.819 535.149 195.586 519.786 152.076 482.389C134.378 467.178 110.797 452.715 100.074 431.551C88.2385 408.191 75.9639 385.681 65.6963 361.485C53.2759 332.216 47.5847 301.472 31.0999 273.858C20.2393 255.665 6.91976 239.422 -7.82671 224.273C-25.0762 206.553 -54.3194 189.193 -78.6287 182.774C-84.6309 181.189 -94.6889 174.998 -100.64 175.788Z" fill="#2A6266"/>
</g>
<defs>
<clipPath id="clip0_306_54">
<rect width="1440" height="1024" fill="white"/>
</clipPath>
</defs>
</svg>
