<svg width="2308" height="237" viewBox="0 0 2308 237" fill="none" xmlns="http://www.w3.org/2000/svg">
<g opacity="0.2">
<path d="M13 121.567C102.515 18.3639 171.799 -17.1505 255.772 59.4349C339.744 136.02 380.534 225.271 458.636 189.256C566.997 139.289 631.293 18.3633 714.988 16.0284C798.683 13.6935 870.739 156.101 937.529 189.256C1028.15 234.244 1164.5 69.2415 1184.46 59.4349" stroke="#949494" stroke-width="25" stroke-linecap="round"/>
<path d="M1124 118.567C1213.52 15.3639 1282.8 -20.1505 1366.77 56.4349C1450.74 133.02 1491.53 222.271 1569.64 186.256C1678 136.289 1742.29 15.3633 1825.99 13.0284C1909.68 10.6935 1981.74 153.101 2048.53 186.256C2139.15 231.244 2275.5 66.2415 2295.46 56.4349" stroke="#949494" stroke-width="25" stroke-linecap="round"/>
<path d="M145.846 89.5413C240.502 17.6468 313.766 -7.09359 402.562 46.258C491.358 99.6096 534.49 161.785 617.078 136.695C731.663 101.886 799.651 17.6463 888.154 16.0198C976.657 14.3932 1052.85 113.598 1123.48 136.695C1219.31 168.035 1363.49 53.0896 1384.59 46.258" stroke="#BABABA" stroke-width="25" stroke-linecap="round"/>
<path d="M333.9 173.669C428.688 105.253 502.054 81.7101 590.974 132.48C679.893 183.25 723.085 242.417 805.789 218.542C920.533 185.417 988.616 105.253 1077.24 103.705C1165.87 102.157 1242.17 196.562 1312.89 218.542C1408.86 248.365 1553.24 138.981 1574.37 132.48" stroke="#ABABAB" stroke-width="25" stroke-linecap="round"/>
</g>
</svg>
