<svg width="923" height="120" viewBox="0 0 923 120" fill="none" xmlns="http://www.w3.org/2000/svg">
<path d="M9 60.7686C60.8848 10.1592 101.043 -7.25648 149.715 30.2998C198.388 67.8561 222.03 111.623 267.3 93.9622C330.107 69.4588 367.375 10.1589 415.886 9.01392C464.397 7.86891 506.162 77.7032 544.875 93.9623C597.402 116.023 676.434 35.1088 688 30.2998" stroke="#2A6266" stroke-width="16.6942" stroke-linecap="round"/>
<path d="M86 45.0635C140.865 9.80756 183.33 -2.32474 234.798 23.8381C286.265 50.0008 311.266 80.4905 359.136 68.1872C425.551 51.1174 464.959 9.80734 516.256 9.0097C567.554 8.21205 611.718 56.8606 652.654 68.1872C708.199 83.5556 791.77 27.1882 804 23.8381" stroke="#139B91" stroke-width="16.6942" stroke-linecap="round"/>
<path d="M195 86.3185C249.941 52.7685 292.466 41.2232 344.005 66.1201C395.544 91.0169 420.579 120.031 468.516 108.323C535.024 92.0794 574.486 52.7683 625.856 52.0092C677.225 51.2502 721.45 97.5448 762.444 108.323C818.065 122.948 901.753 69.3081 914 66.1201" stroke="#F4AC11" stroke-width="16.6942" stroke-linecap="round"/>
</svg>
