<svg width="1914" height="491" viewBox="0 0 1914 491" fill="none" xmlns="http://www.w3.org/2000/svg">
<path d="M0 490.546C142.96 446.617 345.139 393.514 472.571 418C740.596 469.5 1109.72 451 1304.08 397.5C1450.13 357.295 1660.64 359.806 1771.78 361.132C1788.32 361.329 1802.66 361.5 1814.26 361.5C1873.79 361.5 1917.3 357.716 1956.3 354.323C2033.32 347.623 2092.76 342.453 2223.35 371C2376.47 391.275 2478.62 387.905 2574.69 384.734C2608.93 383.604 2642.39 382.5 2677.12 382.5C2781.28 382.5 2889.7 377.224 2972.95 373.174C2982.3 372.719 2991.33 372.279 3000 371.865V-1H0V490.546Z" fill="#F4AC11"/>
<path d="M0 393.008C230.899 427.255 515.088 432.419 652.038 417C795.548 400.842 1130.07 411.461 1259.7 415.576C1286.52 416.427 1304.57 417 1310.34 417C1470.67 417 1594.37 369.09 1680.57 335.701C1715.31 322.249 1743.96 311.153 1766.46 306.5C1853.98 288.401 1984.73 309.749 2115.04 331.024C2153.92 337.373 2192.76 343.715 2230.41 349C2282.96 356.379 2329.43 363.888 2372.47 370.841C2493.72 390.434 2587.65 405.611 2713.17 401C2841.38 396.29 2943.77 333.046 3000 290.745V-1H0L0 393.008Z" fill="#139B91"/>
<path d="M0 397.779C152.141 359.819 382.368 347.649 541.536 366C733.536 388.136 945.917 403.187 1256.27 366C1344 355.488 1461.51 344.984 1569.3 335.349C1679.22 325.524 1779.03 316.603 1826.8 309.5C1973.64 287.671 2083.09 295.248 2192.41 302.817C2263.38 307.731 2334.3 312.641 2415.36 309.5C2674.69 299.453 2891.87 321.04 3000 332.902V-1H0V397.779Z" fill="#2A6266"/>
</svg>
