<svg width="144" height="232" viewBox="0 0 144 232" fill="none" xmlns="http://www.w3.org/2000/svg">
<ellipse cx="71.5564" cy="216.05" rx="71.5564" ry="14.9769" fill="#C0D0D1"/>
<path d="M47.4162 52.5008C51.5341 40.3942 65.1237 41.7932 75.5636 42.0609C80.6511 42.1913 86.7705 44.5393 91.0944 47.2993C94.5392 49.4981 97.642 53.7207 98.5463 57.6286C99.2553 60.6926 100.486 63.6111 100.723 66.7774C101.05 71.1633 101.055 75.9279 100.391 80.2793C99.1345 88.5148 91.8687 98.4579 83.4581 100.458C77.172 101.953 69.6599 100.076 63.8693 97.7284C57.0662 94.9697 51.9672 90.2507 48.2647 83.9683C42.7177 74.5562 44.0435 62.4167 47.4162 52.5008Z" stroke="black" stroke-width="4.99231" stroke-linecap="round"/>
<path d="M47.5049 48.7048C47.5049 45.0256 48.3034 41.2184 50.3477 38.0837C51.2159 36.7525 51.9687 35.6047 53.2329 34.5856C55.2054 32.9955 57.7423 32.2643 60.0811 31.394C65.2152 29.4836 70.3437 27.7909 75.8278 27.3252C79.5564 27.0087 83.232 27.2398 86.8822 28.0333C89.7866 28.6647 92.0042 29.8113 94.4913 31.394C99.2474 34.4206 104.277 41.2657 101.34 47.1407C99.8243 50.1711 99.4436 53.6413 97.535 56.5042" stroke="black" stroke-width="4.99231" stroke-linecap="round"/>
<path d="M78.322 32.1548C78.322 28.252 79.3543 24.4939 79.474 20.6037C79.5415 18.4075 80.2243 16.2399 80.2243 14.0831" stroke="black" stroke-width="4.99231" stroke-linecap="round"/>
<path d="M80.4147 11.8006C83.3802 9.27991 87.6231 6.33344 91.6804 6.28396C93.753 6.25868 95.7136 7.47026 94.8615 9.81375C93.8257 12.6621 90.3507 13.9589 87.5588 14.4321C85.0449 14.8582 82.3867 14.654 79.844 14.654" stroke="black" stroke-width="4.99231" stroke-linecap="round"/>
<path d="M80.0338 12.5614C80.0338 10.6198 80.045 8.71697 78.9981 7.00252C78.0722 5.48617 76.4953 3.63703 74.7074 3.15568C73.824 2.91784 72.7203 3.01009 71.8117 3.06056C69.5364 3.18697 67.0375 3.65816 64.8578 4.33932C62.5467 5.06156 67.5235 9.37225 67.9332 9.78197C69.4323 11.2811 71.2194 11.9247 73.3018 12.181C74.3128 12.3054 75.4072 12.7516 76.4195 12.7516" stroke="black" stroke-width="4.99231" stroke-linecap="round"/>
<path d="M78.7024 13.7028C75.7416 14.2367 72.329 16.4273 71.7591 19.5047C71.5368 20.7054 71.5711 22.0564 72.5729 22.876C73.9051 23.966 76.6791 22.7748 77.6456 21.6924C79.7333 19.3541 81.3847 17.7736 81.9363 14.4637" stroke="black" stroke-width="4.99231" stroke-linecap="round"/>
<path d="M60.6309 41.286C62.1987 36.6746 65.6334 32.3954 70.3325 30.6332" stroke="black" stroke-width="4.99231" stroke-linecap="round"/>
<path d="M72.2349 41.6662C72.6883 39.1474 73.9758 36.5378 75.1728 34.3107C76.5315 31.783 77.7365 30.3429 80.4147 29.3014" stroke="black" stroke-width="4.99231" stroke-linecap="round"/>
<path d="M85.9312 43.5687C88.3359 40.8809 88.6816 36.3722 88.774 32.9053C88.8155 31.348 88.876 29.5374 87.2628 28.7308" stroke="black" stroke-width="4.99231" stroke-linecap="round"/>
<path d="M54.1908 119.532C54.1908 123.203 52.9305 126.266 52.1987 129.825C50.5371 137.906 49.3942 146.024 47.1448 153.988C43.948 165.305 36.4823 176.474 29.9539 186.267C38.4527 186.267 47.071 185.271 55.648 185.271L115.613 185.271C110.62 180.974 107.334 176.353 105.027 169.892C100.866 158.243 99.6446 153.436 96.3565 142.072C95.0949 137.712 94.0917 133.472 94.0324 128.902C93.9901 125.646 94.403 122.775 94.0324 119.532C81.1902 119.532 67.7828 119.532 54.8548 119.532" stroke="black" stroke-width="4.99231" stroke-linecap="round"/>
<path d="M52.8315 187.952C51.5818 196.187 50.06 204.359 49.5977 212.682" stroke="black" stroke-width="4.99231" stroke-linecap="round"/>
<path d="M90.3064 187.572C90.5651 189.156 90.5029 190.769 90.4966 192.37C90.4809 196.348 90.2323 200.304 89.9259 204.269C89.6201 208.227 89.3552 212.138 89.3552 216.106" stroke="black" stroke-width="4.99231" stroke-linecap="round"/>
<path d="M75.5634 102.819C74.9892 107.197 75.2314 111.688 75.2314 116.1" stroke="black" stroke-width="4.99231" stroke-linecap="round"/>
<path d="M95.1521 132.368C103.026 126.347 108.068 116.791 112.823 108.279C117.345 100.182 119.721 90.1927 119.721 80.9062" stroke="black" stroke-width="4.99231" stroke-linecap="round"/>
<path d="M118.725 79.5782C116.222 77.6061 112.207 71.9532 116.548 70.0236C117.085 69.7852 117.735 70.148 118.227 69.7654C118.97 69.1878 119.956 68.3598 120.533 67.6258C121.768 66.0532 122.361 63.9365 122.783 61.9815C123.091 60.5547 123.881 59.6024 124.056 58.0343C124.192 56.8022 125.386 57.5813 126.048 57.8129C127.638 58.3694 129.612 59.5614 129.681 61.5758C129.928 68.7369 127.099 75.8521 122.045 80.9063" stroke="black" stroke-width="4.99231" stroke-linecap="round"/>
<path d="M49.9986 136.352C47.0074 136.425 44.021 138.499 41.9196 140.503C39.4268 142.879 38.7796 145.738 38.452 149.08C37.6906 156.845 38.0685 164.509 38.7102 172.21" stroke="black" stroke-width="4.99231" stroke-linecap="round"/>
<path d="M67.3826 79.1636C67.0625 81.284 67.525 83.1328 68.9206 84.8191C70.325 86.5161 73.1 88.0929 75.3814 87.8648C77.1265 87.6903 79.4942 87.0108 80.5706 85.5457C81.2675 84.5972 81.4911 83.6194 81.8543 82.506C82.1422 81.6235 82.5325 80.7571 82.5325 79.8175" stroke="black" stroke-width="4.99231" stroke-linecap="round"/>
<path d="M66.8375 61.3977C65.5567 61.5889 64.8999 62.3612 64.8999 63.7168C64.8999 64.9427 66.276 65.6371 67.3583 65.7453C69.4812 65.9576 68.1427 62.2788 67.6005 61.3977" stroke="black" stroke-width="4.99231" stroke-linecap="round"/>
<path d="M82.2055 62.4876C81.2689 63.3128 81.0251 64.5133 82.042 65.4062C82.4637 65.7764 83.8057 66.2039 84.3188 65.6908C84.9516 65.0579 84.567 63.253 84.4096 62.5361C84.1992 61.5776 83.7844 61.2887 82.8595 61.2887" stroke="black" stroke-width="4.99231" stroke-linecap="round"/>
</svg>
