<svg width="134" height="137" viewBox="0 0 134 137" fill="none" xmlns="http://www.w3.org/2000/svg">
<path fill-rule="evenodd" clip-rule="evenodd" d="M128.457 69.0253C126.909 69.1787 125.363 69.3506 123.826 69.5216C122.664 69.6508 121.507 69.7795 120.357 69.8992C118.795 70.062 117.225 70.2662 115.653 70.4707C113.152 70.7962 110.645 71.1223 108.155 71.283C105.855 71.4314 103.672 71.9753 101.481 72.5213C99.5372 73.0055 97.5869 73.4914 95.5428 73.7047C83.9643 74.9129 72.5043 79.0845 62.205 84.3351C49.2889 90.9198 37.5453 98.8195 25.5698 106.875C24.5532 107.559 23.535 108.244 22.5141 108.93C16.1512 113.202 10.8529 118.403 5.47913 123.679C4.6427 124.5 3.80444 125.323 2.96006 126.144C2.78065 112.162 2.48361 83.1805 2.99689 76.2633C3.03254 75.7829 3.29723 75.3518 3.69675 75.0826C29.5263 57.6827 57.0903 54.3863 70.3078 54.1474C71.2049 54.1312 71.9312 53.4275 71.9562 52.5306C72.1969 43.8838 72.2405 30.0073 72.2483 25.2622C72.2498 24.3431 72.9951 23.6091 73.9142 23.6091H102.59C103.515 23.6091 104.262 24.3635 104.254 25.2885L103.939 59.6692C103.932 60.4946 104.522 61.2019 105.334 61.3517C109.322 62.0881 120.899 64.511 128.457 69.0253Z" fill="#C0D0D1"/>
<path d="M3.06588 133.753C3.06588 133.753 2.3138 85.4689 2.99689 76.2633C3.03254 75.7829 3.29723 75.3518 3.69675 75.0826C29.5263 57.6827 57.0903 54.3863 70.3078 54.1474C71.2049 54.1312 71.9312 53.4275 71.9562 52.5306C72.1969 43.8838 72.2405 30.0073 72.2483 25.2622C72.2498 24.3431 72.9951 23.6091 73.9142 23.6091H102.59C103.515 23.6091 104.262 24.3635 104.254 25.2885L103.939 59.6692C103.932 60.4946 104.522 61.2019 105.334 61.3517C109.755 62.1679 123.497 65.056 130.758 70.5671C131.154 70.8677 131.371 71.34 131.371 71.8371V133.753" stroke="black" stroke-width="4.99231" stroke-linecap="round"/>
<path d="M89.0038 23.04C88.3919 16.462 88.6322 9.76234 88.6322 3.15491" stroke="black" stroke-width="4.99231" stroke-linecap="round"/>
<path d="M82.3137 8.91602C86.4684 9.50027 90.5652 9.84523 94.7651 9.84523" stroke="black" stroke-width="4.99231" stroke-linecap="round"/>
</svg>
