<svg width="165" height="151" viewBox="0 0 165 151" fill="none" xmlns="http://www.w3.org/2000/svg">
<path d="M16.8694 111.794C29.9087 107.676 42.0987 111.768 53.7528 117.205C60.8156 121.754 63.0039 129.68 60.9031 137.614C57.9505 148.764 38.8928 149.031 30.1338 147.999C16.7278 146.419 1.58582 137.763 3.6051 123.132C4.60888 115.859 9.84642 114.012 16.8694 111.794Z" fill="#C0D0D1"/>
<path d="M53.9997 117.32C42.2709 111.826 30.0008 107.647 16.8694 111.794C9.84642 114.012 4.60888 115.859 3.6051 123.132C1.58582 137.763 16.7278 146.419 30.1338 147.999C38.8928 149.031 57.9505 148.764 60.9031 137.614C63.0039 129.68 60.8156 121.754 53.7528 117.205" stroke="black" stroke-width="4.99231" stroke-linecap="round"/>
<path d="M62.3794 131.748C54.6259 92.5983 68.323 54.1826 68.323 15.2611" stroke="black" stroke-width="4.99231" stroke-linecap="round"/>
<path d="M68.3228 17.2049C74.2913 15.5723 81.8277 11.0565 87.5586 15.4982C91.945 18.8978 96.2029 24.3709 99.1196 29.1519C104.471 37.9237 109.087 45.215 119.91 45.215" stroke="black" stroke-width="4.99231" stroke-linecap="round"/>
<path d="M68.3228 40.3124C74.2913 38.7657 81.8277 34.4876 87.5586 38.6955C91.945 41.9162 96.2029 47.1012 99.1196 51.6306C104.471 59.9407 109.087 66.8483 119.91 66.8483" stroke="black" stroke-width="4.99231" stroke-linecap="round"/>
<path d="M82.5898 95.3657C92.853 90.1022 103.538 92.0583 113.955 95.2071C120.396 98.162 123.058 104.573 122.404 111.62C121.485 121.524 105.808 124.253 98.4462 124.523C87.1783 124.935 73.5175 119.535 73.1941 106.783C73.0334 100.444 77.1008 98.1807 82.5898 95.3657Z" fill="#C0D0D1" stroke="black" stroke-width="4.99231" stroke-linecap="round"/>
<path d="M122.406 105.867C111.547 74.5594 116.632 41.3329 111.532 9.30139" stroke="black" stroke-width="4.99231" stroke-linecap="round"/>
<path d="M111.765 10.7653C116.55 8.64749 122.275 3.98572 127.644 6.8194C131.754 8.98824 136.023 12.8536 139.081 16.3371C144.691 22.7284 149.495 28.0186 158.553 26.5762" stroke="black" stroke-width="4.99231" stroke-linecap="round"/>
<path d="M114.724 29.3486C119.509 27.2309 125.234 22.5691 130.604 25.4028C134.713 27.5716 138.983 31.4369 142.041 34.9204C147.651 41.3117 152.454 46.602 161.513 45.1596" stroke="black" stroke-width="4.99231" stroke-linecap="round"/>
</svg>
