<svg width="176" height="191" viewBox="0 0 176 191" fill="none" xmlns="http://www.w3.org/2000/svg">
<path d="M48.7231 22.7175C50.1941 19.689 51.9238 17.2251 53.6539 15.495C57.1817 11.9672 57.9898 10.8382 62.9389 9.09936C67.257 7.5822 69.6625 8.32854 72.2483 4.6019C74.3094 1.63142 76.2237 3.20443 77.878 6.23734C78.5377 7.44675 79.773 8.40381 80.1424 9.69693C80.815 12.0508 81.8198 13.8725 83.4448 15.7984C85.7072 18.4798 86.1181 22.585 88.6656 24.9505C90.4857 26.6407 91.0461 30.7917 91.622 33.1592C92.3781 36.2677 93.0722 39.8198 94.7671 42.5315C96.0615 44.6027 96.5912 49.3176 96.5912 51.841V61.7165C96.5912 65.1162 99.4788 67.1852 101.906 69.2961C103.105 70.3385 104.245 71.4508 105.46 72.4726C106.937 73.714 108.37 76.2356 110.178 76.9387C113.839 78.3626 117.073 71.9054 119.55 70.5542C121.004 69.7612 122.507 69.1397 123.733 67.9752C124.562 67.1877 125.672 65.4149 126.721 64.9874C128.567 64.2353 130.494 63.6041 132.256 62.7229C134.562 61.5699 137.101 61.006 139.71 61.5278C142.165 62.0188 145.299 62.2269 147.541 63.289L147.632 63.3318C149.028 63.9927 150.788 64.8261 151.787 66.0252C152.741 67.1692 152.07 71.056 152.07 72.5356C152.07 75.7241 152.048 75.7433 149.885 77.5641L149.806 77.6306C148.386 78.8261 144.969 80.0248 144.113 81.5934C143.068 83.5106 140.708 85.7254 139.176 87.3803C137.479 89.2123 136.551 91.6039 135.087 93.6076C130.567 99.7927 127.514 106.876 124.897 114.176C122.63 120.499 117.105 124.694 113.889 130.248C111.755 133.934 106.644 136.013 102.693 137.198C98.9469 138.322 94.9908 139.096 91.1188 139.589C87.6776 140.027 83.7759 141.853 80.3941 141.853C77.7668 141.853 76.9475 143.977 75.3934 145.753C73.7381 147.645 72.7286 151.002 71.2419 153.175C68.6743 156.928 67.4353 161.464 64.8888 165.284C60.5983 171.72 58.9195 181.452 52.4343 186.136C50.6257 187.442 48.1938 188.181 45.924 187.677C44.5518 187.372 43.377 186.067 41.6782 185.695C39.9753 185.323 38.3535 184.594 36.8347 183.745C34.1981 182.272 33.6963 180.606 30.1986 179.783C27.617 179.175 30.8246 174.615 28.0285 173.838C27.2044 173.61 24.0527 173.989 23.6254 173.241C23.0669 172.263 23.5871 169.919 23.5625 168.838C23.5338 167.575 22.6708 167.05 21.8642 166.196C21.0148 165.297 21.2981 163.98 21.2981 162.831C21.2981 161.452 21.7866 159.692 19.9771 159.465C15.7584 158.938 12.3074 159.493 8.52905 156.824C6.66731 155.508 7.5811 154.356 6.83071 152.641C6.04894 150.854 3.01402 150.223 1.48408 149.213C-3.52001 145.908 10.3519 140.76 12.366 139.148C13.9942 137.846 17.4298 138.456 19.3481 138.456H31.7712C38.9637 138.456 44.2382 136.356 50.7989 133.896C56.1232 131.899 61.8906 130.337 67.4049 128.958C69.4229 128.454 71.2451 128.055 72.8144 126.568C73.6255 125.8 76.6934 123.386 74.7958 122.542C73.4669 121.952 70.8055 119.311 69.9838 118.202C67.5322 114.892 62.0735 114.533 61.5236 109.585C61.0661 105.467 60.7297 105.635 56.9003 103.294C50.9123 99.6351 48.6254 92.8262 47.4651 86.1223C47.1137 84.0922 46.9328 82.7771 45.641 81.1531C44.4977 79.7158 42.4685 78.0798 42.2757 76.1524C42.1211 74.6062 42.5496 72.8873 42.2128 71.3719C41.9314 70.1053 41.0468 69.6757 41.2378 68.1953C41.7251 64.4193 46.1217 58.9709 44.0684 55.2376C43.2449 53.7404 41.1544 53.995 42.4959 51.9039C44.2338 49.1947 46.3535 47.0097 48.9433 45.1105C51.6283 43.1415 50.7691 41.3857 49.0062 39.0719C46.0519 35.1944 46.6393 27.0078 48.7231 22.7175Z" fill="#C0D0D1"/>
<path d="M63.6999 22.7175C65.1709 19.689 66.9006 17.2251 68.6307 15.495C72.1585 11.9672 72.9666 10.8382 77.9157 9.09936C82.2338 7.5822 84.6393 8.32854 87.2251 4.6019C89.2863 1.63142 91.2005 3.20443 92.8548 6.23734C93.5145 7.44675 94.7498 8.40381 95.1192 9.69693C95.7918 12.0508 96.7966 13.8725 98.4216 15.7984C100.684 18.4798 101.095 22.585 103.642 24.9505C105.463 26.6407 106.023 30.7917 106.599 33.1592C107.355 36.2677 108.049 39.8198 109.744 42.5315C111.038 44.6027 111.568 49.3176 111.568 51.841V61.7165C111.568 65.1162 114.456 67.1852 116.883 69.2961C118.082 70.3385 119.222 71.4508 120.437 72.4726C121.913 73.714 123.347 76.2356 125.155 76.9387C128.816 78.3626 132.05 71.9054 134.527 70.5542C135.981 69.7612 137.484 69.1397 138.71 67.9752C139.539 67.1877 140.649 65.4149 141.698 64.9874C143.544 64.2353 145.471 63.6041 147.233 62.7229C149.539 61.5699 152.078 61.006 154.687 61.5278C157.142 62.0188 160.276 62.2269 162.518 63.289L162.609 63.3318C164.005 63.9927 165.765 64.8261 166.764 66.0252C167.717 67.1692 167.047 71.056 167.047 72.5356C167.047 75.7241 167.024 75.7433 164.862 77.5641L164.783 77.6306C163.363 78.8261 159.946 80.0248 159.09 81.5934C158.044 83.5106 155.685 85.7254 154.152 87.3803C152.456 89.2123 151.528 91.6039 150.064 93.6076C145.544 99.7927 142.491 106.876 139.874 114.176C137.607 120.499 132.081 124.694 128.866 130.248C126.732 133.934 121.621 136.013 117.669 137.198C113.924 138.322 109.968 139.096 106.096 139.589C102.654 140.027 98.7527 141.853 95.3709 141.853C92.7436 141.853 91.9243 143.977 90.3702 145.753C88.7149 147.645 87.7054 151.002 86.2187 153.175C83.6511 156.928 82.4121 161.464 79.8656 165.284C75.5751 171.72 73.8963 181.452 67.4111 186.136C65.6025 187.442 63.1706 188.181 60.9008 187.677C59.5286 187.372 58.3538 186.067 56.655 185.695C54.9521 185.323 53.3303 184.594 51.8115 183.745C49.1749 182.272 48.6731 180.606 45.1754 179.783C42.5938 179.175 45.8014 174.615 43.0053 173.838C42.1812 173.61 39.0295 173.989 38.6022 173.241C38.0437 172.263 38.5639 169.919 38.5393 168.838C38.5106 167.575 37.6476 167.05 36.841 166.196C35.9916 165.297 36.2749 163.98 36.2749 162.831C36.2749 161.452 36.7635 159.692 34.9539 159.465C30.7352 158.938 27.2842 159.493 23.5059 156.824C21.6441 155.508 22.5579 154.356 21.8075 152.641C21.0258 150.854 17.9908 150.223 16.4609 149.213C11.4568 145.908 25.3287 140.76 27.3428 139.148C28.971 137.846 32.4066 138.456 34.3249 138.456H46.748C53.9405 138.456 59.215 136.356 65.7757 133.896C71.1 131.899 76.8674 130.337 82.3817 128.958C84.3997 128.454 86.222 128.055 87.7912 126.568C88.6023 125.8 91.6702 123.386 89.7726 122.542C88.4437 121.952 85.7824 119.311 84.9606 118.202C82.509 114.892 77.0503 114.533 76.5004 109.585C76.0429 105.467 75.7065 105.635 71.8771 103.294C65.8891 99.6351 63.6022 92.8262 62.4419 86.1223C62.0905 84.0922 61.9096 82.7771 60.6178 81.1531C59.4745 79.7158 57.4453 78.0798 57.2525 76.1524C57.0979 74.6062 57.5264 72.8873 57.1896 71.3719C56.9082 70.1053 56.0236 69.6757 56.2147 68.1953C56.7019 64.4193 61.0985 58.9709 59.0452 55.2376C58.2217 53.7404 56.1312 53.995 57.4727 51.9039C59.2106 49.1947 61.3303 47.0097 63.9201 45.1105C66.6051 43.1415 65.7459 41.3857 63.983 39.0719C61.0287 35.1944 61.6161 27.0078 63.6999 22.7175Z" fill="white" stroke="black" stroke-width="4.99231" stroke-linecap="round"/>
<path d="M69.5107 17.7361C70.4375 19.3401 70.9028 21.213 72.0335 22.6735C73.5969 24.6929 76.0845 25.8241 78.1242 27.2866C79.9824 28.6189 79.0475 31.3895 79.3135 33.3052C79.5623 35.0963 80.6388 36.2699 81.8363 37.5219C82.9187 38.6535 83.0057 40.3378 83.8545 41.6304C86.0998 45.0493 88.3616 46.0045 90.2641 49.6092C91.5283 52.0045 92.7809 56.7196 94.6665 58.6051C96.2996 60.2382 96.975 65.4727 98.5846 67.0822C101.742 70.2399 104.267 70.7892 107.785 73.5256" stroke="black" stroke-width="4.99231" stroke-linecap="round"/>
<path d="M156.114 69.9576C158.582 70.4391 158.264 69.3088 156.601 69.3088C154.946 69.3088 155.657 70.4095 156.438 70.9306" stroke="black" stroke-width="4.99231" stroke-linecap="round"/>
<path d="M167.923 75.1306C169.279 76.884 170.762 78.5803 172.022 80.4013C172.275 80.7662 172.341 81.1581 172.655 81.472C172.822 81.6386 172.884 82.0221 172.951 82.241C172.981 82.3388 173.136 82.4741 172.975 82.4777C172.335 82.4919 171.706 82.4363 171.07 82.3712C169.107 82.1702 167.126 82.3085 165.172 82.105C164.57 82.0423 164.07 81.9611 163.587 81.7382C162.925 81.4328 161.932 81.5194 161.215 81.5194" stroke="black" stroke-width="4.99231" stroke-linecap="round"/>
<path d="M84.2219 129.324C82.2554 132.349 80.6676 135.69 79.2868 139.018C79.0714 139.538 79.0126 140.076 78.7396 140.567C77.942 142.003 83.0189 142.079 83.5818 142.147C84.8092 142.294 86.0733 142.228 87.2883 142.436C88.1275 142.579 89.1892 142.543 89.983 142.818C90.9615 143.157 91.951 143.568 92.9565 143.819" stroke="black" stroke-width="4.99231" stroke-linecap="round"/>
</svg>
