<?xml version="1.0" encoding="utf-8"?>
<!-- Generator: Adobe Illustrator 23.0.3, SVG Export Plug-In . SVG Version: 6.00 Build 0)  -->
<svg version="1.1" xmlns="http://www.w3.org/2000/svg" xmlns:xlink="http://www.w3.org/1999/xlink" x="0px" y="0px"
	 viewBox="0 0 547.3 404.8" style="enable-background:new 0 0 547.3 404.8;" xml:space="preserve">
<style type="text/css">
	.st0{fill:#E6E6E6;}
	.st1{fill:url(#SVGID_1_);}
	.st2{opacity:0.1;}
	.st3{fill:url(#SVGID_2_);}
	.st4{fill:#31575E;}
	.st5{fill:url(#SVGID_3_);}
	.st6{fill:none;stroke:#000000;stroke-width:6.527;stroke-miterlimit:10;}
	.st7{fill:none;stroke:#000000;stroke-width:7.4377;stroke-miterlimit:10;}
	.st8{fill:#F4AC11;}
	.st9{fill:url(#SVGID_4_);}
	.st10{opacity:0.5;}
	.st11{fill:#0E8F89;}
	.st12{fill:none;stroke:#000000;stroke-width:6.257;stroke-miterlimit:10;}
	.st13{fill:#FFFFFF;}
	.st14{fill:url(#SVGID_5_);}
	.st15{fill:url(#SVGID_6_);}
	.st16{fill:url(#SVGID_7_);}
	.st17{fill:url(#SVGID_8_);}
	.st18{fill:url(#SVGID_9_);}
	.st19{fill:url(#SVGID_10_);}
	.st20{fill:url(#SVGID_11_);}
	.st21{fill:url(#SVGID_12_);}
	.st22{fill:url(#SVGID_13_);}
	.st23{fill:url(#SVGID_14_);}
	.st24{fill:none;stroke:#2B303A;stroke-width:14.7979;stroke-linecap:round;stroke-linejoin:round;stroke-miterlimit:10;}
	.st25{fill:none;stroke:#2B303A;stroke-width:3.6187;stroke-linecap:round;stroke-linejoin:round;stroke-miterlimit:10;}
	.st26{fill:none;stroke:#2B303A;stroke-width:5;stroke-linecap:round;stroke-linejoin:round;stroke-miterlimit:10;}
	.st27{fill:url(#SVGID_15_);stroke:#FFFFFF;stroke-width:10.065;stroke-miterlimit:10;}
	.st28{fill:url(#SVGID_16_);stroke:#FFFFFF;stroke-width:10.065;stroke-miterlimit:10;}
	.st29{fill:none;stroke:#2B303A;stroke-width:13.7906;stroke-linecap:round;stroke-linejoin:round;stroke-miterlimit:10;}
	.st30{fill:#0E8F89;stroke:#FFFFFF;stroke-width:3.8932;stroke-miterlimit:10;}
	.st31{fill:#31575E;stroke:#FFFFFF;stroke-width:3.8932;stroke-miterlimit:10;}
	.st32{fill:#F4AC11;stroke:#FFFFFF;stroke-width:3.8932;stroke-miterlimit:10;}
	.st33{fill:none;stroke:#2B303A;stroke-width:5.4958;stroke-linecap:round;stroke-linejoin:round;stroke-miterlimit:10;}
	.st34{fill:#333333;stroke:#333333;stroke-width:2.9787;stroke-linecap:round;stroke-linejoin:round;stroke-miterlimit:10;}
	.st35{fill:none;stroke:#2A6266;stroke-width:10;stroke-linecap:round;stroke-linejoin:round;stroke-miterlimit:10;}
	.st36{fill:none;stroke:#F4AC11;stroke-width:10;stroke-linecap:round;stroke-linejoin:round;stroke-miterlimit:10;}
	.st37{fill:none;stroke:#139B91;stroke-width:10;stroke-linecap:round;stroke-linejoin:round;stroke-miterlimit:10;}
	.st38{opacity:0.3;}
	.st39{fill:none;stroke:#000000;stroke-width:4.2962;stroke-miterlimit:10;}
	.st40{fill:url(#SVGID_17_);}
	.st41{fill:none;stroke:#000000;stroke-width:4.8956;stroke-miterlimit:10;}
	.st42{fill:none;stroke:#000000;stroke-width:4.1185;stroke-miterlimit:10;}
</style>
<g id="Layer_2">
</g>
<g id="Layer_1">
	<polyline class="st6" points="222.9,404.8 224.9,355.9 294.2,354.9 294.2,404.8 	"/>
	<line class="st7" x1="126.4" y1="324.4" x2="126.4" y2="404.8"/>
	<line class="st7" x1="104.1" y1="344.1" x2="148.8" y2="344.1"/>
	<polyline class="st7" points="243.1,382.2 254.2,382.2 252.4,388.7 	"/>
	<polyline class="st7" points="264.9,387 264.9,379.9 281.3,379.7 	"/>
	<path class="st6" d="M122.5,75.2c8.4-0.1,9.5,5.9,9.8,8.4c0.5,5.7-4.2,10.4-8.6,10.4c-4.4,0-10-3.1-10-9.5
		C113.6,75.9,122.5,75.2,122.5,75.2z"/>
	<g>
		<path class="st8" d="M519.7,404.8h6.3v-69.5l-64.1-35.2H200.8l-0.8-84.6c0.3-2.8,0.3-5.5-0.1-8.1l-0.9-91.3l15.1-0.9l-91.5-72.5
			l-89.2,73.3l14.6,1.7l-2.2,287l6.5,0.1l0,0h143l0,0l3.3,0H319v0h6.5v0H519.7L519.7,404.8z"/>
		<linearGradient id="SVGID_1_" gradientUnits="userSpaceOnUse" x1="279.6932" y1="393.6839" x2="279.6932" y2="79.4071">
			<stop  offset="0" style="stop-color:#FFFFFF;stop-opacity:0.5"/>
			<stop  offset="1" style="stop-color:#FFFFFF;stop-opacity:0"/>
		</linearGradient>
		<path class="st1" d="M519.7,404.8h6.3v-69.5l-64.1-35.2H200.8l-0.8-84.6c0.3-2.8,0.3-5.5-0.1-8.1l-0.9-91.3l15.1-0.9l-91.5-72.5
			l-89.2,73.3l14.6,1.7l-2.2,287l6.5,0.1l0,0h143l0,0l3.3,0H319v0h6.5v0H519.7L519.7,404.8z"/>
	</g>
</g>
</svg>
