<svg width="319" height="77" viewBox="0 0 319 77" fill="none" xmlns="http://www.w3.org/2000/svg">
<path d="M4.21373 72.1883C4.21373 72.1883 3.76179 43.1731 4.17228 37.6412C4.1937 37.3525 4.35276 37.0934 4.59284 36.9317C20.1144 26.4756 36.6784 24.4948 44.6211 24.3512C45.1602 24.3414 45.5966 23.9186 45.6116 23.3796C45.7563 18.1835 45.7824 9.84481 45.7872 6.99335C45.7881 6.44106 46.2359 5.99998 46.7882 5.99998H64.0201C64.576 5.99998 65.0252 6.45329 65.0201 7.00913L64.8311 27.6694C64.8266 28.1654 65.1813 28.5904 65.6691 28.6804C68.3257 29.1709 76.5837 30.9064 80.9468 34.2182C81.1847 34.3988 81.3155 34.6826 81.3155 34.9813V72.1883" stroke="#2A6266" stroke-width="8" stroke-linecap="round"/>
<path d="M243.057 71.6675V16.1109C243.057 15.7956 243.206 15.4988 243.459 15.31L257.951 4.47613C258.324 4.1974 258.84 4.21281 259.195 4.51331L272.458 15.7225C272.683 15.9125 272.812 16.1919 272.812 16.4863V40.1656C272.812 40.7179 273.26 41.1656 273.812 41.1656H309.651C309.827 41.1656 310 41.2121 310.153 41.3004L314.163 43.6246C314.472 43.8034 314.662 44.1331 314.662 44.4898V71.6675" stroke="#F4AC11" stroke-width="8" stroke-linecap="round"/>
<path d="M128.425 71.8813L128.022 38.3581C128.016 37.9103 127.667 37.509 127.237 37.3867C103.921 30.7638 146.438 25.6634 153.122 24.9174C153.632 24.8605 153.988 24.4339 153.988 23.9215V7C153.988 6.44772 154.436 6 154.988 6H169.412C169.964 6 170.412 6.44771 170.412 7V23.9216C170.412 24.4339 170.768 24.8606 171.277 24.9175C177.955 25.6637 220.402 30.7625 197.172 37.3836C196.737 37.5075 196.387 37.9151 196.387 38.3671V71.8813" stroke="#139B91" stroke-width="8" stroke-linecap="round"/>
</svg>
