<svg width="410" height="109" viewBox="0 0 410 109" fill="none" xmlns="http://www.w3.org/2000/svg">
<path d="M119.636 49.016C113.089 43.6207 99.4892 40.9078 95.9749 40.2796C95.4866 40.1924 95.1348 39.7681 95.1393 39.272L95.4285 7.66465C95.4335 7.10881 94.9844 6.6555 94.4285 6.6555H67.8487C67.2964 6.6555 66.8486 7.09275 66.8479 7.64504C66.8429 11.3992 66.8089 24.9529 66.5729 32.9447C66.557 33.4837 66.1192 33.9085 65.5801 33.9152C53.9396 34.0597 28.8783 36.8863 5.45519 52.7391C5.21546 52.9013 5.05835 53.137 5.03384 53.4254C4.39066 60.993 5.07612 105 5.07612 105" stroke="white" stroke-width="8" stroke-linecap="round"/>
<path d="M405.392 63.3046L398.579 59.3565C398.427 59.2682 398.254 59.2217 398.078 59.2217H344.211C343.659 59.2217 343.211 58.774 343.211 58.2217V22.327C343.211 22.0326 343.081 21.7532 342.856 21.5632L322.683 4.5133C322.327 4.21281 321.811 4.1974 321.439 4.47613L299.401 20.9504C299.149 21.1392 299 21.4361 299 21.7514V104.542" stroke="white" stroke-width="8" stroke-linecap="round"/>
<path d="M257.373 50.9538C294.965 40.8174 228.249 33.0103 219.671 32.0645C219.162 32.0083 218.778 31.5788 218.778 31.0665V5C218.778 4.44772 218.331 4 217.778 4H195.376C194.823 4 194.376 4.44772 194.376 5V31.0663C194.376 31.5787 193.992 32.0083 193.483 32.0644C184.958 33.0031 119.033 40.7071 154.997 50.7392C155.429 50.8595 155.784 51.263 155.79 51.7108L156.393 101.888" stroke="white" stroke-width="8" stroke-linecap="round"/>
</svg>
