<?xml version="1.0" encoding="utf-8"?>
<!-- Generator: Adobe Illustrator 23.0.3, SVG Export Plug-In . SVG Version: 6.00 Build 0)  -->
<svg version="1.1" xmlns="http://www.w3.org/2000/svg" xmlns:xlink="http://www.w3.org/1999/xlink" x="0px" y="0px"
	 viewBox="0 0 547.3 404.8" style="enable-background:new 0 0 547.3 404.8;" xml:space="preserve">
<style type="text/css">
	.st0{fill:#E6E6E6;}
	.st1{fill:url(#SVGID_1_);}
	.st2{opacity:0.1;}
	.st3{fill:url(#SVGID_2_);}
	.st4{fill:#31575E;}
	.st5{fill:url(#SVGID_3_);}
	.st6{fill:none;stroke:#000000;stroke-width:6.527;stroke-miterlimit:10;}
	.st7{fill:none;stroke:#000000;stroke-width:7.4377;stroke-miterlimit:10;}
	.st8{fill:#F4AC11;}
	.st9{fill:url(#SVGID_4_);}
	.st10{opacity:0.5;}
	.st11{fill:#0E8F89;}
	.st12{fill:none;stroke:#000000;stroke-width:6.257;stroke-miterlimit:10;}
	.st13{fill:#FFFFFF;}
	.st14{fill:url(#SVGID_5_);}
	.st15{fill:url(#SVGID_6_);}
	.st16{fill:url(#SVGID_7_);}
	.st17{fill:url(#SVGID_8_);}
	.st18{fill:url(#SVGID_9_);}
	.st19{fill:url(#SVGID_10_);}
	.st20{fill:url(#SVGID_11_);}
	.st21{fill:url(#SVGID_12_);}
	.st22{fill:url(#SVGID_13_);}
	.st23{fill:url(#SVGID_14_);}
	.st24{fill:none;stroke:#2B303A;stroke-width:14.7979;stroke-linecap:round;stroke-linejoin:round;stroke-miterlimit:10;}
	.st25{fill:none;stroke:#2B303A;stroke-width:3.6187;stroke-linecap:round;stroke-linejoin:round;stroke-miterlimit:10;}
	.st26{fill:none;stroke:#2B303A;stroke-width:5;stroke-linecap:round;stroke-linejoin:round;stroke-miterlimit:10;}
	.st27{fill:url(#SVGID_15_);stroke:#FFFFFF;stroke-width:10.065;stroke-miterlimit:10;}
	.st28{fill:url(#SVGID_16_);stroke:#FFFFFF;stroke-width:10.065;stroke-miterlimit:10;}
	.st29{fill:none;stroke:#2B303A;stroke-width:13.7906;stroke-linecap:round;stroke-linejoin:round;stroke-miterlimit:10;}
	.st30{fill:#0E8F89;stroke:#FFFFFF;stroke-width:3.8932;stroke-miterlimit:10;}
	.st31{fill:#31575E;stroke:#FFFFFF;stroke-width:3.8932;stroke-miterlimit:10;}
	.st32{fill:#F4AC11;stroke:#FFFFFF;stroke-width:3.8932;stroke-miterlimit:10;}
	.st33{fill:none;stroke:#2B303A;stroke-width:5.4958;stroke-linecap:round;stroke-linejoin:round;stroke-miterlimit:10;}
	.st34{fill:#333333;stroke:#333333;stroke-width:2.9787;stroke-linecap:round;stroke-linejoin:round;stroke-miterlimit:10;}
	.st35{fill:none;stroke:#2A6266;stroke-width:10;stroke-linecap:round;stroke-linejoin:round;stroke-miterlimit:10;}
	.st36{fill:none;stroke:#F4AC11;stroke-width:10;stroke-linecap:round;stroke-linejoin:round;stroke-miterlimit:10;}
	.st37{fill:none;stroke:#139B91;stroke-width:10;stroke-linecap:round;stroke-linejoin:round;stroke-miterlimit:10;}
	.st38{opacity:0.3;}
	.st39{fill:none;stroke:#000000;stroke-width:4.2962;stroke-miterlimit:10;}
	.st40{fill:url(#SVGID_17_);}
	.st41{fill:none;stroke:#000000;stroke-width:4.8956;stroke-miterlimit:10;}
	.st42{fill:none;stroke:#000000;stroke-width:4.1185;stroke-miterlimit:10;}
</style>
<g id="Layer_2">
</g>
<g id="Layer_1">
	<path class="st13" d="M51.7,317.7C51.7,317.7,51.7,317.7,51.7,317.7c-1.6,29-1.6,58.1,0.1,87.1h471.1c0-0.6,0-1.1,0-1.7
		c0.8-18.4,0.2-37.3,0-55.7c-0.1-8.6-1.5-15-9.4-16.1c-0.3,0-1.3,0.1-1.7,0c-0.9-0.2-1.1-0.5-2-0.7c-0.7-1.2-1.6-1.1-2.6-2.2
		c-4.7-5.1-10.6-7.5-17-8c-1.5-1-3-2.1-4.5-3.1c-5.8-4.2-11.4-8-18.1-10.6c-8.1-3.2-17.3-3.1-25.9-3.5c-8.7-0.4-17.4-0.7-26.2-1
		c-34.9-1.3-69.8-2-104.8-1.9c-35.2,0.1-70.4,1.1-105.6,3.3c-2,0.1-3.9,0.3-5.8,0.4c0.1-1.7,0.2-3.4,0.4-5.2
		c0.2-2.5-0.5-4.9-1.8-7.1c0.1-0.9,0.3-1.9,0.3-2.8c1.2-19-2.8-37.9-1.4-56.9c0.1-1,0.2-2.1,0.3-3.1c0,0,0-0.1,0-0.1
		c0.6-2.5,1.1-5.1,1.7-7.7c1.8-7.5,1.7-14.5-1.2-21c0-4.5-0.8-8.9-1.9-13.5c-0.6-2.6-1.1-5.2-1.5-7.8c0-0.1,0-0.2-0.1-0.3
		c1.3-4.2,2-8.6,2.3-13.2c0.8-10.8,0.9-21.7,1.4-32.5c0.1-1.6-0.1-3.2-0.4-4.8c-1.4-14.9,3.9-21.4-3.9-28
		c-12.1-10.2-25-19.1-39.3-25.8c-0.1-0.1-0.3-0.1-0.4-0.2c-0.2-0.3-0.5-0.5-0.7-0.8c-4.6-5.2-9-10.5-13.5-15.7
		c-4.8-5.6-12.9-7.4-19.8-6.5c-7.5,1-13,5-17.2,11.3c-0.5,0.8-2.7,4.9-3.5,5c2.1-2.7,2.4-3.1,0.8-1.2c-0.7,0.8-1.3,1.6-2,2.3
		c-2.4,2.7-4.9,5.2-7.6,7.6c-0.8,0.7-3.7,4-4.7,3.9c0.8-0.6,1.6-1.2,2.3-1.8c-0.8,0.6-1.7,1.2-2.5,1.8C84.1,81,82.5,82,80.9,83
		c-2,0.8-3.9,1.9-5.8,3.2c-3.1,2.2-5.8,4.7-7.9,7.7c-10.2,2.6-18.7,11.9-18.3,22.9c0.2,4.4,1.5,8.7,3.7,12.3c-1,2.5-1.5,5.3-1.4,8.2
		c0.1,5.2,0.2,10.3,0.3,15.5c0.1,2.9,0.6,5.7,1.6,8.3c0.3,10.5-0.1,21-1.2,31.4c-0.1,0.9-0.2,1.8-0.3,2.7c0,0.3-0.1,0.6-0.1,0.9
		c0.5-3.7,0.5-3.5-0.1,0.5c-0.3,2.4-0.5,4.7-0.4,7c-0.7,1.9-1.2,3.8-1.6,5.9c-2.2,11.3,0.2,22.1,0.3,33.4c0.1,9.7-0.7,19.5-1.1,29.2
		c-0.2,4.9-0.4,9.7-0.3,14.6c0.1,3.5,0.5,6.9,1.3,10.1c-0.9,1.1-2,2.2-2.2,3.6c-0.7,5.9-1.2,12.1,3.1,16.5
		C51.3,317.3,51.6,317.7,51.7,317.7z M203.6,322.1C203.5,322.1,203.5,322.1,203.6,322.1C203.5,322.1,203.5,322.1,203.6,322.1
		C203.6,322.1,203.6,322.1,203.6,322.1z M203.5,322C202.7,321.8,202.8,321.1,203.5,322L203.5,322z M199.3,334.1
		c-0.5,0.2-0.9,0.3-1,0.1C198.3,334.2,198.7,334.2,199.3,334.1z"/>
	<g class="st10">
		<polygon points="124.3,75.2 133.1,84.6 124.3,94.9 112.2,84.3 		"/>
		<polygon points="73.1,296.1 80.3,163.1 71.8,173.5 		"/>
		<polygon points="112.5,257.8 112.6,256.5 122,131.4 112.6,144.5 		"/>
		<polygon points="152.2,254.9 161.9,160.2 154.1,167.5 		"/>
		<path d="M198.5,334.1c9.4-16.1,43.6-27,86.3-28.9s-87.6-4.4-87.6-4.4L198.5,334.1z"/>
		<path d="M56,115.4c0,0,47.7-51.1,73.4-52.1c17.3-0.6,22.4,7.3,22.4,7.3L123.6,47l-78.5,64.5l14.6,4.3l9.7,1.2"/>
	</g>
	<g>
		<polyline class="st6" points="71.8,117.4 41.4,113.8 122.6,47 205.3,112.5 176.8,114.2 		"/>
		<line class="st6" x1="49" y1="404.8" x2="51.2" y2="113.8"/>
		<line class="st6" x1="198.5" y1="404.8" x2="195.7" y2="113.8"/>
		<path class="st7" d="M114.3,300.5l-1.8-153.3c0,0-0.7-15.8,10.8-15.8c9.1,0,9.8,14.6,9.8,14.6v156.8"/>
		<path class="st7" d="M71.8,305.2l1.1-127.3c0,0-1.4-16.8,10.1-16.8c9.1,0,10.9,15.7,10.9,15.7l-0.8,124.6"/>
		<path class="st7" d="M152.2,302.8V177.8c0,0-0.9-16,10.6-16c9.1,0,8.9,15.1,8.9,15.1l-1.6,129.6"/>
		<polyline class="st12" points="197.5,303.3 461.1,303.3 522.9,337.2 522.9,406.5 		"/>
		<line class="st12" x1="210.3" y1="337.7" x2="501.9" y2="337.7"/>
		<line class="st6" x1="322.2" y1="348.3" x2="322.2" y2="404.8"/>
	</g>
	<polyline class="st6" points="222.9,404.8 224.9,355.9 294.2,354.9 294.2,404.8 	"/>
	<line class="st7" x1="126.4" y1="324.4" x2="126.4" y2="404.8"/>
	<line class="st7" x1="104.1" y1="344.1" x2="148.8" y2="344.1"/>
	<polyline class="st7" points="243.1,382.2 254.2,382.2 252.4,388.7 	"/>
	<polyline class="st7" points="264.9,387 264.9,379.9 281.3,379.7 	"/>
	<path class="st6" d="M122.5,75.2c8.4-0.1,9.5,5.9,9.8,8.4c0.5,5.7-4.2,10.4-8.6,10.4c-4.4,0-10-3.1-10-9.5
		C113.6,75.9,122.5,75.2,122.5,75.2z"/>
</g>
</svg>
