<?xml version="1.0" encoding="utf-8"?>
<!-- Generator: Adobe Illustrator 23.0.3, SVG Export Plug-In . SVG Version: 6.00 Build 0)  -->
<svg version="1.1" xmlns="http://www.w3.org/2000/svg" xmlns:xlink="http://www.w3.org/1999/xlink" x="0px" y="0px"
	 viewBox="0 0 483.6 431.4" style="enable-background:new 0 0 483.6 431.4;" xml:space="preserve">
<style type="text/css">
	.st0{fill:#E6E6E6;}
	.st1{fill:url(#SVGID_1_);}
	.st2{opacity:0.1;}
	.st3{fill:url(#SVGID_2_);}
	.st4{fill:#31575E;}
	.st5{fill:url(#SVGID_3_);}
	.st6{fill:none;stroke:#000000;stroke-width:6.527;stroke-miterlimit:10;}
	.st7{fill:none;stroke:#000000;stroke-width:7.4377;stroke-miterlimit:10;}
	.st8{fill:#F4AC11;}
	.st9{fill:url(#SVGID_4_);}
	.st10{opacity:0.5;}
	.st11{fill:#0E8F89;}
	.st12{fill:none;stroke:#000000;stroke-width:6.257;stroke-miterlimit:10;}
	.st13{fill:#FFFFFF;}
	.st14{fill:url(#SVGID_5_);}
	.st15{fill:url(#SVGID_6_);}
	.st16{fill:url(#SVGID_7_);}
	.st17{fill:url(#SVGID_8_);}
	.st18{fill:url(#SVGID_9_);}
	.st19{fill:url(#SVGID_10_);}
	.st20{fill:url(#SVGID_11_);}
	.st21{fill:url(#SVGID_12_);}
	.st22{fill:url(#SVGID_13_);}
	.st23{fill:url(#SVGID_14_);}
	.st24{fill:none;stroke:#2B303A;stroke-width:14.7979;stroke-linecap:round;stroke-linejoin:round;stroke-miterlimit:10;}
	.st25{fill:none;stroke:#2B303A;stroke-width:3.6187;stroke-linecap:round;stroke-linejoin:round;stroke-miterlimit:10;}
	.st26{fill:none;stroke:#2B303A;stroke-width:5;stroke-linecap:round;stroke-linejoin:round;stroke-miterlimit:10;}
	.st27{fill:url(#SVGID_15_);stroke:#FFFFFF;stroke-width:10.065;stroke-miterlimit:10;}
	.st28{fill:url(#SVGID_16_);stroke:#FFFFFF;stroke-width:10.065;stroke-miterlimit:10;}
	.st29{fill:none;stroke:#2B303A;stroke-width:13.7906;stroke-linecap:round;stroke-linejoin:round;stroke-miterlimit:10;}
	.st30{fill:#0E8F89;stroke:#FFFFFF;stroke-width:3.8932;stroke-miterlimit:10;}
	.st31{fill:#31575E;stroke:#FFFFFF;stroke-width:3.8932;stroke-miterlimit:10;}
	.st32{fill:#F4AC11;stroke:#FFFFFF;stroke-width:3.8932;stroke-miterlimit:10;}
	.st33{fill:none;stroke:#2B303A;stroke-width:5.4958;stroke-linecap:round;stroke-linejoin:round;stroke-miterlimit:10;}
	.st34{fill:#333333;stroke:#333333;stroke-width:2.9787;stroke-linecap:round;stroke-linejoin:round;stroke-miterlimit:10;}
	.st35{fill:none;stroke:#2A6266;stroke-width:10;stroke-linecap:round;stroke-linejoin:round;stroke-miterlimit:10;}
	.st36{fill:none;stroke:#F4AC11;stroke-width:10;stroke-linecap:round;stroke-linejoin:round;stroke-miterlimit:10;}
	.st37{fill:none;stroke:#139B91;stroke-width:10;stroke-linecap:round;stroke-linejoin:round;stroke-miterlimit:10;}
	.st38{opacity:0.3;}
	.st39{fill:none;stroke:#000000;stroke-width:4.2962;stroke-miterlimit:10;}
	.st40{fill:url(#SVGID_17_);}
	.st41{fill:none;stroke:#000000;stroke-width:4.8956;stroke-miterlimit:10;}
	.st42{fill:none;stroke:#000000;stroke-width:4.1185;stroke-miterlimit:10;}
</style>
<g id="Layer_2">
</g>
<g id="Layer_1">
	<path class="st13" d="M449.2,404.7c-0.4-9.6-1.5-19.1-2.5-28.6c-1.9-20-3.9-40-5.8-60c-0.2-2.1,0.7-3.6,2-4.6
		c-0.4-2.4-0.8-4.9-1-7.4c-1-11.1-1.5-22.2-2.4-33.3c-0.9-4.3-1.3-8.7-1.3-13.1c-0.3-2.3-0.6-4.6-1-6.9c-0.4-2.6,0.7-4.7,2.3-6
		c1.2-4.5,3.4-8.9,3.8-13.3c0.4-5.1-4.4-9.1-8.2-11.7c-2.6-1.8-4-5.3-2.2-8.2c9.9-15.5-4.6-31.2-15.8-40.7c-0.2-0.2-0.4-0.4-0.6-0.6
		c-0.6-0.2-1.1-0.4-1.7-0.6c-20-8.5-41.8-14-63.4-16.1c-11.9-1.2-23.9-0.9-35.7-3c-9.7-1.8-20.4-7.6-30.4-6.1
		c-8,1.2-13.6-3-14.6-11.1c-2.5-21.3,0.2-44.2,4.9-65.1c1-4.5,2.3-8.9,4.1-13.2c0.8-1.9,1.7-4.4,2.7-6.8c-0.3-0.3-0.6-0.6-0.9-1
		c-3.9-0.2-7.8-0.4-11.8-0.5c-19.5-0.5-39.1,0.4-58.5,2.6c-4.8,0.6-9.6,1.2-14.3,2c-1.7,0.3-5.9,1.6-8.1,1.8c0,0.7,0,1.2,0,1
		c0.1,1.6,0.3,3.1,0.6,4.7c0.9,4.3,2.1,8.5,3.3,12.7c2.6,0.5,4.9,2.5,4.6,5.7c-0.1,1.3-0.2,2.7-0.4,4c-0.1,1.2-0.5,2.1-1,2.9
		c-0.1,0.7-0.3,1.3-0.5,2c0.5,4.6,0.8,9.3,0.8,14c0.1,9.3,1.8,18.1,3.7,27.1c1.8,8.3-5.3,16.8-14.1,14.1c-0.9-0.3-1.8-0.7-2.8-0.5
		c-0.5,0.1-0.9,0.1-1.4,0.2c-5.6,3.5-13.2,4.2-19.8,4c-4.4-0.1-8.8-0.5-13.2,0c-3.8,0.5-7.5,1.9-11.1,3.1
		c-8.3,2.7-16.9,3.7-25.4,5.8c-8.5,2.1-16.2,6.1-24.9,7.6c-3.9,0.7-8.1,1.5-12.2,1.9c-0.5,0.2-1,0.4-1.5,0.6c-0.2,1.6-1.1,3-3.1,4
		c-2.8,1.3-5.6,2.7-8.4,4.1c-2.3,2.2-5.4,3.1-8.1,4.6c-2.4,1.3-4.4,2.9-6.3,4.8c-3.3,3.1-9.3,7.7-10.3,12.3
		c-0.6,2.5-0.4,5.7-0.3,8.3c0,1.9,0.1,3.3,0.8,4.1c6,6.7,3.2,15.1-4.1,18.8c0,2.7,0,5.4,0.1,8.1c0.1,3.1-0.4,6.3,2.1,8.5
		c1.6,1.4,3.6,2.2,5,3.9c1.9,2.3,2,5,2.2,7.8c1.1,12.8,0.6,25.1-2.4,37.6c-1.5,6.2-3.3,12.4-3.8,18.8c-0.5,6.2,0.3,12.4,0.1,18.6
		c-0.3,6.2-1.8,12.2-2.6,18.3c-0.7,5.8-0.8,11.7-0.6,17.5c0.7,0.9,1.2,2,1.3,3.5c1.1,18-0.4,35.9-4.1,53.5
		c4.5,8.8,13.4,15,24.2,15.1c96.5,0.3,193.1,0.5,289.6,0.8c27.3,0.1,54.6,0.1,81.9,0.2c8.2,0,16.9-4.5,22.2-11.2
		C448.2,419,449.5,411.5,449.2,404.7z M256.4,132.1c0-0.7,0-1.5-0.1-2.2C256.4,130.4,256.4,131.2,256.4,132.1
		C256.4,132.2,256.4,132.2,256.4,132.1z M313.1,241.5c0.4,0.1,0.7,0.2,0.7,0.2C313.7,241.8,313.5,241.7,313.1,241.5z M312.8,241.1
		c0.6,0,1.1,0,1.3,0.2C314.2,241.4,313.6,241.3,312.8,241.1z M379.5,371.5c0.2,0,0.4,0.1,0.6,0.1c0,0,0,0,0,0
		C379.9,371.6,379.7,371.5,379.5,371.5z M380.2,371.6C380.2,371.6,380.2,371.6,380.2,371.6c0.2,0,0.4,0.1,0.6,0.1
		C380.6,371.7,380.4,371.7,380.2,371.6z M383.4,216.8c0,0,0-0.1,0-0.1c0.1,0.3,0.3,0.5,0.4,0.7C383.6,217.2,383.5,217,383.4,216.8z"
		/>
	<g class="st10">
		<path d="M195.6,69.3c4.1,1.1,6.1-1.3,9.4-2.6c2.3-0.9,4.9-0.3,7.3,0c3.8,0.5,7.6,1.1,11.4,1c7.8-0.1,15.5-1.7,23.3-2.1
			c3-0.2,5.9-0.2,8.9-0.1c2.1-1,4.5-0.9,6.6,0c0.5,0,1,0,1.5,0c0,0,0,0,0,0c0,0.3,0.1,0.5,0.1,0.8c2.5,1.5,4.4,4.1,4.6,7.1
			c1.2,0.7,2.7,1.1,4.3,1.1c0.1,0,0.2,0,0.3,0c0.7-1.6,1.5-3.3,2.1-5c1.9-5.2,2.7-10.5,4.8-15.6c-0.1-0.1-0.1-0.3-0.2-0.4
			c-2.5-4.6-6.7-5.2-11.4-5.6c-9.1-0.6-18.3-0.8-27.4,0.2c-8.6,0.9-17,2.3-25.7,1c-7-1-12.4-0.8-18.2,1.8c-0.8,0-1.6,0.1-2.3,0.3
			c-5,1.4-7.2,6.3-6.3,11.1C189.3,65.7,192.3,68.4,195.6,69.3z"/>
		<path d="M216.4,182.4c-3.4,0.2-6.9,0.5-10.4,0.8l48.5-0.8C254.4,182.4,272.2,179.2,216.4,182.4z"/>
		<path d="M36.4,239.4l8.8,3.5c2.4-10.2,17.5-21.7,30.9-27.4c12.5-5.3,76-27,129.9-32.3l-46.6,0.8L80,199.4l-35.6,17.9L32.7,231
			L36.4,239.4z"/>
		<path d="M117.6,379c3.6-18,3.3-40.6,11.8-48.9c7.4-7.2,23.6-12.8,28.3-13c4.7-0.2-39.9-0.6-39.9-0.6L117.6,379z"/>
		<path d="M201.2,314.1l0.8,64.3c3.4-20.6,6.7-44.9,12.6-51.1c7.5-8,21-12.6,28.5-13C250.5,313.9,201.2,314.1,201.2,314.1z"/>
		<path d="M294.1,316l1.4,64.3c2.4-20.4,2.1-46.8,9.7-53c7.6-6.2,23.3-10.7,30.8-11.1C343.5,315.8,294.1,316,294.1,316z"/>
		<path d="M88.1,273.4l3.2,7l16.7,1.1c4.9,0,116.5-55.6,127.8-56.6c11.3-1.1,148.9,50.7,148.9,50.7l-147.1-63.4L88.1,273.4z"/>
		<path d="M397.2,164.5L344.3,151l-85.8-9.2l-86.8,3.2l-69,11.9l-49.1,22.7l-16.7,14.6l1.6,14l5.9,9.2c5.9-14.6,45.3-61.5,168.3-62
			s195.8,16.2,206.6,20.5C430.1,180.1,397.2,164.5,397.2,164.5z"/>
	</g>
	<polygon class="st6" points="237.6,212.2 85,274.7 89.4,281.4 237.6,281.4 385.9,281.4 390.2,274.7 	"/>
	<line class="st6" x1="99.2" y1="292.5" x2="94" y2="430.8"/>
	<polyline class="st6" points="112.6,406.2 115.7,314.5 162.6,314.5 	"/>
	<polyline class="st6" points="199.2,403.8 199.2,312.1 246,312.1 	"/>
	<polyline class="st6" points="292.9,406.2 291.3,314.5 338.1,314.5 	"/>
	<line class="st6" x1="379.9" y1="292.5" x2="385.8" y2="431.4"/>
	<line class="st6" x1="361.8" y1="314.5" x2="366" y2="431.4"/>
	<path class="st6" d="M43.7,216.1c-7.7-10.6-6.3-23,3.7-31.9s51.9-42.6,185.9-41.1s178,24.8,190.2,35.3
		c12.3,10.5,12.2,26.7,6.8,35.4"/>
	<path class="st6" d="M40.2,245.8c-7.7-10.6-7.3-18.1-1.2-23.6c10-8.9,64.7-43.3,198.6-41.8"/>
	<path class="st6" d="M435.1,245.8c7.7-10.6,7.3-18.1,1.2-23.6c-10-8.9-64.7-43.3-198.6-41.8"/>
	<line class="st6" x1="43.3" y1="241.3" x2="32" y2="431.4"/>
	<line class="st6" x1="435.1" y1="238.7" x2="448.5" y2="431.4"/>
	<line class="st6" x1="115.8" y1="191.2" x2="112.6" y2="243.2"/>
	<line class="st6" x1="357.2" y1="179.1" x2="357.2" y2="154.6"/>
	<polyline class="st6" points="198.8,140.5 198.8,66.9 268.5,64.5 271.8,144 	"/>
	<path class="st6" d="M274,87.8c0-5.1,5.5-39,5.5-39l-90.1,2l3.5,24.4"/>
	<path class="st6" d="M358.9,232.4c0.4-2-1.6-41.3-1.6-41.3"/>
	<line class="st6" x1="118.1" y1="153.5" x2="116.5" y2="179.7"/>
	<path class="st6" d="M235.3,84.7c27,2.3,18.1,31.8-0.3,30c-10.4-1-15.7-8.4-15.7-15.7c0-8,7-14.4,15.6-14.4H235.3z"/>
	<g>
	</g>
	<line class="st6" x1="235.5" y1="49.6" x2="234.8" y2="21.6"/>
	<path class="st6" d="M223.8,31.8c1.5,0,23.2-0.8,23.2-0.8"/>
</g>
</svg>
