<svg width="168" height="135" viewBox="0 0 168 135" fill="none" xmlns="http://www.w3.org/2000/svg">
<path d="M9.5 38V133H162V110.5L142 99H56.5V38H59L33 12L6.5 38H9.5Z" fill="white"/>
<path d="M16.0477 38.5381H5.99976L32.9998 12L59.7973 38.5381H48.9998" stroke="black" stroke-width="2.44868" stroke-miterlimit="10"/>
<path d="M9.45605 133.233V37.5618" stroke="black" stroke-width="2.44868" stroke-miterlimit="10"/>
<path d="M56.7356 133.233V37.5618" stroke="black" stroke-width="2.44868" stroke-miterlimit="10"/>
<path d="M29.5 99L29.0024 48.1622C29.0024 48.1622 28.7995 43 32.1333 43C35.4671 43 34.9743 48.1622 34.9743 48.1622V99" stroke="black" stroke-width="2.79035" stroke-miterlimit="10"/>
<path d="M16.1261 98.8052L16.126 58.6447C16.126 58.6447 15.6601 53.1816 19.4872 53.1816C24.0002 53.1816 23.1146 58.287 23.1146 58.287L22.8483 98.8052" stroke="black" stroke-width="2.79035" stroke-miterlimit="10"/>
<path d="M42.0317 98.8427V58.363C42.0317 58.363 41.741 53.1816 45.4555 53.1816C48.3302 53.1816 48.3302 58.0716 48.3302 58.0716V99" stroke="black" stroke-width="2.79035" stroke-miterlimit="10"/>
<path d="M56.7356 99.0647H141.847L161.802 110.609V134.209" stroke="black" stroke-width="2.34739" stroke-miterlimit="10"/>
<path d="M60.9382 111.756L152.5 111.756" stroke="black" stroke-width="2.34739" stroke-miterlimit="10"/>
<path d="M96.6609 115.5V133.233" stroke="black" stroke-width="2.44868" stroke-miterlimit="10"/>
<path d="M65.1409 133.233V116.637H88.2554V133.233" stroke="black" stroke-width="2.44868" stroke-miterlimit="10"/>
<path opacity="0.5" d="M16.242 97.1122L21.0002 53.5L16.2421 55.5L16.242 97.1122Z" fill="black"/>
<path opacity="0.5" d="M29.4185 85.3974L29.4516 84.9657L33 43.5L29.4516 46L29.4185 85.3974Z" fill="black"/>
<path opacity="0.5" d="M42.0264 84.4212L46.229 53.1816L42.8496 55.5897L42.0264 84.4212Z" fill="black"/>
<path opacity="0.5" d="M56.7356 113.5C58.9998 101.5 83.0083 99.7241 96.9998 99C110.991 98.2759 56.7356 98.0884 56.7356 98.0884V113.5Z" fill="black"/>
<path opacity="0.5" d="M10.8967 38.0248C10.8967 38.0248 26.1491 18.8207 34.5002 18.5C40.1218 18.3075 41.7791 20.8416 41.7791 20.8416L32.6156 13.2715L7.00024 38.0248L12.099 38.1531L15.2509 38.5381" fill="black"/>
<path d="M33.6211 107.851V133.233" stroke="black" stroke-width="2.79035" stroke-miterlimit="10"/>
<path d="M26.2666 113.708H40.9759" stroke="black" stroke-width="2.79035" stroke-miterlimit="10"/>
<path d="M71 126H75.2027" stroke="black" stroke-width="2.79035" stroke-miterlimit="10"/>
<path d="M70.6473 124.399L69.9658 125.376" stroke="black" stroke-width="2.79035" stroke-miterlimit="10"/>
<path d="M78 128.5V126.053L83.2533 126" stroke="black" stroke-width="2.79035" stroke-miterlimit="10"/>
<path d="M32.3055 25.0005C35.4604 24.9632 35.8735 27.1971 35.9862 28.1279C36.174 30.2501 34.4088 32 32.7562 32C31.1036 32 29.0003 30.8458 29.0003 28.463C28.9628 25.2611 32.3055 25.0005 32.3055 25.0005Z" fill="black" fill-opacity="0.5" stroke="black" stroke-width="2.44868" stroke-miterlimit="10"/>
</svg>
