<svg width="173" height="138" viewBox="0 0 173 138" fill="none" xmlns="http://www.w3.org/2000/svg">
<g clip-path="url(#clip0_113_90)">
<path d="M21.5 78L18.5 138H153.5C152.167 118 149.6 78 150 78C152 77 153.5 70.5 148 69.5C156.5 54.5 129 44.5 96.5 46C96.9 46 96 31.6667 95.5 24.5L98.5 15.5H69L72 24.5C72.1667 31.6667 72.6 46 73 46C19 50.5 16.5 65 22.5 69.5C19.5 70.5 17.5 74 21.5 78Z" fill="white"/>
<path opacity="0.5" d="M71.5045 22.1295C72.8107 22.4967 73.4478 21.6954 74.4991 21.2613C75.2318 20.9608 76.0601 21.1612 76.8247 21.2613C78.0353 21.4283 79.2458 21.6286 80.4564 21.5952C82.9413 21.5618 85.3943 21.0276 87.8792 20.8941C88.8349 20.8273 89.7587 20.8273 90.7145 20.8607C91.3835 20.5268 92.148 20.5602 92.817 20.8607C92.9763 20.8607 93.1356 20.8607 93.2949 20.8607C93.2949 20.9608 93.3268 21.0276 93.3268 21.1278C94.1232 21.6286 94.7285 22.4967 94.7922 23.4984C95.1745 23.7321 95.6523 23.8657 96.162 23.8657C96.1939 23.8657 96.2258 23.8657 96.2576 23.8657C96.4806 23.3315 96.7355 22.7638 96.9266 22.1962C97.5319 20.46 97.7868 18.6904 98.4558 16.9876C98.4239 16.9542 98.4239 16.8874 98.3921 16.854C97.5956 15.3181 96.2576 15.1178 94.7603 14.9842C91.8613 14.7839 88.9304 14.7171 86.0314 15.051C83.2917 15.3515 80.6157 15.819 77.8441 15.3849C75.6141 15.051 73.8938 15.1178 72.0461 15.9859C71.7912 15.9859 71.5364 16.0193 71.3134 16.0861C69.7205 16.5535 69.0197 18.1896 69.3064 19.7922C69.4975 20.9275 70.4532 21.829 71.5045 22.1295Z" fill="black"/>
<path opacity="0.5" d="M78.1746 58.6919C77.0234 58.7824 75.8382 58.9181 74.6531 59.0539L91.0757 58.6919C91.0419 58.6919 97.0691 57.2442 78.1746 58.6919Z" fill="black"/>
<path opacity="0.5" d="M19.594 77.0362L22.4508 78.1561C23.23 74.8924 28.1321 71.2127 32.4823 69.3889C36.5403 67.693 57.155 60.7497 74.6532 59.0539L59.5249 59.3098L33.7484 64.2374L22.1911 69.9648L18.3928 74.3484L19.594 77.0362Z" fill="black"/>
<path opacity="0.5" d="M49.6406 121.108C50.7962 115.317 50.6999 108.046 53.4283 105.375C55.8037 103.059 61.0038 101.257 62.5124 101.193C64.0211 101.129 49.7048 101 49.7048 101L49.6406 121.108Z" fill="black"/>
<path opacity="0.5" d="M77.2119 100.291L77.4757 121.387C78.5968 114.629 79.6849 106.656 81.6302 104.622C84.1032 101.997 88.5545 100.488 91.0274 100.356C93.4674 100.225 77.2119 100.291 77.2119 100.291Z" fill="black"/>
<path opacity="0.5" d="M107.506 101.295L107.932 121.387C108.662 115.013 108.571 106.764 110.883 104.826C113.195 102.889 117.971 101.483 120.253 101.358C122.535 101.233 107.506 101.295 107.506 101.295Z" fill="black"/>
<path opacity="0.5" d="M36.7856 87.6353L37.8245 89.8695L43.2462 90.2206C44.837 90.2206 81.0682 72.4748 84.7368 72.1557C88.4053 71.8046 133.077 88.3375 133.077 88.3375L85.3211 68.1022L36.7856 87.6353Z" fill="black"/>
<path opacity="0.5" d="M137.056 52.2237L119.793 47.9149L91.7925 44.9786L63.4659 45.9999L40.9482 49.798L24.9248 57.0431L19.4749 61.703L19.997 66.1713L21.9224 69.1077C23.8478 64.4478 36.7058 49.4789 76.8459 49.3193C116.986 49.1597 140.744 54.4898 144.268 55.8622C147.793 57.2027 137.056 52.2237 137.056 52.2237Z" fill="black"/>
<path d="M84.9314 68.1022L35.7036 88.0791L37.123 90.2206H84.9314H132.772L134.159 88.0791L84.9314 68.1022Z" stroke="black" stroke-width="2.57368" stroke-miterlimit="10"/>
<path d="M39.9998 91L38.9495 137.473" stroke="black" stroke-width="2.57368" stroke-miterlimit="10"/>
<path d="M48 130.436L49.0062 100.274H64.2289" stroke="black" stroke-width="2.57368" stroke-miterlimit="10"/>
<path d="M76.1299 129.43V100.274H91.2769" stroke="black" stroke-width="2.57368" stroke-miterlimit="10"/>
<path d="M106.942 130.436L106.424 100.274H121.571" stroke="black" stroke-width="2.57368" stroke-miterlimit="10"/>
<path d="M130 90.5L133.077 138.479" stroke="black" stroke-width="2.57368" stroke-miterlimit="10"/>
<path d="M22.1619 69.1077C19.6522 65.7522 20.1085 61.8269 23.3679 59.0096C26.6274 56.1923 40.2844 45.5245 83.9608 45.9993C127.637 46.4742 141.979 53.8498 145.955 57.1736C149.964 60.4974 149.932 65.6256 148.172 68.3796" stroke="black" stroke-width="2.57368" stroke-miterlimit="10"/>
<path d="M18.3928 138.479L21.352 78.1561C18.8509 74.8994 18.9808 72.5952 20.9622 70.9054C24.2105 68.171 41.5001 58 85.5001 58C129.5 58 146.735 68.171 149.983 70.9054C151.964 72.5952 152.094 74.8994 149.593 78.1561L153.634 138.479" stroke="black" stroke-width="2.57368" stroke-miterlimit="10"/>
<path d="M45.4411 61.0647L44.3591 78.1561" stroke="black" stroke-width="2.57368" stroke-miterlimit="10"/>
<path d="M124.422 57.0431V49.0001" stroke="black" stroke-width="2.57368" stroke-miterlimit="10"/>
<path d="M72.4893 44.8774V20.8495H95.2157L96.2917 45.984" stroke="black" stroke-width="2.57368" stroke-miterlimit="10"/>
<path d="M95.5 27.8872C95.5 26.3095 98.4558 15.8227 98.4558 15.8227H69L72.5 27.8872" stroke="black" stroke-width="2.57368" stroke-miterlimit="10"/>
<path d="M124.422 74.1345C124.422 73.5016 124.422 61.0647 124.422 61.0647" stroke="black" stroke-width="2.57368" stroke-miterlimit="10"/>
<path d="M46.5231 49.0001L46.0002 57.5" stroke="black" stroke-width="2.57368" stroke-miterlimit="10"/>
<path d="M84.2192 26.9151C90.9998 26.7787 92.4998 36.5 84.121 36.9093C77.0001 36.9093 77.2052 27.0562 84.2192 26.9151Z" stroke="black" stroke-width="2.57368" stroke-miterlimit="10"/>
<path d="M84 16.0484V6.5" stroke="black" stroke-width="2.57368" stroke-miterlimit="10"/>
<path d="M80 10C80.4897 10 87.5735 10 87.5735 10" stroke="black" stroke-width="2.57368" stroke-miterlimit="10"/>
</g>
<defs>
<clipPath id="clip0_113_90">
<rect width="173" height="138" fill="white"/>
</clipPath>
</defs>
</svg>
