<?xml version="1.0" encoding="utf-8"?>
<!-- Generator: Adobe Illustrator 23.0.3, SVG Export Plug-In . SVG Version: 6.00 Build 0)  -->
<svg version="1.1" xmlns="http://www.w3.org/2000/svg" xmlns:xlink="http://www.w3.org/1999/xlink" x="0px" y="0px"
	 viewBox="0 0 541.8 427.8" style="enable-background:new 0 0 541.8 427.8;" xml:space="preserve">
<style type="text/css">
	.st0{fill:#E6E6E6;}
	.st1{fill:url(#SVGID_1_);}
	.st2{opacity:0.1;}
	.st3{fill:url(#SVGID_2_);}
	.st4{fill:#31575E;}
	.st5{fill:url(#SVGID_3_);}
	.st6{fill:none;stroke:#000000;stroke-width:6.527;stroke-miterlimit:10;}
	.st7{fill:none;stroke:#000000;stroke-width:7.4377;stroke-miterlimit:10;}
	.st8{fill:#F4AC11;}
	.st9{fill:url(#SVGID_4_);}
	.st10{opacity:0.5;}
	.st11{fill:#0E8F89;}
	.st12{fill:none;stroke:#000000;stroke-width:6.257;stroke-miterlimit:10;}
	.st13{fill:#FFFFFF;}
	.st14{fill:url(#SVGID_5_);}
	.st15{fill:url(#SVGID_6_);}
	.st16{fill:url(#SVGID_7_);}
	.st17{fill:url(#SVGID_8_);}
	.st18{fill:url(#SVGID_9_);}
	.st19{fill:url(#SVGID_10_);}
	.st20{fill:url(#SVGID_11_);}
	.st21{fill:url(#SVGID_12_);}
	.st22{fill:url(#SVGID_13_);}
	.st23{fill:url(#SVGID_14_);}
	.st24{fill:none;stroke:#2B303A;stroke-width:14.7979;stroke-linecap:round;stroke-linejoin:round;stroke-miterlimit:10;}
	.st25{fill:none;stroke:#2B303A;stroke-width:3.6187;stroke-linecap:round;stroke-linejoin:round;stroke-miterlimit:10;}
	.st26{fill:none;stroke:#2B303A;stroke-width:5;stroke-linecap:round;stroke-linejoin:round;stroke-miterlimit:10;}
	.st27{fill:url(#SVGID_15_);stroke:#FFFFFF;stroke-width:10.065;stroke-miterlimit:10;}
	.st28{fill:url(#SVGID_16_);stroke:#FFFFFF;stroke-width:10.065;stroke-miterlimit:10;}
	.st29{fill:none;stroke:#2B303A;stroke-width:13.7906;stroke-linecap:round;stroke-linejoin:round;stroke-miterlimit:10;}
	.st30{fill:#0E8F89;stroke:#FFFFFF;stroke-width:3.8932;stroke-miterlimit:10;}
	.st31{fill:#31575E;stroke:#FFFFFF;stroke-width:3.8932;stroke-miterlimit:10;}
	.st32{fill:#F4AC11;stroke:#FFFFFF;stroke-width:3.8932;stroke-miterlimit:10;}
	.st33{fill:none;stroke:#2B303A;stroke-width:5.4958;stroke-linecap:round;stroke-linejoin:round;stroke-miterlimit:10;}
	.st34{fill:#333333;stroke:#333333;stroke-width:2.9787;stroke-linecap:round;stroke-linejoin:round;stroke-miterlimit:10;}
	.st35{fill:none;stroke:#2A6266;stroke-width:10;stroke-linecap:round;stroke-linejoin:round;stroke-miterlimit:10;}
	.st36{fill:none;stroke:#F4AC11;stroke-width:10;stroke-linecap:round;stroke-linejoin:round;stroke-miterlimit:10;}
	.st37{fill:none;stroke:#139B91;stroke-width:10;stroke-linecap:round;stroke-linejoin:round;stroke-miterlimit:10;}
	.st38{opacity:0.3;}
	.st39{fill:none;stroke:#000000;stroke-width:4.2962;stroke-miterlimit:10;}
	.st40{fill:url(#SVGID_17_);}
	.st41{fill:none;stroke:#000000;stroke-width:4.8956;stroke-miterlimit:10;}
	.st42{fill:none;stroke:#000000;stroke-width:4.1185;stroke-miterlimit:10;}
</style>
<g id="Layer_2">
</g>
<g id="Layer_1">
	<g>
		<path class="st4" d="M296.6,46l3.7,57.4l0.6-0.1l-0.2,46.2c-2.5,1.5-6.9,1.5-10.3,2.3c-0.4,0-42.3,0.3-92.5,8.6
			c-67.6,11.3-117.4,31.1-147.9,59l-1,0.9L33.1,427.6l6.5,0.5l0-0.3h62.7l3.2,0.2l0-0.2H474l0,0h6.5l0,0h0.5c0-1.5-0.1-2.9-0.3-4.4
			c-0.1-0.5-0.1-1-0.2-1.6v-78.6c0-0.1,0-0.1,0-0.2c0.9-11.5,0.7-22.9,0-34.3V195.5l-2-0.9c-2.7-1.2-64.7-28.3-102.2-31.2
			l-1.1-100.8l-15-27.1l0,0l0,0l-24.6,2.8c0-1.5-0.1-3.1-0.1-4.7c2.7-0.3,5.9-0.7,9.6-1.2l-0.8-6.5c-2.7,0.3-5.9,0.7-9,1.1
			c-0.1-4.3-0.2-7.7-0.2-8h-6.5c0,0.5,0.1,4.4,0.2,8.9c-5.4,0.7-9.6,1.2-10,1.2l0.3,3.2v3.3c0.2,0,0.3,0,9.9-1.2
			c0,1.5,0.1,2.8,0.1,4c-2.4,0.1-4.8,0.5-7.3,1.1c-0.8,0.2-1.5,0.4-2.3,0.7l-22.8,2.6"/>
		<linearGradient id="SVGID_1_" gradientUnits="userSpaceOnUse" x1="257.1128" y1="417.8686" x2="257.1128" y2="32.1445">
			<stop  offset="0" style="stop-color:#FFFFFF;stop-opacity:0.5"/>
			<stop  offset="1" style="stop-color:#FFFFFF;stop-opacity:0"/>
		</linearGradient>
		<path class="st1" d="M296.6,46l3.7,57.4l0.6-0.1l-0.2,46.2c-2.5,1.5-6.9,1.5-10.3,2.3c-0.4,0-42.3,0.3-92.5,8.6
			c-67.6,11.3-117.4,31.1-147.9,59l-1,0.9L33.1,427.6l6.5,0.5l0-0.3h62.7l3.2,0.2l0-0.2H474l0,0h6.5l0,0h0.5c0-1.5-0.1-2.9-0.3-4.4
			c-0.1-0.5-0.1-1-0.2-1.6v-78.6c0-0.1,0-0.1,0-0.2c0.9-11.5,0.7-22.9,0-34.3V195.5l-2-0.9c-2.7-1.2-64.7-28.3-102.2-31.2
			l-1.1-100.8l-15-27.1l0,0l0,0l-24.6,2.8c0-1.5-0.1-3.1-0.1-4.7c2.7-0.3,5.9-0.7,9.6-1.2l-0.8-6.5c-2.7,0.3-5.9,0.7-9,1.1
			c-0.1-4.3-0.2-7.7-0.2-8h-6.5c0,0.5,0.1,4.4,0.2,8.9c-5.4,0.7-9.6,1.2-10,1.2l0.3,3.2v3.3c0.2,0,0.3,0,9.9-1.2
			c0,1.5,0.1,2.8,0.1,4c-2.4,0.1-4.8,0.5-7.3,1.1c-0.8,0.2-1.5,0.4-2.3,0.7l-22.8,2.6"/>
	</g>
</g>
</svg>
