<?xml version="1.0" encoding="utf-8"?>
<!-- Generator: Adobe Illustrator 23.0.3, SVG Export Plug-In . SVG Version: 6.00 Build 0)  -->
<svg version="1.1" id="Layer_1" xmlns="http://www.w3.org/2000/svg" xmlns:xlink="http://www.w3.org/1999/xlink" x="0px" y="0px"
	 viewBox="0 0 132.7 41.5" style="enable-background:new 0 0 132.7 41.5;" xml:space="preserve">
<style type="text/css">
	.st0{fill:none;stroke:#2A6266;stroke-width:3.8701;stroke-linecap:round;stroke-linejoin:round;stroke-miterlimit:10;}
	.st1{fill:none;stroke:#F4AC11;stroke-width:3.8701;stroke-linecap:round;stroke-linejoin:round;stroke-miterlimit:10;}
	.st2{fill:none;stroke:#139B91;stroke-width:3.8701;stroke-linecap:round;stroke-linejoin:round;stroke-miterlimit:10;}
</style>
<g>
	<path class="st0" d="M41,16c-2.4-2-7.9-2.8-7.9-2.8l0.1-10.7h-9.1c0,0,0,5.8-0.1,8.7c-3.6,0-11.9,0.8-19.7,6.1
		c-0.2,1.9,0.1,14.5,0.1,14.5h-366.7"/>
	<polyline class="st1" points="130.4,26.3 128.1,25 110.5,25 110.5,13 103.7,7.3 96.3,12.8 96.3,39.5 -352.9,39.5 	"/>
	<path class="st2" d="M85.1,19.3c12.8-3.5-12.3-6.1-12.3-6.1V4.3H65v9c0,0-25.2,2.6-12.3,6.1l0.2,16.3h-410.5"/>
</g>
</svg>
