<?xml version="1.0" encoding="utf-8"?>
<!-- Generator: Adobe Illustrator 23.0.3, SVG Export Plug-In . SVG Version: 6.00 Build 0)  -->
<svg version="1.1" xmlns="http://www.w3.org/2000/svg" xmlns:xlink="http://www.w3.org/1999/xlink" x="0px" y="0px"
	 viewBox="0 0 541.8 427.8" style="enable-background:new 0 0 541.8 427.8;" xml:space="preserve">
<style type="text/css">
	.st0{fill:#E6E6E6;}
	.st1{fill:url(#SVGID_1_);}
	.st2{opacity:0.1;}
	.st3{fill:url(#SVGID_2_);}
	.st4{fill:#31575E;}
	.st5{fill:url(#SVGID_3_);}
	.st6{fill:none;stroke:#000000;stroke-width:6.527;stroke-miterlimit:10;}
	.st7{fill:none;stroke:#000000;stroke-width:7.4377;stroke-miterlimit:10;}
	.st8{fill:#F4AC11;}
	.st9{fill:url(#SVGID_4_);}
	.st10{opacity:0.5;}
	.st11{fill:#0E8F89;}
	.st12{fill:none;stroke:#000000;stroke-width:6.257;stroke-miterlimit:10;}
	.st13{fill:#FFFFFF;}
	.st14{fill:url(#SVGID_5_);}
	.st15{fill:url(#SVGID_6_);}
	.st16{fill:url(#SVGID_7_);}
	.st17{fill:url(#SVGID_8_);}
	.st18{fill:url(#SVGID_9_);}
	.st19{fill:url(#SVGID_10_);}
	.st20{fill:url(#SVGID_11_);}
	.st21{fill:url(#SVGID_12_);}
	.st22{fill:url(#SVGID_13_);}
	.st23{fill:url(#SVGID_14_);}
	.st24{fill:none;stroke:#2B303A;stroke-width:14.7979;stroke-linecap:round;stroke-linejoin:round;stroke-miterlimit:10;}
	.st25{fill:none;stroke:#2B303A;stroke-width:3.6187;stroke-linecap:round;stroke-linejoin:round;stroke-miterlimit:10;}
	.st26{fill:none;stroke:#2B303A;stroke-width:5;stroke-linecap:round;stroke-linejoin:round;stroke-miterlimit:10;}
	.st27{fill:url(#SVGID_15_);stroke:#FFFFFF;stroke-width:10.065;stroke-miterlimit:10;}
	.st28{fill:url(#SVGID_16_);stroke:#FFFFFF;stroke-width:10.065;stroke-miterlimit:10;}
	.st29{fill:none;stroke:#2B303A;stroke-width:13.7906;stroke-linecap:round;stroke-linejoin:round;stroke-miterlimit:10;}
	.st30{fill:#0E8F89;stroke:#FFFFFF;stroke-width:3.8932;stroke-miterlimit:10;}
	.st31{fill:#31575E;stroke:#FFFFFF;stroke-width:3.8932;stroke-miterlimit:10;}
	.st32{fill:#F4AC11;stroke:#FFFFFF;stroke-width:3.8932;stroke-miterlimit:10;}
	.st33{fill:none;stroke:#2B303A;stroke-width:5.4958;stroke-linecap:round;stroke-linejoin:round;stroke-miterlimit:10;}
	.st34{fill:#333333;stroke:#333333;stroke-width:2.9787;stroke-linecap:round;stroke-linejoin:round;stroke-miterlimit:10;}
	.st35{fill:none;stroke:#2A6266;stroke-width:10;stroke-linecap:round;stroke-linejoin:round;stroke-miterlimit:10;}
	.st36{fill:none;stroke:#F4AC11;stroke-width:10;stroke-linecap:round;stroke-linejoin:round;stroke-miterlimit:10;}
	.st37{fill:none;stroke:#139B91;stroke-width:10;stroke-linecap:round;stroke-linejoin:round;stroke-miterlimit:10;}
	.st38{opacity:0.3;}
	.st39{fill:none;stroke:#000000;stroke-width:4.2962;stroke-miterlimit:10;}
	.st40{fill:url(#SVGID_17_);}
	.st41{fill:none;stroke:#000000;stroke-width:4.8956;stroke-miterlimit:10;}
	.st42{fill:none;stroke:#000000;stroke-width:4.1185;stroke-miterlimit:10;}
</style>
<g id="Layer_2">
</g>
<g id="Layer_1">
	<path class="st13" d="M481,427.8c0-1.5-0.1-2.9-0.3-4.4c-1.6-12.6-3.4-25.2-5.2-37.9c1.1-5.1,1.3-10.6,1.9-15.3
		c1.2-9,2.4-18.1,3.1-27.2c1.3-16.9,0.4-33.5-1.4-50.3c-0.6-5.7-1.2-11.4-1.7-17.1c0.7-7.8,2.7-12.5,0.8-19.5
		c-0.8-3.1,0.9-5.9-0.6-8.7c-0.3-0.5-0.5-1-0.8-1.5c0.1-1.4,0.2-2.8,0.3-4.2c0.3-2.6-0.4-4.9-1.7-6.6c1-3.2,2-6.3,3.1-9.5
		c2.2-6.2,0.8-14.4-2.9-20.9c0.6-0.3,1-0.9,0.8-1.7c-0.7-2.9-2.1-4.8-4.6-6.5c-1.1-0.7-2.1,0.2-2.2,1.2c-1-0.8-2.2-1.5-3.3-2
		c-17.8-8-36.1-14.9-55.1-19.6c-9-2.2-18-4-27.2-5.4c-2.9-0.4-5.7-0.8-8.6-1.2c-2.1-4.1-5.9-13.5-5.8-14c2.9-20.4,4.7-40.9,4.3-61.6
		c-0.2-12.4-1.1-25.5-8.1-36.2c-0.7-1.1-1.4-2.1-2.2-3c0-0.2,0.1-0.4,0-0.7c-0.3-1.6-0.9-2.9-1.8-4.2c-0.1-0.3-0.3-0.7-0.4-1
		c-0.7-1.6-3.1-1.1-3,0.3c-0.2-0.2-0.5-0.5-0.7-0.7c-0.4-2-1.4-3.8-3-5.5c-2.8-2.8-7.8-4.1-11.9-2.9c-6.7-2.1-14.1-2.4-21.5-0.7
		c-4.7,1.1-9.2,4.1-12.6,7.9c-0.9-1.3-2.6-2-4.2-1c-0.5,0.4-0.9,0.8-1.2,1.4c-0.4,0.3-0.6,0.6-0.6,1.1c0,0.1,0,0.2,0,0.2
		c-0.3,0.6-0.5,1.3-0.4,1.2c-0.5,0.2-0.8,0.5-0.9,0.8c-0.3,0.6-0.3,1.3,0.3,1.8c0.2,0.2,0.4,0.3,0.7,0.4c0.1,0,0.2,0.1,0.2,0.1
		c0,0.3,0.1,0.5,0.1,0.7c0,0.2,0.1,0.3,0.2,0.5c0,0.6,0.1,1.1,0.3,1.6c-2,5.1-2.4,10.7-0.4,15.7c0.4,1,0.8,2,1.1,3
		c0.1,0.3,0.2,1,0.4,1.6c0.1,1.1,0.1,2.3,0.1,2.8c0,0.8-0.3,1.8-0.3,2.8c-0.4,2-0.9,3.9-1.4,5.9c-0.5,1.8-1,3.7-1.6,5.5
		c1.4,4.5,2.1,9.2,2.1,14.3c-0.1,11.8-0.4,23.5-0.6,35.3c-0.1,5.3-4,10-8.9,11.3c0,0.5,0.1,1,0.1,1.6
		c-53.2-2.8-106.9,6.8-157.8,21.5c-13.2,3.8-26.4,7.8-39.1,13.1c-17.5,7.3-40.1,17-45.8,36.9c-2.2,7.8-2,16.6-2.5,24.7
		c-0.5,7.8-0.9,15.7-1.4,23.5c-0.9,15.8-1.8,31.6-2.8,47.3c-2,34.9-4.1,69.8-6.1,104.8H481z M450.3,407.5c0-0.1,0-0.2,0-0.3
		C450.5,407.3,450.5,407.4,450.3,407.5z M304.8,80.8C305,79.7,305.2,79.2,304.8,80.8L304.8,80.8z"/>
	<g class="st10">
		<path d="M46.7,294.1c6.8-20.2,11-61.8,32.9-74.3c21.9-12.5,62.3-29.5,62.7-29.6c0.4-0.1,93.5-17.6,93.5-17.6l10.7-0.1l43.4-2.8
			l3.1-0.8l1-14.5c0,0-30.7,1.6-54.8,3.6c-24.1,2-105.8,15.7-136.9,32.4s-47.9,29.3-47.9,29.3L46.7,294.1z"/>
		<path d="M104.1,398.3c12.6-42.6,6.7-81.9,30.8-112.4c23.2-29.4,154.9-36.9,154.9-36.9l-174.6,9.4l-4.6,10L104.1,398.3z"/>
		<path d="M305,86.9c2.4-14.2,0.4-21.5,6.5-30.7c5.5-8.2,42-14.2,42-14.2l-50.3,3.3L305,86.9z"/>
		<path d="M306.6,140.7c0.5-15.3,0.4-27.3,7.3-32.2c8.6-6.1,36.5-11.5,36.5-11.5l-48.5,2.8L306.6,140.7z"/>
		<path d="M305.3,193c4.4-13,2.5-23.8,9.8-31.7c8.4-9.2,39-11.5,39-11.5l-48.8,1.6V193z"/>
	</g>
	<path class="st6" d="M371.1,166.5c36.4,0.5,106.1,31.2,106.1,31.2v231.1"/>
	<polyline class="st6" points="299.9,45.7 303.4,99.7 350.4,93.7 	"/>
	<polyline class="st6" points="297.1,46.1 357,39.2 360.8,208.4 	"/>
	<polyline class="st6" points="178.9,423.9 180,361.3 265.8,360.4 	"/>
	<polyline class="st6" points="229.3,360.7 292.4,360.2 292.4,427.8 	"/>
	<polyline class="st6" points="304.2,99.6 304.1,149.8 354.1,146.8 	"/>
	<polyline class="st6" points="303.2,149.8 304.2,205.9 360.7,205.2 	"/>
	<path class="st6" d="M331.8,19.1c0,1.1,0.6,23,0.6,23"/>
	<path class="st6" d="M319,32.4c0.2,0,25.6-3.2,25.6-3.2"/>
	<line class="st6" x1="371.1" y1="184.2" x2="381.7" y2="423.9"/>
	<polyline class="st6" points="383.6,364.8 401,364.8 403,423.9 	"/>
	<path class="st6" d="M378.9,290.2c0.7,0,17.6,0,17.6,0L401,358"/>
	<path class="st6" d="M376.4,185.3c7.4-0.4,15.8,2.8,15.8,2.8l4,97.2"/>
	<line class="st6" x1="176.3" y1="193.7" x2="175.6" y2="246"/>
	<polyline class="st6" points="176.4,219 209.1,217.8 209.1,187.5 	"/>
	<path class="st6" d="M274.6,170.6c0,1.6,0,43.6,0,43.6l-31.3,1.8"/>
	<line class="st6" x1="143.7" y1="202.7" x2="142.3" y2="247.5"/>
	<path class="st6" d="M112,215.8c0,2.6-1.4,31.7-1.4,31.7"/>
	<path class="st6" d="M77,263.9l1.6-39.6c49.9-32.5,117-49.2,164.7-48.7v40.4l-34.2,1.8"/>
	<polyline class="st6" points="102.3,427.8 110.6,258.5 292.4,248.8 292.4,152.3 	"/>
	<path class="st6" d="M290.5,155c0,0-165.8,0.6-238.2,66.7l-16,206.1"/>
	<polyline class="st6" points="357.4,37.1 372,63.5 373.1,168.1 	"/>
</g>
</svg>
