<svg width="181" height="145" viewBox="0 0 181 145" fill="none" xmlns="http://www.w3.org/2000/svg">
<g clip-path="url(#clip0_109_50)">
<path d="M159.963 145C159.963 144.493 159.93 144.02 159.864 143.513C159.333 139.254 158.736 134.995 158.138 130.703C158.503 128.979 158.57 127.12 158.769 125.531C159.167 122.489 159.565 119.413 159.797 116.337C160.229 110.625 159.93 105.014 159.333 99.3359C159.134 97.4093 158.935 95.4826 158.769 93.556C159.001 90.9196 159.665 89.331 159.034 86.965C158.769 85.9171 159.333 84.9707 158.835 84.0243C158.736 83.8553 158.669 83.6863 158.57 83.5173C158.603 83.0441 158.636 82.5709 158.669 82.0977C158.769 81.2189 158.537 80.4415 158.105 79.8669C158.437 78.7853 158.769 77.7375 159.134 76.6558C159.864 74.5602 159.399 71.7886 158.172 69.5916C158.371 69.4902 158.503 69.2874 158.437 69.017C158.205 68.0367 157.74 67.3945 156.911 66.8199C156.546 66.5833 156.214 66.8875 156.181 67.2255C155.849 66.9551 155.451 66.7185 155.086 66.5495C149.18 63.8455 143.107 61.5133 136.803 59.9247C133.817 59.1811 130.831 58.5726 127.778 58.0994C126.816 57.9642 125.887 57.829 124.924 57.6938C124.228 56.308 122.967 53.1308 123 52.9618C123.962 46.0665 124.559 39.1374 124.427 32.1408C124.36 27.9495 124.062 23.5217 121.739 19.905C121.507 19.5332 121.274 19.1952 121.009 18.891C121.009 18.8234 121.042 18.7558 121.009 18.6544C120.909 18.1136 120.71 17.6742 120.412 17.2348C120.379 17.1334 120.312 16.9982 120.279 16.8968C120.047 16.356 119.25 16.525 119.284 16.9982C119.217 16.9306 119.118 16.8292 119.051 16.7616C118.919 16.0856 118.587 15.4772 118.056 14.9026C117.127 13.9562 115.468 13.5168 114.107 13.9224C111.884 13.2126 109.429 13.1112 106.974 13.6858C105.414 14.0576 103.921 15.0716 102.793 16.356C102.494 15.9166 101.93 15.68 101.399 16.018C101.233 16.1532 101.101 16.2884 101.001 16.4912C100.868 16.5926 100.802 16.694 100.802 16.863C100.802 16.8968 100.802 16.9306 100.802 16.9306C100.702 17.1334 100.636 17.37 100.669 17.3362C100.503 17.4038 100.404 17.5052 100.371 17.6066C100.271 17.8094 100.271 18.046 100.47 18.215C100.536 18.2826 100.603 18.3164 100.702 18.3502C100.736 18.3502 100.769 18.384 100.769 18.384C100.769 18.4854 100.802 18.553 100.802 18.6206C100.802 18.6882 100.835 18.722 100.868 18.7896C100.868 18.9924 100.901 19.1614 100.968 19.3304C100.304 21.0542 100.171 22.9471 100.835 24.6371C100.968 24.9751 101.101 25.3131 101.2 25.6511C101.233 25.7525 101.266 25.9891 101.333 26.1919C101.366 26.5637 101.366 26.9693 101.366 27.1383C101.366 27.4087 101.266 27.7467 101.266 28.0847C101.134 28.7607 100.968 29.4029 100.802 30.0789C100.636 30.6873 100.47 31.3296 100.271 31.938C100.736 33.459 100.968 35.0476 100.968 36.7714C100.935 40.7599 100.835 44.7145 100.769 48.7029C100.736 50.4944 99.4415 52.083 97.8156 52.5224C97.8156 52.6914 97.8488 52.8604 97.8488 53.0632C80.1966 52.1168 62.3785 55.3616 45.4894 60.3303C41.1096 61.6147 36.7297 62.9667 32.5157 64.7581C26.7091 67.2255 19.2102 70.5042 17.3189 77.2304C16.5889 79.8669 16.6553 82.8413 16.4894 85.5791C16.3235 88.2156 16.1908 90.8858 16.0249 93.5222C15.7262 98.8627 15.4276 104.203 15.0958 109.51C14.4322 121.306 13.7354 133.102 13.0718 144.933H159.963V145ZM149.777 138.139C149.777 138.105 149.777 138.071 149.777 138.037C149.843 138.071 149.843 138.105 149.777 138.139ZM101.499 27.7129C101.565 27.3411 101.631 27.1721 101.499 27.7129V27.7129Z" fill="white"/>
<g opacity="0.5">
<path opacity="0.5" d="M15.8589 99.809C18.1152 92.9813 19.5088 78.9203 26.7754 74.6953C34.042 70.4702 47.447 64.7242 47.5798 64.6904C47.7125 64.6566 78.6038 58.7415 78.6038 58.7415L82.1542 58.7077L96.5547 57.7613L97.5833 57.4909L97.9151 52.5898C97.9151 52.5898 87.7286 53.1307 79.732 53.8067C71.7354 54.4827 44.6267 59.1133 34.3074 64.758C23.9882 70.4026 18.4138 74.6615 18.4138 74.6615L15.8589 99.809Z" fill="black"/>
<path opacity="0.5" d="M34.9045 135.029C39.0853 120.63 37.1277 107.346 45.1242 97.0373C52.8222 87.1 96.5213 84.5649 96.5213 84.5649L38.5876 87.7422L37.0613 91.1222L34.9045 135.029Z" fill="black"/>
<path opacity="0.5" d="M101.565 29.7746C102.361 24.975 101.698 22.5076 103.722 19.3979C105.547 16.6263 117.658 14.5983 117.658 14.5983L100.968 15.7137L101.565 29.7746Z" fill="black"/>
<path opacity="0.5" d="M102.096 47.9592C102.262 42.7878 102.229 38.7317 104.518 37.0755C107.372 35.0137 116.629 33.1885 116.629 33.1885L100.537 34.1349L102.096 47.9592Z" fill="black"/>
<path opacity="0.5" d="M101.665 65.6368C103.125 61.2427 102.494 57.5923 104.916 54.9221C107.703 51.8124 117.857 51.035 117.857 51.035L101.665 51.5758V65.6368Z" fill="black"/>
</g>
<path d="M123.498 56.6798C135.575 56.8488 158.702 67.2255 158.702 67.2255V145.338" stroke="black" stroke-width="2.66679" stroke-miterlimit="10"/>
<path d="M99.8726 15.849L101.034 34.1012L116.629 32.0732" stroke="black" stroke-width="2.66679" stroke-miterlimit="10"/>
<path d="M98.9436 15.9842L118.819 13.652L120.08 70.8422" stroke="black" stroke-width="2.66679" stroke-miterlimit="10"/>
<path d="M59.7241 143.682L60.0891 122.523L88.5583 122.219" stroke="black" stroke-width="2.66679" stroke-miterlimit="10"/>
<path d="M76.4473 122.32L97.3844 122.151V145" stroke="black" stroke-width="2.66679" stroke-miterlimit="10"/>
<path d="M101.3 34.0674L101.266 51.0352L117.857 50.0212" stroke="black" stroke-width="2.66679" stroke-miterlimit="10"/>
<path d="M100.968 51.0352L101.3 69.9972L120.047 69.7606" stroke="black" stroke-width="2.66679" stroke-miterlimit="10"/>
<path d="M110.458 6.85803C110.458 7.22984 110.657 14.6321 110.657 14.6321" stroke="black" stroke-width="2.66679" stroke-miterlimit="10"/>
<path d="M106.21 11.3535C106.277 11.3535 114.704 10.2719 114.704 10.2719" stroke="black" stroke-width="2.66679" stroke-miterlimit="10"/>
<path d="M123.498 62.6625L127.015 143.682" stroke="black" stroke-width="2.66679" stroke-miterlimit="10"/>
<path d="M127.645 123.706H133.418L134.082 143.682" stroke="black" stroke-width="2.66679" stroke-miterlimit="10"/>
<path d="M126.085 98.4908C126.318 98.4908 131.925 98.4908 131.925 98.4908L133.418 121.408" stroke="black" stroke-width="2.66679" stroke-miterlimit="10"/>
<path d="M125.256 63.0343C127.711 62.8991 130.498 63.9807 130.498 63.9807L131.826 96.8346" stroke="black" stroke-width="2.66679" stroke-miterlimit="10"/>
<path d="M58.8612 65.8735L58.6289 83.5511" stroke="black" stroke-width="2.66679" stroke-miterlimit="10"/>
<path d="M58.8945 74.4249L69.7447 74.0193V63.7778" stroke="black" stroke-width="2.66679" stroke-miterlimit="10"/>
<path d="M91.4779 58.0657C91.4779 58.6065 91.4779 72.8026 91.4779 72.8026L81.0923 73.411" stroke="black" stroke-width="2.66679" stroke-miterlimit="10"/>
<path d="M48.0441 68.9155L47.5796 84.0581" stroke="black" stroke-width="2.66679" stroke-miterlimit="10"/>
<path d="M37.5261 73.3434C37.5261 74.2222 37.0615 84.0581 37.0615 84.0581" stroke="black" stroke-width="2.66679" stroke-miterlimit="10"/>
<path d="M25.9126 89.6014L26.4435 76.2164C43.0007 65.2313 65.2651 59.5866 81.0923 59.7556V73.411L69.7445 74.0194" stroke="black" stroke-width="2.66679" stroke-miterlimit="10"/>
<path d="M34.3076 145L37.0616 87.7761L97.3844 84.4975V51.8801" stroke="black" stroke-width="2.66679" stroke-miterlimit="10"/>
<path d="M96.7539 52.7927C96.7539 52.7927 41.7401 52.9955 17.7171 75.3376L12.4082 145" stroke="black" stroke-width="2.66679" stroke-miterlimit="10"/>
<path d="M118.952 12.9421L123.796 21.8654L124.161 57.2206" stroke="black" stroke-width="2.66679" stroke-miterlimit="10"/>
</g>
<defs>
<clipPath id="clip0_109_50">
<rect width="179.774" height="144.598" fill="white" transform="translate(0.363525 0.4021)"/>
</clipPath>
</defs>
</svg>
