<?xml version="1.0" encoding="utf-8"?>
<!-- Generator: Adobe Illustrator 23.0.3, SVG Export Plug-In . SVG Version: 6.00 Build 0)  -->
<svg version="1.1" xmlns="http://www.w3.org/2000/svg" xmlns:xlink="http://www.w3.org/1999/xlink" x="0px" y="0px"
	 viewBox="0 0 483.6 431.4" style="enable-background:new 0 0 483.6 431.4;" xml:space="preserve">
<style type="text/css">
	.st0{fill:#E6E6E6;}
	.st1{fill:url(#SVGID_1_);}
	.st2{opacity:0.1;}
	.st3{fill:url(#SVGID_2_);}
	.st4{fill:#31575E;}
	.st5{fill:url(#SVGID_3_);}
	.st6{fill:none;stroke:#000000;stroke-width:6.527;stroke-miterlimit:10;}
	.st7{fill:none;stroke:#000000;stroke-width:7.4377;stroke-miterlimit:10;}
	.st8{fill:#F4AC11;}
	.st9{fill:url(#SVGID_4_);}
	.st10{opacity:0.5;}
	.st11{fill:#0E8F89;}
	.st12{fill:none;stroke:#000000;stroke-width:6.257;stroke-miterlimit:10;}
	.st13{fill:#FFFFFF;}
	.st14{fill:url(#SVGID_5_);}
	.st15{fill:url(#SVGID_6_);}
	.st16{fill:url(#SVGID_7_);}
	.st17{fill:url(#SVGID_8_);}
	.st18{fill:url(#SVGID_9_);}
	.st19{fill:url(#SVGID_10_);}
	.st20{fill:url(#SVGID_11_);}
	.st21{fill:url(#SVGID_12_);}
	.st22{fill:url(#SVGID_13_);}
	.st23{fill:url(#SVGID_14_);}
	.st24{fill:none;stroke:#2B303A;stroke-width:14.7979;stroke-linecap:round;stroke-linejoin:round;stroke-miterlimit:10;}
	.st25{fill:none;stroke:#2B303A;stroke-width:3.6187;stroke-linecap:round;stroke-linejoin:round;stroke-miterlimit:10;}
	.st26{fill:none;stroke:#2B303A;stroke-width:5;stroke-linecap:round;stroke-linejoin:round;stroke-miterlimit:10;}
	.st27{fill:url(#SVGID_15_);stroke:#FFFFFF;stroke-width:10.065;stroke-miterlimit:10;}
	.st28{fill:url(#SVGID_16_);stroke:#FFFFFF;stroke-width:10.065;stroke-miterlimit:10;}
	.st29{fill:none;stroke:#2B303A;stroke-width:13.7906;stroke-linecap:round;stroke-linejoin:round;stroke-miterlimit:10;}
	.st30{fill:#0E8F89;stroke:#FFFFFF;stroke-width:3.8932;stroke-miterlimit:10;}
	.st31{fill:#31575E;stroke:#FFFFFF;stroke-width:3.8932;stroke-miterlimit:10;}
	.st32{fill:#F4AC11;stroke:#FFFFFF;stroke-width:3.8932;stroke-miterlimit:10;}
	.st33{fill:none;stroke:#2B303A;stroke-width:5.4958;stroke-linecap:round;stroke-linejoin:round;stroke-miterlimit:10;}
	.st34{fill:#333333;stroke:#333333;stroke-width:2.9787;stroke-linecap:round;stroke-linejoin:round;stroke-miterlimit:10;}
	.st35{fill:none;stroke:#2A6266;stroke-width:10;stroke-linecap:round;stroke-linejoin:round;stroke-miterlimit:10;}
	.st36{fill:none;stroke:#F4AC11;stroke-width:10;stroke-linecap:round;stroke-linejoin:round;stroke-miterlimit:10;}
	.st37{fill:none;stroke:#139B91;stroke-width:10;stroke-linecap:round;stroke-linejoin:round;stroke-miterlimit:10;}
	.st38{opacity:0.3;}
	.st39{fill:none;stroke:#000000;stroke-width:4.2962;stroke-miterlimit:10;}
	.st40{fill:url(#SVGID_17_);}
	.st41{fill:none;stroke:#000000;stroke-width:4.8956;stroke-miterlimit:10;}
	.st42{fill:none;stroke:#000000;stroke-width:4.1185;stroke-miterlimit:10;}
</style>
<g id="Layer_2">
</g>
<g id="Layer_1">
	<g>
	</g>
	<g>
		<path class="st11" d="M451.8,431.4l-12.9-185.4c7.2-10.8,7-19.6-0.4-26.3c-0.4-0.3-2.4-2.1-6.3-4.6c0-0.1,0-0.1,0-0.2l0.9,0.5
			c6.6-10.7,5.6-28.4-7.4-39.6c-10.8-9.2-46-29.4-150.7-34.8l-2.2-53.3h4.5c0-3.6,3.3-24.9,5.5-38.4l0.6-3.9l-44.6,1l-0.3-11.8
			c4.2-0.2,7.8-0.3,8.7-0.3l-0.2-6.5c-2.6,0.1-5.6,0.2-8.6,0.3l-0.2-6.6l-6.5,0.2l0.2,6.6c-4.2,0.1-7.5,0.3-8,0.3v6.5
			c0.6,0,4-0.1,8.1-0.3l0.3,11.8l-46.6,1l4.1,28.1l5.9-0.9v65.2c-0.2,0.2-0.4,0.3-0.7,0.5c-93,4.1-133.3,27-149.6,41.4
			c-11,9.7-12.8,23.4-4.9,35.3c-2.1,1.5-3.2,2.5-3.5,2.7c-7.9,7-7.6,16.4,0.7,28l2.2-1.6l-11,185.3H451.8z"/>
		<linearGradient id="SVGID_1_" gradientUnits="userSpaceOnUse" x1="240.2615" y1="406.0475" x2="240.2615" y2="80.5689">
			<stop  offset="0" style="stop-color:#FFFFFF;stop-opacity:0.5"/>
			<stop  offset="1" style="stop-color:#FFFFFF;stop-opacity:0"/>
		</linearGradient>
		<path class="st1" d="M451.8,431.4l-12.9-185.4c7.2-10.8,7-19.6-0.4-26.3c-0.4-0.3-2.4-2.1-6.3-4.6c0-0.1,0-0.1,0-0.2l0.9,0.5
			c6.6-10.7,5.6-28.4-7.4-39.6c-10.8-9.2-46-29.4-150.7-34.8l-2.2-53.3h4.5c0-3.6,3.3-24.9,5.5-38.4l0.6-3.9l-44.6,1l-0.3-11.8
			c4.2-0.2,7.8-0.3,8.7-0.3l-0.2-6.5c-2.6,0.1-5.6,0.2-8.6,0.3l-0.2-6.6l-6.5,0.2l0.2,6.6c-4.2,0.1-7.5,0.3-8,0.3v6.5
			c0.6,0,4-0.1,8.1-0.3l0.3,11.8l-46.6,1l4.1,28.1l5.9-0.9v65.2c-0.2,0.2-0.4,0.3-0.7,0.5c-93,4.1-133.3,27-149.6,41.4
			c-11,9.7-12.8,23.4-4.9,35.3c-2.1,1.5-3.2,2.5-3.5,2.7c-7.9,7-7.6,16.4,0.7,28l2.2-1.6l-11,185.3H451.8z"/>
	</g>
</g>
</svg>
