<svg width="124" height="107" viewBox="0 0 124 107" fill="none" xmlns="http://www.w3.org/2000/svg">
<path d="M119.636 47.016C113.089 41.6207 99.4892 38.9078 95.9749 38.2796C95.4866 38.1924 95.1348 37.7681 95.1393 37.272L95.4285 5.66465C95.4335 5.10881 94.9844 4.6555 94.4285 4.6555H67.8487C67.2964 4.6555 66.8486 5.09275 66.8479 5.64504C66.8429 9.39917 66.8089 22.9529 66.5729 30.9447C66.557 31.4837 66.1192 31.9085 65.5801 31.9152C53.9396 32.0597 28.8783 34.8863 5.45519 50.7391C5.21546 50.9013 5.05835 51.137 5.03384 51.4254C4.39066 58.993 5.07612 103 5.07612 103" stroke="white" stroke-width="8" stroke-linecap="round"/>
</svg>
