<svg width="173" height="183" viewBox="0 0 173 183" fill="none" xmlns="http://www.w3.org/2000/svg">
<path fill-rule="evenodd" clip-rule="evenodd" d="M56.1301 22.7621C56.8651 11.3101 61.1601 4.95311 70.4821 1.52011C77.8951 -1.21089 100.348 -0.0578859 106.147 3.35211C112.899 7.32011 116.104 13.1921 116.715 22.7131C117.421 33.7141 121.274 36.4041 129.458 31.6081C139.368 25.8001 150.057 26.5261 156.978 33.4781C163.819 40.3491 172.43 57.7311 172.382 64.5731C172.319 73.5411 168.308 79.7831 159.817 84.1251C154.91 86.6351 153.207 90.7881 155.371 94.9721C156.253 96.6791 157.337 98.0751 157.778 98.0751C160.108 98.0751 167.825 104.547 169.945 108.281C174.407 116.134 173.581 122.494 166.424 135.395C159.137 148.532 155.299 152.619 148.358 154.637C142.195 156.429 136.091 155.429 129.458 151.542C121.274 146.746 117.421 149.436 116.715 160.437C115.675 176.64 108.571 182.378 88.8841 182.92C65.4881 183.564 57.2541 177.9 56.1301 160.388C55.3871 148.813 52.0161 146.903 41.7581 152.242C33.6211 156.476 26.2561 156.632 19.5641 152.71C14.8731 149.961 4.10607 133.91 1.09607 125.176C-2.10593 115.887 1.87006 105.89 11.0371 100.182C21.0261 93.9611 21.0321 89.1561 11.0591 82.9681C1.87106 77.2681 -2.11093 67.2781 1.09607 57.9741C4.10607 49.2401 14.8731 33.1891 19.5641 30.4401C26.2561 26.5181 33.6211 26.6741 41.7581 30.9081C52.0161 36.2471 55.3871 34.3371 56.1301 22.7621ZM86 117C100.359 117 112 105.359 112 91C112 76.6406 100.359 65 86 65C71.6406 65 60 76.6406 60 91C60 105.359 71.6406 117 86 117Z" fill="black"/>
</svg>
