<svg version="1.1" xmlns="http://www.w3.org/2000/svg" xmlns:xlink="http://www.w3.org/1999/xlink" x="0px" y="0px"
	 viewBox="0 0 1730.6 125.4" style="enable-background:new 0 0 1730.6 125.4;" xml:space="preserve">
<style type="text/css">
	.st35{fill:none;stroke:#2A6266;stroke-width:10;stroke-linecap:round;stroke-linejoin:round;stroke-miterlimit:10;}
	.st36{fill:none;stroke:#F4AC11;stroke-width:10;stroke-linecap:round;stroke-linejoin:round;stroke-miterlimit:10;}
	.st37{fill:none;stroke:#139B91;stroke-width:10;stroke-linecap:round;stroke-linejoin:round;stroke-miterlimit:10;}
</style>
<g id="Layer_1">
	<path class="st35" d="M1442.3,49c-7.4-6.1-24-8.7-24-8.7l0.3-32.8h-28c0,0,0,17.8-0.3,26.7c-11,0-36.5,2.5-60.2,18.7
		c-0.7,6,0.2,44.3,0.2,44.3H-4.2"/>
	<path class="st36" d="M1717.9,76.6 1711,72.6 1657,72.6 1657,36 1636.3,18.5 1613.7,35.4 1613.7,117 -4.2,117 	"/>
	<path class="st37" d="M1577.2,56.9c39.3-10.6-37.8-18.6-37.8-18.6V10.9h-23.9v27.4c0,0-77.2,8-37.8,18.6l0.6,49.9H-4.2"/>
</g>
</svg>
