<svg width="2897" height="281" viewBox="0 0 2897 281" fill="none" xmlns="http://www.w3.org/2000/svg">
<path d="M37 147.031C198.5 36.5311 323.5 -1.49425 475 80.5058C626.5 162.506 700.09 258.067 841 219.506C1036.5 166.005 1152.5 36.5304 1303.5 34.0304C1454.5 31.5304 1584.5 184.006 1705 219.506C1868.5 267.674 2114.5 91.0058 2150.5 80.5058" stroke="#2A6266" stroke-width="21" stroke-linecap="round"/>
<path d="M376 163.037C537.5 52.5369 662.5 14.5116 814 96.5116C965.5 178.512 1039.09 274.073 1180 235.512C1375.5 182.011 1491.5 52.5363 1642.5 50.0363C1793.5 47.5363 1923.5 200.012 2044 235.512C2207.5 283.68 2453.5 107.012 2489.5 96.5116" stroke="#139B91" stroke-width="21" stroke-linecap="round"/>
<path d="M721 147.037C882.5 36.5369 1007.5 -1.48839 1159 80.5116C1310.5 162.512 1384.09 258.073 1525 219.512C1720.5 166.011 1836.5 36.5363 1987.5 34.0363C2138.5 31.5363 2268.5 184.012 2389 219.512C2552.5 267.68 2798.5 91.0116 2834.5 80.5116" stroke="#F4AC11" stroke-width="21" stroke-linecap="round"/>
</svg>
