<svg width="309" height="398" viewBox="0 0 309 398" fill="none" xmlns="http://www.w3.org/2000/svg">
<path d="M40 354V40.35C85.4067 31.8956 233.509 26.823 256 40.35V361.5C232.236 350.087 98.1375 347.518 40 354Z" fill="black" fill-opacity="0.2"/>
<path d="M98.1513 390.694L16.9727 87.7319C58.644 67.8135 200.387 24.582 225.613 31.8269L308.732 342.034C282.824 337.16 152.63 369.387 98.1513 390.694Z" fill="black" fill-opacity="0.2"/>
<path d="M40 354V39.878C85.4067 31.4109 233.509 17.0167 256 30.5641V342.569C232.236 331.139 98.1375 347.509 40 354Z" fill="#2A6266"/>
<path d="M98.1515 390.694L16.8507 87.2759C58.5187 67.3452 197.849 15.1099 223.08 22.3745L303.833 323.748C277.92 318.858 152.628 369.377 98.1515 390.694Z" fill="#139B91"/>
<path d="M1.94103 317.789L83.1196 14.8268C129.167 18.4127 273.536 51.8445 291.76 70.7317L208.64 380.939C188.639 363.764 59.7751 326.576 1.94103 317.789Z" fill="black" fill-opacity="0.2"/>
<path d="M1.94106 317.79L83.2418 14.371C129.293 17.9446 276.074 42.3725 294.292 61.2794L213.54 362.653C193.543 345.462 59.7777 326.567 1.94106 317.79Z" fill="#F4AC11"/>
</svg>
