<svg width="160" height="160" viewBox="0 0 160 160" fill="none" xmlns="http://www.w3.org/2000/svg">
<path fill-rule="evenodd" clip-rule="evenodd" d="M112.657 58.6569C115.781 55.5327 115.781 50.4673 112.657 47.3431C109.533 44.219 104.467 44.219 101.343 47.3431L80 68.6863L58.6569 47.3431C55.5327 44.219 50.4673 44.219 47.3431 47.3431C44.219 50.4673 44.219 55.5327 47.3431 58.6569L68.6863 80L47.3431 101.343C44.219 104.467 44.219 109.533 47.3431 112.657C50.4673 115.781 55.5327 115.781 58.6569 112.657L80 91.3137L101.343 112.657C104.467 115.781 109.533 115.781 112.657 112.657C115.781 109.533 115.781 104.467 112.657 101.343L91.3137 80L112.657 58.6569Z" fill="black" fill-opacity="0.7"/>
</svg>
