<svg width="601" height="162" viewBox="0 0 601 162" fill="none" xmlns="http://www.w3.org/2000/svg">
<g clip-path="url(#clip0_527_355)">
<path opacity="0.2" d="M6.37939 109.902C8.9847 102.05 10.5939 85.8782 18.9845 81.0191C27.3751 76.1599 42.8536 69.5514 43.0069 69.5125C43.1601 69.4736 78.8298 62.6708 78.8298 62.6708L82.9293 62.6319L93.4574 62.6319V56.604C93.4574 56.604 89.3659 56.2178 80.1324 56.9952C70.8989 57.7727 39.597 63.0984 27.6816 69.5902C15.7661 76.0821 9.32952 80.9802 9.32952 80.9802L6.37939 109.902Z" fill="black"/>
<path opacity="0.2" d="M28.3716 150.408C33.1991 133.848 30.9386 118.571 40.1721 106.714C49.0607 95.2856 99.5193 92.3701 99.5193 92.3701L32.6244 96.0242L30.8619 99.9116L28.3716 150.408Z" fill="black"/>
<path opacity="0.5" d="M105.343 29.3562C106.262 23.8361 105.496 20.9984 107.833 17.422C109.941 14.2344 123.925 11.902 123.925 11.902L104.653 13.1848L105.343 29.3562Z" fill="black"/>
<path opacity="0.5" d="M105.956 50.2702C106.148 44.3226 106.11 39.6577 108.753 37.7529C112.048 35.3816 122.738 33.2825 122.738 33.2825L104.156 34.3709L105.956 50.2702Z" fill="black"/>
<path opacity="0.5" d="M105.458 70.601C107.144 65.5474 106.416 61.3491 109.213 58.2781C112.431 54.7017 124.155 53.8076 124.155 53.8076L105.458 54.4296V70.601Z" fill="black"/>
<path d="M56.895 161.876L57.4513 136.025L100.515 135.598V161.876" stroke="black" stroke-width="3.14531" stroke-miterlimit="10"/>
<path d="M104.73 34.3322L104.73 13.2667L125.266 10.8137L126.684 75.3437L104.998 76.3667V53.8078M104.73 34.3322L121.764 32.1377M104.73 34.3322L104.998 53.8078M104.998 53.8078L122.944 52.1882" stroke="black" stroke-width="3.14531" stroke-miterlimit="10"/>
<path d="M115.611 3C115.611 3.42761 115.842 11.9409 115.842 11.9409" stroke="black" stroke-width="3.14531" stroke-miterlimit="10"/>
<path d="M110.708 8.17022C110.784 8.17022 120.516 6.92627 120.516 6.92627" stroke="black" stroke-width="3.14531" stroke-miterlimit="10"/>
<path d="M134.738 161.876L132.379 68.1106C135.215 67.9551 139.456 68.7003 139.456 68.7003L140.046 104.083M133.728 137.386L141.225 137.386L141.815 161.876M132.464 108.386C132.732 108.386 140.4 108.386 140.4 108.386L140.635 132.98" stroke="black" stroke-width="3.14531" stroke-miterlimit="10"/>
<path d="M56.0723 80.7082L68.6007 80.2417V68.463" stroke="black" stroke-width="3.14531" stroke-miterlimit="10"/>
<path d="M55.7657 71.6489V89.9369M43.0073 75.777V90.5199M30.8623 81.6741C30.8623 82.6849 30.8623 90.5199 30.8623 90.5199" stroke="black" stroke-width="3.14531" stroke-miterlimit="10"/>
<path d="M17.9888 98.1624L18.6018 82.7685C37.7201 70.1346 63.4283 63.6428 81.7037 63.8371V79.3153M81.7037 79.3153L68.6006 80.2417M81.7037 79.3153L93.4579 78.7256M27.6823 161.876L30.8623 96.0632L93.4579 94.648V54.7795" stroke="black" stroke-width="3.14531" stroke-miterlimit="10"/>
<path d="M103.483 55.1368C103.483 55.1368 36.2647 56.0624 8.52591 81.7578L5 161.876M171.318 162.265V72.4282C171.318 72.4282 145.736 60.6386 131.79 60.4442L131.013 20.2599L125.42 9.99731" stroke="black" stroke-width="3.14531" stroke-miterlimit="10"/>
<path opacity="0.5" d="M268.642 24.4341C270.183 24.8672 270.934 23.9221 272.174 23.4102C273.038 23.0558 274.015 23.292 274.917 23.4102C276.345 23.6071 277.773 23.8434 279.2 23.804C282.131 23.7646 285.024 23.1345 287.955 22.977C289.082 22.8982 290.172 22.8982 291.299 22.9376C292.088 22.5438 292.99 22.5832 293.779 22.9376C293.967 22.9376 294.155 22.9376 294.343 22.9376C294.343 23.0558 294.38 23.1345 294.38 23.2527C295.319 23.8434 296.033 24.8672 296.109 26.0487C296.559 26.3243 297.123 26.4818 297.724 26.4818C297.762 26.4818 297.799 26.4818 297.837 26.4818C298.1 25.8517 298.401 25.1823 298.626 24.5128C299.34 22.4651 299.64 20.3779 300.429 18.3695C300.392 18.3301 300.392 18.2514 300.354 18.212C299.415 16.4005 297.837 16.1642 296.071 16.0067C292.652 15.7704 289.195 15.6917 285.776 16.0855C282.544 16.4399 279.388 16.9912 276.119 16.4793C273.489 16.0855 271.46 16.1642 269.281 17.1881C268.98 17.1881 268.68 17.2275 268.417 17.3063C266.538 17.8576 265.711 19.7872 266.05 21.6775C266.275 23.0164 267.402 24.0796 268.642 24.4341Z" fill="black"/>
<path opacity="0.5" d="M276.509 67.5572C275.152 67.6639 273.754 67.824 272.356 67.9841L291.725 67.5572C291.686 67.5572 298.794 65.8497 276.509 67.5572Z" fill="black"/>
<path opacity="0.5" d="M207.417 89.1931L210.786 90.5139C211.705 86.6646 217.487 82.3247 222.618 80.1736C227.404 78.1735 251.718 69.9842 272.356 67.9841L254.513 68.286L224.111 74.0977L210.48 80.8529L206 86.0231L207.417 89.1931Z" fill="black"/>
<path opacity="0.5" d="M242.855 141.173C244.218 134.343 244.104 125.767 247.322 122.618C250.124 119.885 256.257 117.761 258.036 117.685C259.816 117.609 242.931 117.457 242.931 117.457L242.855 141.173Z" fill="black"/>
<path opacity="0.5" d="M275.374 116.62L275.685 141.503C277.007 133.531 278.29 124.128 280.585 121.728C283.501 118.633 288.751 116.853 291.668 116.698C294.546 116.543 275.374 116.62 275.374 116.62Z" fill="black"/>
<path opacity="0.5" d="M311.104 117.805L311.606 141.503C312.467 133.984 312.359 124.255 315.086 121.97C317.814 119.685 323.447 118.026 326.138 117.879C328.829 117.732 311.104 117.805 311.104 117.805Z" fill="black"/>
<path opacity="0.5" d="M227.693 101.694L228.918 104.329L235.313 104.743C237.189 104.743 279.921 83.8133 284.248 83.4368C288.575 83.0228 341.263 102.522 341.263 102.522L284.937 78.6561L227.693 101.694Z" fill="black"/>
<path opacity="0.5" d="M345.956 59.9283L325.595 54.8464L292.57 51.3832L259.161 52.5878L232.602 57.0674L213.704 65.6125L207.276 71.1085L207.892 76.3787L210.163 79.8419C212.434 74.3459 227.599 56.691 274.942 56.5027C322.284 56.3145 350.305 62.601 354.462 64.2197C358.619 65.8008 345.956 59.9283 345.956 59.9283Z" fill="black"/>
<path d="M284.478 78.6561L226.417 102.218L228.091 104.743H284.478H340.903L342.539 102.218L284.478 78.6561Z" stroke="black" stroke-width="3.0355" stroke-miterlimit="10"/>
<path d="M231.484 105.663L230.246 160.475" stroke="black" stroke-width="3.0355" stroke-miterlimit="10"/>
<path d="M240.92 152.174L242.107 116.601H260.061" stroke="black" stroke-width="3.0355" stroke-miterlimit="10"/>
<path d="M274.097 150.989V116.601H291.962" stroke="black" stroke-width="3.0355" stroke-miterlimit="10"/>
<path d="M310.438 152.174L309.827 116.601H327.692" stroke="black" stroke-width="3.0355" stroke-miterlimit="10"/>
<path d="M337.634 105.073L341.263 161.661" stroke="black" stroke-width="3.0355" stroke-miterlimit="10"/>
<path d="M210.446 79.8419C207.485 75.8844 208.024 71.2548 211.868 67.9319C215.712 64.6091 231.82 52.0271 283.334 52.5871C334.847 53.1471 351.762 61.8463 356.452 65.7665C361.181 69.6867 361.142 75.735 359.066 78.9832" stroke="black" stroke-width="3.0355" stroke-miterlimit="10"/>
<path d="M206 161.661L209.49 90.5139C206.54 86.6729 206.693 83.9552 209.03 81.9622C212.862 78.7372 233.254 66.7411 285.149 66.7411C337.044 66.7411 357.371 78.7372 361.202 81.9622C363.539 83.9552 363.693 86.6729 360.743 90.5139L366 161.661" stroke="black" stroke-width="3.0355" stroke-miterlimit="10"/>
<path d="M237.902 70.3557L236.626 90.514" stroke="black" stroke-width="3.0355" stroke-miterlimit="10"/>
<path d="M331.055 65.6125V56.1263" stroke="black" stroke-width="3.0355" stroke-miterlimit="10"/>
<path d="M269.804 51.2639V22.9244H296.608L297.877 52.569" stroke="black" stroke-width="3.0355" stroke-miterlimit="10"/>
<path d="M296.943 31.2248C296.943 29.3641 300.429 16.9955 300.429 16.9955H265.688L269.816 31.2248" stroke="black" stroke-width="3.0355" stroke-miterlimit="10"/>
<path d="M331.055 85.7708C331.055 85.0243 331.055 70.3557 331.055 70.3557" stroke="black" stroke-width="3.0355" stroke-miterlimit="10"/>
<path d="M239.178 56.1263L238.561 66.1514" stroke="black" stroke-width="3.0355" stroke-miterlimit="10"/>
<path d="M283.638 30.0783C291.636 29.9175 293.405 41.3831 283.523 41.8658C275.124 41.8658 275.366 30.2447 283.638 30.0783Z" stroke="black" stroke-width="3.0355" stroke-miterlimit="10"/>
<path d="M283.38 17.2618V6" stroke="black" stroke-width="3.0355" stroke-miterlimit="10"/>
<path d="M278.662 10.1281C279.239 10.1281 287.594 10.1281 287.594 10.1281" stroke="black" stroke-width="3.0355" stroke-miterlimit="10"/>
<path d="M404.128 50.6654V162.712H583.993V136.175L560.404 122.611H459.562V50.6654H462.51L431.845 20L400.59 50.6654H404.128Z"/>
<path d="M411.851 51.3H400L431.845 20L463.451 51.3H450.716" stroke="black" stroke-width="2.88807" stroke-miterlimit="10"/>
<path d="M404.076 162.987V50.1486" stroke="black" stroke-width="2.88807" stroke-miterlimit="10"/>
<path d="M459.84 162.987V50.1486" stroke="black" stroke-width="2.88807" stroke-miterlimit="10"/>
<path d="M427.717 122.611L427.13 62.6511C427.13 62.6511 426.89 56.5626 430.822 56.5626C434.755 56.5626 434.173 62.6511 434.173 62.6511V122.611" stroke="black" stroke-width="3.29104" stroke-miterlimit="10"/>
<path d="M411.943 122.381L411.943 75.0146C411.943 75.0146 411.393 68.5712 415.907 68.5712C421.23 68.5712 420.186 74.5927 420.186 74.5927L419.872 122.381" stroke="black" stroke-width="3.29104" stroke-miterlimit="10"/>
<path d="M442.497 122.426V74.6823C442.497 74.6823 442.154 68.5712 446.535 68.5712C449.926 68.5712 449.926 74.3386 449.926 74.3386V122.611" stroke="black" stroke-width="3.29104" stroke-miterlimit="10"/>
<path d="M459.84 122.688H560.224L583.759 136.304V164.138" stroke="black" stroke-width="2.7686" stroke-miterlimit="10"/>
<path d="M464.797 137.656L572.788 137.656" stroke="black" stroke-width="2.7686" stroke-miterlimit="10"/>
<path d="M506.929 142.072V162.987" stroke="black" stroke-width="2.88807" stroke-miterlimit="10"/>
<path d="M469.753 162.987V143.413H497.016V162.987" stroke="black" stroke-width="2.88807" stroke-miterlimit="10"/>
<path opacity="0.5" d="M412.08 120.385L417.692 68.9467L412.08 71.3056L412.08 120.385Z" fill="black"/>
<path opacity="0.5" d="M427.621 106.568L427.66 106.059L431.845 57.1523L427.66 60.1009L427.621 106.568Z" fill="black"/>
<path opacity="0.5" d="M442.491 105.416L447.447 68.5712L443.462 71.4114L442.491 105.416Z" fill="black"/>
<path opacity="0.5" d="M459.84 139.713C462.51 125.56 490.827 123.465 507.329 122.611C523.831 121.757 459.84 121.536 459.84 121.536V139.713Z" fill="black"/>
<path opacity="0.5" d="M405.775 50.6947C405.775 50.6947 423.764 28.0447 433.614 27.6664C440.244 27.4394 442.199 30.4281 442.199 30.4281L431.391 21.4998L401.179 50.6947L407.193 50.8461L410.91 51.3001" fill="black"/>
<path d="M432.577 133.05V162.987" stroke="black" stroke-width="3.29104" stroke-miterlimit="10"/>
<path d="M423.903 139.959H441.252" stroke="black" stroke-width="3.29104" stroke-miterlimit="10"/>
<path d="M476.664 154.456H481.62" stroke="black" stroke-width="3.29104" stroke-miterlimit="10"/>
<path d="M476.248 152.568L475.444 153.719" stroke="black" stroke-width="3.29104" stroke-miterlimit="10"/>
<path d="M484.919 157.405V154.519L491.115 154.456" stroke="black" stroke-width="3.29104" stroke-miterlimit="10"/>
<path d="M431.026 35.3333C434.747 35.2894 435.234 37.9241 435.367 39.0219C435.588 41.525 433.506 43.5888 431.557 43.5888C429.608 43.5888 427.127 42.2276 427.127 39.4172C427.083 35.6407 431.026 35.3333 431.026 35.3333Z" fill="black" fill-opacity="0.5" stroke="black" stroke-width="2.88807" stroke-miterlimit="10"/>
</g>
<defs>
<clipPath id="clip0_527_355">

</clipPath>
</defs>
</svg>
