<svg width="974" height="270" viewBox="0 0 974 270" fill="none" xmlns="http://www.w3.org/2000/svg">
<path d="M195.5 83.5V164.5H360V75.5C344 64.5 322.5 63 322.5 63L321 23L315 13L295 15V56.5C295 56.5 232.5 55 195.5 83.5Z" fill="white"/>
<path opacity="0.2" d="M195.892 111.902C198.497 104.05 200.106 87.8782 208.497 83.0191C216.887 78.1599 232.366 71.5514 232.519 71.5125C232.672 71.4736 268.342 64.6708 268.342 64.6708L272.441 64.6319L282.97 64.6319V58.604C282.97 58.604 278.878 58.2178 269.645 58.9952C260.411 59.7727 229.109 65.0984 217.194 71.5902C205.278 78.0821 198.842 82.9802 198.842 82.9802L195.892 111.902Z" fill="black"/>
<path opacity="0.2" d="M217.884 152.408C222.711 135.848 220.451 120.571 229.684 108.714C238.573 97.2856 289.031 94.3701 289.031 94.3701L222.137 98.0242L220.374 101.912L217.884 152.408Z" fill="black"/>
<path opacity="0.5" d="M294.855 31.3562C295.775 25.8361 295.008 22.9984 297.346 19.422C299.453 16.2344 313.437 13.902 313.437 13.902L294.166 15.1848L294.855 31.3562Z" fill="black"/>
<path opacity="0.5" d="M295.469 52.2702C295.66 46.3226 295.622 41.6577 298.266 39.7529C301.56 37.3816 312.25 35.2825 312.25 35.2825L293.668 36.3709L295.469 52.2702Z" fill="black"/>
<path opacity="0.5" d="M294.97 72.601C296.656 67.5474 295.928 63.3491 298.725 60.2781C301.943 56.7017 313.667 55.8076 313.667 55.8076L294.97 56.4296V72.601Z" fill="black"/>
<path d="M246.407 163.876L246.964 138.025L290.028 137.598V163.876" stroke="black" stroke-width="3.14531" stroke-miterlimit="10"/>
<path d="M294.242 36.3322L294.242 15.2667L314.778 12.8137L316.196 77.3437L294.511 78.3667V55.8078M294.242 36.3322L311.277 34.1377M294.242 36.3322L294.511 55.8078M294.511 55.8078L312.456 54.1882" stroke="black" stroke-width="3.14531" stroke-miterlimit="10"/>
<path d="M305.123 5C305.123 5.42761 305.354 13.9409 305.354 13.9409" stroke="black" stroke-width="3.14531" stroke-miterlimit="10"/>
<path d="M300.22 10.1702C300.296 10.1702 310.028 8.92624 310.028 8.92624" stroke="black" stroke-width="3.14531" stroke-miterlimit="10"/>
<path d="M324.25 163.876L321.892 70.1106C324.727 69.9551 328.968 70.7003 328.968 70.7003L329.558 106.083M323.24 139.386L330.737 139.386L331.327 163.876M321.976 110.386C322.244 110.386 329.912 110.386 329.912 110.386L330.148 134.98" stroke="black" stroke-width="3.14531" stroke-miterlimit="10"/>
<path d="M245.584 82.7082L258.113 82.2417V70.463" stroke="black" stroke-width="3.14531" stroke-miterlimit="10"/>
<path d="M245.278 73.6489V91.9369M232.52 77.777V92.5199M220.375 83.6741C220.375 84.6849 220.375 92.5199 220.375 92.5199" stroke="black" stroke-width="3.14531" stroke-miterlimit="10"/>
<path d="M207.501 100.162L208.114 84.7685C227.232 72.1346 252.94 65.6428 271.216 65.8371V81.3153M271.216 81.3153L258.113 82.2417M271.216 81.3153L282.97 80.7256M217.195 163.876L220.375 98.0632L282.97 96.648V56.7795" stroke="black" stroke-width="3.14531" stroke-miterlimit="10"/>
<path d="M292.995 57.1368C292.995 57.1368 225.777 58.0624 198.038 83.7578L194.512 163.876M360.831 164.265V74.4282C360.831 74.4282 335.248 62.6386 321.302 62.4442L320.525 22.2599L314.932 11.9973" stroke="black" stroke-width="3.14531" stroke-miterlimit="10"/>
<g clip-path="url(#clip0_718_543)">
<path d="M406.358 91.9962L402.82 162.763H562.044C560.471 139.174 557.444 91.9962 557.916 91.9962C560.275 90.8168 562.044 83.1504 555.557 81.971C565.582 64.2794 533.148 52.485 494.816 54.2542C495.288 54.2542 494.226 37.3489 493.637 28.8963L497.175 18.2813H462.381L465.92 28.8963C466.116 37.3489 466.627 54.2542 467.099 54.2542C403.41 59.5617 400.461 76.6635 407.538 81.971C403.999 83.1504 401.64 87.2785 406.358 91.9962Z" fill="white"/>
<path opacity="0.5" d="M465.336 26.1004C466.876 26.5335 467.628 25.5884 468.867 25.0765C469.732 24.722 470.709 24.9583 471.61 25.0765C473.038 25.2734 474.466 25.5097 475.894 25.4703C478.824 25.4309 481.718 24.8008 484.648 24.6433C485.776 24.5645 486.865 24.5645 487.992 24.6039C488.781 24.2101 489.683 24.2495 490.472 24.6039C490.66 24.6039 490.848 24.6039 491.036 24.6039C491.036 24.722 491.073 24.8008 491.073 24.919C492.013 25.5097 492.727 26.5335 492.802 27.7149C493.253 27.9906 493.816 28.1481 494.418 28.1481C494.455 28.1481 494.493 28.1481 494.53 28.1481C494.793 27.518 495.094 26.8486 495.319 26.1791C496.033 24.1313 496.334 22.0442 497.123 20.0358C497.085 19.9964 497.085 19.9177 497.048 19.8783C496.108 18.0668 494.53 17.8305 492.764 17.673C489.345 17.4367 485.888 17.358 482.469 17.7518C479.238 18.1062 476.082 18.6575 472.813 18.1456C470.183 17.7518 468.154 17.8305 465.974 18.8544C465.674 18.8544 465.373 18.8938 465.11 18.9726C463.231 19.5239 462.405 21.4535 462.743 23.3437C462.968 24.6827 464.096 25.7459 465.336 26.1004Z" fill="black"/>
<path opacity="0.5" d="M473.203 69.2236C471.845 69.3303 470.447 69.4904 469.049 69.6504L488.419 69.2236C488.379 69.2236 495.488 67.516 473.203 69.2236Z" fill="black"/>
<path opacity="0.5" d="M404.11 90.8595L407.48 92.1803C408.398 88.331 414.18 83.9911 419.311 81.84C424.097 79.8398 448.411 71.6506 469.049 69.6505L451.206 69.9524L420.804 75.7641L407.173 82.5193L402.693 87.6894L404.11 90.8595Z" fill="black"/>
<path opacity="0.5" d="M439.548 142.839C440.911 136.009 440.798 127.433 444.016 124.284C446.817 121.552 452.95 119.427 454.73 119.351C456.509 119.275 439.624 119.123 439.624 119.123L439.548 142.839Z" fill="black"/>
<path opacity="0.5" d="M472.067 118.287L472.378 143.169C473.7 135.197 474.984 125.794 477.278 123.395C480.195 120.299 485.445 118.519 488.361 118.364C491.239 118.209 472.067 118.287 472.067 118.287Z" fill="black"/>
<path opacity="0.5" d="M507.797 119.472L508.299 143.169C509.16 135.651 509.053 125.921 511.78 123.636C514.507 121.351 520.14 119.693 522.832 119.545C525.523 119.398 507.797 119.472 507.797 119.472Z" fill="black"/>
<path opacity="0.5" d="M424.386 103.361L425.612 105.996L432.006 106.41C433.882 106.41 476.615 85.4797 480.942 85.1032C485.268 84.6891 537.957 104.189 537.957 104.189L481.631 80.3224L424.386 103.361Z" fill="black"/>
<path opacity="0.5" d="M542.649 61.5947L522.288 56.5128L489.263 53.0496L455.854 54.2542L429.296 58.7338L410.397 67.2789L403.969 72.7749L404.585 78.0451L406.856 81.5083C409.127 76.0123 424.292 58.3573 471.635 58.1691C518.978 57.9809 546.999 64.2674 551.156 65.8861C555.313 67.4671 542.649 61.5947 542.649 61.5947Z" fill="black"/>
<path d="M481.172 80.3224L423.11 103.884L424.784 106.41H481.172H537.597L539.233 103.884L481.172 80.3224Z" stroke="black" stroke-width="3.0355" stroke-miterlimit="10"/>
<path d="M428.178 107.329L426.939 162.141" stroke="black" stroke-width="3.0355" stroke-miterlimit="10"/>
<path d="M437.613 153.841L438.8 118.268H456.754" stroke="black" stroke-width="3.0355" stroke-miterlimit="10"/>
<path d="M470.791 152.655V118.268H488.656" stroke="black" stroke-width="3.0355" stroke-miterlimit="10"/>
<path d="M507.131 153.841L506.521 118.268H524.385" stroke="black" stroke-width="3.0355" stroke-miterlimit="10"/>
<path d="M534.327 106.739L537.957 163.327" stroke="black" stroke-width="3.0355" stroke-miterlimit="10"/>
<path d="M407.139 81.5083C404.179 77.5508 404.717 72.9212 408.561 69.5983C412.406 66.2755 428.513 53.6934 480.027 54.2535C531.541 54.8135 548.455 63.5126 553.145 67.4329C557.874 71.3531 557.836 77.4014 555.76 80.6496" stroke="black" stroke-width="3.0355" stroke-miterlimit="10"/>
<path d="M402.693 163.327L406.184 92.1803C403.234 88.3393 403.387 85.6216 405.724 83.6286C409.555 80.4036 429.947 68.4075 481.842 68.4075C533.738 68.4075 554.065 80.4036 557.896 83.6286C560.233 85.6216 560.386 88.3393 557.436 92.1803L562.202 163.327" stroke="black" stroke-width="3.0355" stroke-miterlimit="10"/>
<path d="M434.595 72.0221L433.319 92.1803" stroke="black" stroke-width="3.0355" stroke-miterlimit="10"/>
<path d="M527.748 67.2789V57.7927" stroke="black" stroke-width="3.0355" stroke-miterlimit="10"/>
<path d="M466.497 52.9302V24.5908H493.302L494.571 54.2353" stroke="black" stroke-width="3.0355" stroke-miterlimit="10"/>
<path d="M493.636 32.8912C493.636 31.0304 497.123 18.6619 497.123 18.6619H462.381L466.509 32.8912" stroke="black" stroke-width="3.0355" stroke-miterlimit="10"/>
<path d="M527.748 87.4372C527.748 86.6907 527.748 72.0221 527.748 72.0221" stroke="black" stroke-width="3.0355" stroke-miterlimit="10"/>
<path d="M435.871 57.7927L435.254 67.8177" stroke="black" stroke-width="3.0355" stroke-miterlimit="10"/>
<path d="M480.332 31.7448C488.329 31.5839 490.098 43.0495 480.216 43.5322C471.817 43.5322 472.059 31.9112 480.332 31.7448Z" stroke="black" stroke-width="3.0355" stroke-miterlimit="10"/>
<path d="M480.073 18.9281V7.66635" stroke="black" stroke-width="3.0355" stroke-miterlimit="10"/>
<path d="M475.355 11.7944C475.933 11.7944 484.287 11.7944 484.287 11.7944" stroke="black" stroke-width="3.0355" stroke-miterlimit="10"/>
</g>
<path d="M606.205 50.8187V162.865H786.069V136.328L762.48 122.764H661.638V50.8187H664.587L633.922 20.1533L602.667 50.8187H606.205Z" fill="white"/>
<path d="M613.928 51.4533H602.077L633.922 20.1533L665.528 51.4533H652.793" stroke="black" stroke-width="2.88807" stroke-miterlimit="10"/>
<path d="M606.153 163.14V50.3019" stroke="black" stroke-width="2.88807" stroke-miterlimit="10"/>
<path d="M661.917 163.14V50.3019" stroke="black" stroke-width="2.88807" stroke-miterlimit="10"/>
<path d="M629.793 122.764L629.206 62.8044C629.206 62.8044 628.967 56.7159 632.899 56.7159C636.831 56.7159 636.25 62.8044 636.25 62.8044V122.764" stroke="black" stroke-width="3.29104" stroke-miterlimit="10"/>
<path d="M614.02 122.535L614.02 75.1678C614.02 75.1678 613.47 68.7244 617.984 68.7244C623.307 68.7244 622.262 74.746 622.262 74.746L621.948 122.535" stroke="black" stroke-width="3.29104" stroke-miterlimit="10"/>
<path d="M644.574 122.579V74.8356C644.574 74.8356 644.231 68.7244 648.612 68.7244C652.002 68.7244 652.002 74.4918 652.002 74.4918V122.764" stroke="black" stroke-width="3.29104" stroke-miterlimit="10"/>
<path d="M661.917 122.841H762.301L785.835 136.457V164.292" stroke="black" stroke-width="2.7686" stroke-miterlimit="10"/>
<path d="M666.874 137.809L774.865 137.809" stroke="black" stroke-width="2.7686" stroke-miterlimit="10"/>
<path d="M709.005 142.225V163.14" stroke="black" stroke-width="2.88807" stroke-miterlimit="10"/>
<path d="M671.83 163.14V143.566H699.092V163.14" stroke="black" stroke-width="2.88807" stroke-miterlimit="10"/>
<path opacity="0.5" d="M614.156 120.538L619.768 69.1L614.156 71.4589L614.156 120.538Z" fill="black"/>
<path opacity="0.5" d="M629.697 106.721L629.736 106.212L633.921 57.3056L629.736 60.2542L629.697 106.721Z" fill="black"/>
<path opacity="0.5" d="M644.567 105.57L649.524 68.7244L645.538 71.5647L644.567 105.57Z" fill="black"/>
<path opacity="0.5" d="M661.917 139.866C664.587 125.713 692.904 123.619 709.406 122.764C725.908 121.91 661.917 121.689 661.917 121.689V139.866Z" fill="black"/>
<path opacity="0.5" d="M607.851 50.848C607.851 50.848 625.841 28.1979 635.69 27.8196C642.321 27.5926 644.275 30.5814 644.275 30.5814L633.468 21.653L603.256 50.848L609.269 50.9993L612.987 51.4533" fill="black"/>
<path d="M634.654 133.203V163.14" stroke="black" stroke-width="3.29104" stroke-miterlimit="10"/>
<path d="M625.98 140.112H643.329" stroke="black" stroke-width="3.29104" stroke-miterlimit="10"/>
<path d="M678.74 154.609H683.697" stroke="black" stroke-width="3.29104" stroke-miterlimit="10"/>
<path d="M678.324 152.721L677.521 153.873" stroke="black" stroke-width="3.29104" stroke-miterlimit="10"/>
<path d="M686.996 157.558V154.672L693.192 154.609" stroke="black" stroke-width="3.29104" stroke-miterlimit="10"/>
<path d="M633.102 35.4865C636.823 35.4426 637.311 38.0773 637.443 39.1751C637.665 41.6782 635.583 43.742 633.634 43.742C631.685 43.742 629.204 42.3808 629.204 39.5704C629.16 35.7939 633.102 35.4865 633.102 35.4865Z" fill="black" fill-opacity="0.5" stroke="black" stroke-width="2.88807" stroke-miterlimit="10"/>
<path d="M15.2346 260.729L172.983 164.729C173.766 164.252 174.666 164 175.583 164H477C479.761 164 482 166.239 482 169V265C482 267.761 479.761 270 477 270H17.834C12.7793 270 10.9167 263.356 15.2346 260.729Z" fill="#2A6266"/>
<path d="M955.801 260.731L798.381 164.731C797.597 164.253 796.696 164 795.777 164H498C495.239 164 493 166.239 493 169V265C493 267.761 495.239 270 498 270H953.198C958.25 270 960.114 263.362 955.801 260.731Z" fill="#F4AC11"/>
<path d="M381.557 164H589.443L644 270H323L381.557 164Z" fill="#139B91"/>
<rect x="4" y="181" width="970" height="89" fill="url(#paint0_linear_718_543)"/>
<defs>
<linearGradient id="paint0_linear_718_543" x1="489" y1="181" x2="489" y2="270" gradientUnits="userSpaceOnUse">
<stop stop-color="white" stop-opacity="0"/>
<stop offset="0.885417" stop-color="white"/>
</linearGradient>
<clipPath id="clip0_718_543">
<rect width="204.043" height="162.763" fill="white" transform="translate(381)"/>
</clipPath>
</defs>
</svg>
