<svg width="536" height="146" viewBox="0 0 536 146" fill="none" xmlns="http://www.w3.org/2000/svg">
<path d="M5 72L2.90527 145.949H153.429V64.5103C138.789 54.4449 119.115 53.0723 119.115 53.0723L117.743 16.4707L112.253 7.32031L93.9518 9.15039V47.1246C93.9518 47.1246 38.8565 45.9213 5 72Z" fill="white"/>
<path opacity="0.2" d="M3.2627 97.8197C5.64665 90.6344 7.11909 75.8369 14.7968 71.3906C22.4746 66.9442 36.6381 60.8972 36.7783 60.8616C36.9185 60.8261 69.5577 54.6012 69.5577 54.6012L73.3089 54.5656L82.9426 54.5656V49.0498C82.9426 49.0498 79.1987 48.6964 70.7497 49.4078C62.3007 50.1192 33.6581 54.9924 22.755 60.9328C11.8519 66.8731 5.96218 71.355 5.96218 71.355L3.2627 97.8197Z" fill="black"/>
<path opacity="0.2" d="M23.3867 134.885C27.804 119.731 25.7356 105.752 34.1846 94.9029C42.3181 84.4451 88.4897 81.7773 88.4897 81.7773L27.2782 85.1209L25.6655 88.678L23.3867 134.885Z" fill="black"/>
<path opacity="0.5" d="M93.8195 24.1169C94.6609 19.0659 93.9598 16.4692 96.0983 13.1967C98.0265 10.2799 110.823 8.14563 110.823 8.14563L93.1885 9.31947L93.8195 24.1169Z" fill="black"/>
<path opacity="0.5" d="M94.3792 43.2541C94.5545 37.8118 94.5194 33.5433 96.9384 31.8003C99.9534 29.6305 109.735 27.7097 109.735 27.7097L92.7314 28.7056L94.3792 43.2541Z" fill="black"/>
<path opacity="0.5" d="M93.9238 61.8576C95.4664 57.2334 94.8003 53.3917 97.3595 50.5816C100.304 47.3091 111.032 46.491 111.032 46.491L93.9238 47.0601V61.8576Z" fill="black"/>
<path d="M49.4854 145.378L49.9944 121.723L89.3998 121.332V145.378" stroke="black" stroke-width="2.87809" stroke-miterlimit="10"/>
<path d="M93.2559 28.6702L93.2561 9.39444L112.047 7.14984L113.344 66.1974L93.5015 67.1335V46.4912M93.2559 28.6702L108.843 26.6622M93.2559 28.6702L93.5015 46.4912M93.5015 46.4912L109.922 45.0092" stroke="black" stroke-width="2.87809" stroke-miterlimit="10"/>
<path d="M103.213 0C103.213 0.391279 103.424 8.18129 103.424 8.18129" stroke="black" stroke-width="2.87809" stroke-miterlimit="10"/>
<path d="M98.7275 4.73095C98.7977 4.73095 107.702 3.59268 107.702 3.59268" stroke="black" stroke-width="2.87809" stroke-miterlimit="10"/>
<path d="M120.716 145.378L118.558 59.5789C121.152 59.4366 125.033 60.1185 125.033 60.1185L125.573 92.4955M119.791 122.968L126.652 122.969L127.191 145.378M118.635 96.4326C118.88 96.4326 125.897 96.4326 125.897 96.4326L126.112 118.937" stroke="black" stroke-width="2.87809" stroke-miterlimit="10"/>
<path d="M48.7324 71.1061L60.1964 70.6792V59.9012" stroke="black" stroke-width="2.87809" stroke-miterlimit="10"/>
<path d="M48.4537 62.8165V79.5508M36.7792 66.5938V80.0843M25.666 71.99C25.666 72.9149 25.666 80.0843 25.666 80.0843" stroke="black" stroke-width="2.87809" stroke-miterlimit="10"/>
<path d="M13.8857 87.0775L14.4467 72.9914C31.9407 61.4309 55.4647 55.4906 72.1875 55.6684V69.8316M72.1875 69.8316L60.1976 70.6793M72.1875 69.8316L82.9431 69.2919M22.7557 145.378L25.6656 85.1566L82.9431 83.8616V47.3804" stroke="black" stroke-width="2.87809" stroke-miterlimit="10"/>
<path d="M92.1161 47.7073C92.1161 47.7073 30.6085 48.5542 5.22635 72.0665L2 145.378M154.188 145.734V63.5296C154.188 63.5296 130.779 52.7417 118.018 52.5638L117.307 15.7935L112.189 6.40283" stroke="black" stroke-width="2.87809" stroke-miterlimit="10"/>
<path d="M190.542 80.5762L188.5 145.898L332 145.949C330.561 124.364 328.792 80.5762 329.224 80.5762C331.383 79.497 333.001 72.482 327.066 71.4027C336.239 55.2142 306.56 44.4219 271.485 46.0407C271.917 46.0407 270.945 30.5717 270.406 22.8372L273.644 13.1241H241.806L245.044 22.8372C245.224 30.5717 245.691 46.0407 246.123 46.0407C187.844 50.8973 185.146 66.5462 191.622 71.4027C188.384 72.482 186.226 76.2593 190.542 80.5762Z" fill="white"/>
<path opacity="0.5" d="M244.508 20.2788C245.918 20.6752 246.606 19.8104 247.74 19.3419C248.531 19.0176 249.425 19.2338 250.25 19.3419C251.557 19.5221 252.863 19.7383 254.17 19.7023C256.851 19.6662 259.499 19.0897 262.18 18.9455C263.212 18.8735 264.209 18.8735 265.24 18.9095C265.962 18.5492 266.788 18.5852 267.51 18.9095C267.681 18.9095 267.853 18.9095 268.025 18.9095C268.025 19.0176 268.06 19.0897 268.06 19.1978C268.919 19.7383 269.572 20.6752 269.641 21.7562C270.054 22.0085 270.57 22.1526 271.12 22.1526C271.154 22.1526 271.188 22.1526 271.223 22.1526C271.463 21.576 271.738 20.9635 271.945 20.3509C272.598 18.4771 272.873 16.5673 273.595 14.7295C273.561 14.6935 273.561 14.6214 273.526 14.5854C272.667 12.9278 271.223 12.7116 269.607 12.5674C266.478 12.3512 263.315 12.2792 260.186 12.6395C257.23 12.9638 254.341 13.4683 251.35 12.9999C248.944 12.6395 247.087 12.7116 245.093 13.6485C244.818 13.6485 244.543 13.6845 244.302 13.7566C242.583 14.2611 241.827 16.0267 242.136 17.7564C242.342 18.9816 243.374 19.9545 244.508 20.2788Z" fill="black"/>
<path opacity="0.5" d="M251.708 59.7382C250.465 59.8359 249.186 59.9824 247.907 60.1289L265.631 59.7382C265.595 59.7382 272.099 58.1758 251.708 59.7382Z" fill="black"/>
<path opacity="0.5" d="M188.485 79.536L191.568 80.7446C192.409 77.2223 197.699 73.2511 202.394 71.2828C206.774 69.4525 229.022 61.9591 247.907 60.1288L231.58 60.4051L203.761 65.7231L191.288 71.9043L187.188 76.6352L188.485 79.536Z" fill="black"/>
<path opacity="0.5" d="M220.912 127.099C222.159 120.85 222.055 113.003 225 110.121C227.563 107.621 233.176 105.676 234.804 105.607C236.432 105.538 220.981 105.399 220.981 105.399L220.912 127.099Z" fill="black"/>
<path opacity="0.5" d="M250.668 104.633L250.953 127.401C252.163 120.107 253.337 111.503 255.436 109.307C258.105 106.474 262.909 104.846 265.578 104.704C268.211 104.562 250.668 104.633 250.668 104.633Z" fill="black"/>
<path opacity="0.5" d="M283.361 105.717L283.821 127.401C284.609 120.522 284.511 111.619 287.006 109.528C289.501 107.437 294.656 105.92 297.119 105.785C299.581 105.65 283.361 105.717 283.361 105.717Z" fill="black"/>
<path opacity="0.5" d="M207.038 90.9749L208.159 93.3861L214.011 93.765C215.727 93.765 254.829 74.6132 258.789 74.2688C262.748 73.8899 310.959 91.7327 310.959 91.7327L259.419 69.8942L207.038 90.9749Z" fill="black"/>
<path opacity="0.5" d="M315.254 52.7576L296.623 48.1074L266.404 44.9384L235.833 46.0407L211.531 50.1397L194.238 57.9589L188.356 62.9879L188.92 67.8103L190.998 70.9793C193.076 65.9502 206.953 49.7952 250.273 49.623C293.594 49.4508 319.234 55.2032 323.038 56.6844C326.842 58.1311 315.254 52.7576 315.254 52.7576Z" fill="black"/>
<path d="M259 69.8942L205.872 91.4538L207.404 93.765H259H310.632L312.129 91.4538L259 69.8942Z" stroke="black" stroke-width="2.7776" stroke-miterlimit="10"/>
<path d="M210.508 94.6063L209.374 144.762" stroke="black" stroke-width="2.7776" stroke-miterlimit="10"/>
<path d="M219.141 137.167L220.227 104.615H236.655" stroke="black" stroke-width="2.7776" stroke-miterlimit="10"/>
<path d="M249.499 136.082V104.615H265.846" stroke="black" stroke-width="2.7776" stroke-miterlimit="10"/>
<path d="M282.752 137.167L282.193 104.615H298.541" stroke="black" stroke-width="2.7776" stroke-miterlimit="10"/>
<path d="M307.64 94.0666L311 145.398" stroke="black" stroke-width="2.7776" stroke-miterlimit="10"/>
<path d="M191.258 70.9794C188.549 67.358 189.042 63.1218 192.559 60.0812C196.077 57.0407 210.816 45.5276 257.953 46.0401C305.09 46.5525 320.568 54.5126 324.86 58.0998C329.186 61.6869 329.151 67.2214 327.252 70.1936" stroke="black" stroke-width="2.7776" stroke-miterlimit="10"/>
<path d="M187.188 145.847L190.382 80.7446C187.683 77.2299 187.823 74.7431 189.961 72.9195C193.467 69.9684 212.127 58.9915 259.613 58.9915C307.099 58.9915 325.699 69.9684 329.205 72.9195C331.343 74.7431 331.484 77.2299 328.784 80.7446L333.146 145.847" stroke="black" stroke-width="2.7776" stroke-miterlimit="10"/>
<path d="M216.381 62.299L215.213 80.7446" stroke="black" stroke-width="2.7776" stroke-miterlimit="10"/>
<path d="M301.618 57.9588V49.2785" stroke="black" stroke-width="2.7776" stroke-miterlimit="10"/>
<path d="M245.57 44.8292V18.8975H270.097L271.259 46.0235" stroke="black" stroke-width="2.7776" stroke-miterlimit="10"/>
<path d="M270.404 26.4927C270.404 24.79 273.594 13.4722 273.594 13.4722H241.805L245.582 26.4927" stroke="black" stroke-width="2.7776" stroke-miterlimit="10"/>
<path d="M301.618 76.4045C301.618 75.7214 301.618 62.299 301.618 62.299" stroke="black" stroke-width="2.7776" stroke-miterlimit="10"/>
<path d="M217.549 49.2785L216.984 58.4519" stroke="black" stroke-width="2.7776" stroke-miterlimit="10"/>
<path d="M258.232 25.4436C265.55 25.2964 267.169 35.7879 258.126 36.2296C250.441 36.2296 250.662 25.5959 258.232 25.4436Z" stroke="black" stroke-width="2.7776" stroke-miterlimit="10"/>
<path d="M257.994 13.7159V3.41095" stroke="black" stroke-width="2.7776" stroke-miterlimit="10"/>
<path d="M253.678 7.18829C254.206 7.18829 261.851 7.18829 261.851 7.18829" stroke="black" stroke-width="2.7776" stroke-miterlimit="10"/>
<path d="M369.923 42.0656L369.765 145.949H534.5L534.506 120.31L512.922 107.899H420.647V42.0656H423.345L395.285 14.0055L366.686 42.0656H369.923Z" fill="white"/>
<path d="M376.99 42.6463H366.146L395.285 14.0055L424.206 42.6463H412.553" stroke="black" stroke-width="2.6427" stroke-miterlimit="10"/>
<path d="M369.876 145.944V41.5927" stroke="black" stroke-width="2.6427" stroke-miterlimit="10"/>
<path d="M420.9 144.844V41.5927" stroke="black" stroke-width="2.6427" stroke-miterlimit="10"/>
<path d="M391.509 107.899L390.972 53.033C390.972 53.033 390.753 47.4618 394.351 47.4618C397.949 47.4618 397.417 53.033 397.417 53.033V107.899" stroke="black" stroke-width="3.01144" stroke-miterlimit="10"/>
<path d="M377.073 107.689L377.073 64.3461C377.073 64.3461 376.57 58.4501 380.7 58.4501C385.571 58.4501 384.615 63.96 384.615 63.96L384.328 107.689" stroke="black" stroke-width="3.01144" stroke-miterlimit="10"/>
<path d="M405.032 107.729V64.042C405.032 64.042 404.718 58.4501 408.727 58.4501C411.83 58.4501 411.83 63.7275 411.83 63.7275V107.899" stroke="black" stroke-width="3.01144" stroke-miterlimit="10"/>
<path d="M420.9 107.969H512.756L534.291 120.428V145.898" stroke="black" stroke-width="2.53338" stroke-miterlimit="10"/>
<path d="M425.438 121.665L524.254 121.665" stroke="black" stroke-width="2.53338" stroke-miterlimit="10"/>
<path d="M463.989 125.706V144.844" stroke="black" stroke-width="2.6427" stroke-miterlimit="10"/>
<path d="M429.972 144.844V126.933H454.918V144.844" stroke="black" stroke-width="2.6427" stroke-miterlimit="10"/>
<path opacity="0.5" d="M377.197 105.862L382.333 58.7938L377.197 60.9522L377.197 105.862Z" fill="black"/>
<path opacity="0.5" d="M391.421 93.2185L391.457 92.7526L395.286 48.0014L391.457 50.6995L391.421 93.2185Z" fill="black"/>
<path opacity="0.5" d="M405.026 92.1649L409.562 58.4501L405.915 61.049L405.026 92.1649Z" fill="black"/>
<path opacity="0.5" d="M420.9 123.548C423.344 110.597 449.255 108.68 464.355 107.899C479.455 107.117 420.9 106.915 420.9 106.915V123.548Z" fill="black"/>
<path opacity="0.5" d="M371.429 42.0925C371.429 42.0925 387.89 21.3668 396.903 21.0206C402.97 20.8129 404.758 23.5477 404.758 23.5477L394.869 15.3779L367.224 42.0925L372.726 42.2309L376.128 42.6464" fill="black"/>
<path d="M395.954 117.451V144.844" stroke="black" stroke-width="3.01144" stroke-miterlimit="10"/>
<path d="M388.019 123.773H403.893" stroke="black" stroke-width="3.01144" stroke-miterlimit="10"/>
<path d="M436.297 137.038H440.833" stroke="black" stroke-width="3.01144" stroke-miterlimit="10"/>
<path d="M435.916 135.311L435.181 136.364" stroke="black" stroke-width="3.01144" stroke-miterlimit="10"/>
<path d="M443.85 139.736V137.096L449.519 137.038" stroke="black" stroke-width="3.01144" stroke-miterlimit="10"/>
<path d="M394.537 28.036C397.942 27.9958 398.388 30.4067 398.509 31.4113C398.712 33.7016 396.807 35.5902 395.024 35.5902C393.24 35.5902 390.97 34.3445 390.97 31.7729C390.93 28.3173 394.537 28.036 394.537 28.036Z" fill="black" fill-opacity="0.5" stroke="black" stroke-width="2.6427" stroke-miterlimit="10"/>
</svg>
