<svg width="192" height="54" viewBox="0 0 192 54" fill="none" xmlns="http://www.w3.org/2000/svg">
<path d="M0.888184 25.8194V52.4612H54.9939V23.1882C49.7313 19.5701 42.6598 19.0768 42.6598 19.0768L42.1664 5.92038L40.1929 2.63128L33.6147 3.2891V16.9389C33.6147 16.9389 13.0579 16.4455 0.888184 25.8194Z" fill="white"/>
<path opacity="0.2" d="M1.01709 35.1612C1.874 32.5784 2.40327 27.2595 5.16302 25.6613C7.92278 24.063 13.0138 21.8894 13.0642 21.8766C13.1146 21.8638 24.8467 19.6263 24.8467 19.6263L26.1951 19.6135L29.6579 19.6135V17.6309C29.6579 17.6309 28.3122 17.5039 25.2752 17.7596C22.2382 18.0153 11.9427 19.767 8.02359 21.9022C4.10449 24.0374 1.98741 25.6485 1.98741 25.6485L1.01709 35.1612Z" fill="black"/>
<path opacity="0.2" d="M8.25049 48.4841C9.83829 43.0373 9.0948 38.0124 12.1318 34.1127C15.0554 30.3537 31.6517 29.3947 31.6517 29.3947L9.64927 30.5966L9.06959 31.8752L8.25049 48.4841Z" fill="black"/>
<path opacity="0.5" d="M33.5672 8.66881C33.8696 6.85321 33.6176 5.91984 34.3863 4.74354C35.0794 3.6951 39.6789 2.92795 39.6789 2.92795L33.3403 3.34988L33.5672 8.66881Z" fill="black"/>
<path opacity="0.5" d="M33.769 15.5476C33.832 13.5914 33.8194 12.0571 34.689 11.4306C35.7727 10.6506 39.2885 9.96021 39.2885 9.96021L33.1768 10.3182L33.769 15.5476Z" fill="black"/>
<path opacity="0.5" d="M33.605 22.2346C34.1595 20.5725 33.92 19.1916 34.8399 18.1815C35.8985 17.0052 39.7546 16.7111 39.7546 16.7111L33.605 16.9157V22.2346Z" fill="black"/>
<path d="M17.6323 52.2559L17.8153 43.7533L31.9795 43.6127V52.2559" stroke="black" stroke-width="1.03453" stroke-miterlimit="10"/>
<path d="M33.3657 10.3055L33.3658 3.37683L40.1202 2.57001L40.5865 23.7946L33.454 24.131V16.7112M33.3657 10.3055L38.9685 9.5837M33.3657 10.3055L33.454 16.7112M33.454 16.7112L39.3565 16.1785" stroke="black" stroke-width="1.03453" stroke-miterlimit="10"/>
<path d="M36.9443 0C36.9443 0.140645 37.0202 2.94076 37.0202 2.94076" stroke="black" stroke-width="1.03453" stroke-miterlimit="10"/>
<path d="M35.3315 1.70054C35.3567 1.70054 38.5576 1.29139 38.5576 1.29139" stroke="black" stroke-width="1.03453" stroke-miterlimit="10"/>
<path d="M43.2358 52.2559L42.46 21.4155C43.3925 21.3644 44.7875 21.6095 44.7875 21.6095L44.9815 33.2474M42.9034 44.2009L45.3694 44.2009L45.5634 52.2559M42.4877 34.6626C42.5759 34.6626 45.0979 34.6626 45.0979 34.6626L45.1755 42.7516" stroke="black" stroke-width="1.03453" stroke-miterlimit="10"/>
<path d="M17.3618 25.559L21.4825 25.4056V21.5314" stroke="black" stroke-width="1.03453" stroke-miterlimit="10"/>
<path d="M17.2608 22.5793V28.5944M13.0644 23.9371V28.7862M9.06982 25.8767C9.06982 26.2092 9.06982 28.7862 9.06982 28.7862" stroke="black" stroke-width="1.03453" stroke-miterlimit="10"/>
<path d="M4.83545 31.2999L5.03707 26.2367C11.3253 22.0813 19.781 19.946 25.7919 20.0099V25.1009M25.7919 25.1009L21.4822 25.4056M25.7919 25.1009L29.658 24.9069M8.02376 52.2559L9.06969 30.6094L29.658 30.1439V17.0308" stroke="black" stroke-width="1.03453" stroke-miterlimit="10"/>
<path d="M32.9556 17.1483C32.9556 17.1483 10.8468 17.4528 1.72318 25.9042L0.563477 52.2559M55.2673 52.3838V22.8356C55.2673 22.8356 46.8528 18.9579 42.2658 18.894L42.0105 5.67696L40.1707 2.30149" stroke="black" stroke-width="1.03453" stroke-miterlimit="10"/>
<path d="M67.8796 29.7369L66.7158 53.0127H119.086C118.569 45.2541 117.573 29.7369 117.729 29.7369C118.504 29.349 119.086 26.8275 116.953 26.4395C120.25 20.6206 109.582 16.7413 96.9743 17.3232C97.1295 17.3232 96.7803 11.7629 96.5864 8.98273L97.7502 5.49136H86.3063L87.47 8.98273C87.5347 11.7629 87.7028 17.3232 87.858 17.3232C66.9098 19.0689 65.94 24.6939 68.2675 26.4395C67.1037 26.8275 66.3279 28.1852 67.8796 29.7369Z" fill="white"/>
<path opacity="0.5" d="M87.2779 8.06313C87.7846 8.20561 88.0318 7.89475 88.4396 7.72637C88.7239 7.6098 89.0452 7.68751 89.3418 7.72637C89.8114 7.79113 90.281 7.86885 90.7506 7.85589C91.7146 7.84294 92.6662 7.6357 93.6301 7.58389C94.0009 7.55799 94.3593 7.55799 94.73 7.57094C94.9896 7.44141 95.2862 7.45437 95.5457 7.57094C95.6075 7.57094 95.6693 7.57094 95.7311 7.57094C95.7311 7.6098 95.7434 7.6357 95.7434 7.67456C96.0524 7.86885 96.2872 8.20561 96.3119 8.59419C96.4602 8.68486 96.6456 8.73667 96.8433 8.73667C96.8557 8.73667 96.868 8.73667 96.8804 8.73667C96.9669 8.52943 97.0658 8.30923 97.1399 8.08904C97.3747 7.41551 97.4736 6.72902 97.7331 6.06845C97.7208 6.05549 97.7208 6.02959 97.7084 6.01664C97.3994 5.42082 96.8804 5.3431 96.2995 5.29129C95.1749 5.21358 94.038 5.18767 92.9134 5.3172C91.8505 5.43377 90.8124 5.61511 89.7373 5.44672C88.8722 5.3172 88.2048 5.3431 87.488 5.67987C87.3892 5.67987 87.2903 5.69282 87.2038 5.71873C86.5859 5.90006 86.314 6.53474 86.4252 7.15646C86.4994 7.59684 86.8701 7.94656 87.2779 8.06313Z" fill="black"/>
<path opacity="0.5" d="M89.8656 22.2468C89.419 22.2819 88.9593 22.3345 88.4995 22.3872L94.8703 22.2468C94.8572 22.2468 97.1954 21.6852 89.8656 22.2468Z" fill="black"/>
<path opacity="0.5" d="M67.1403 29.3631L68.2485 29.7975C68.5508 28.5314 70.4525 27.104 72.14 26.3964C73.7142 25.7386 81.7113 23.0451 88.4994 22.3872L82.6307 22.4865L72.6312 24.398L68.1478 26.6199L66.6743 28.3204L67.1403 29.3631Z" fill="black"/>
<path opacity="0.5" d="M78.7964 46.4597C79.2447 44.2132 79.2073 41.3926 80.2657 40.3567C81.1872 39.4581 83.2045 38.7592 83.7897 38.7342C84.375 38.7092 78.8213 38.6593 78.8213 38.6593L78.7964 46.4597Z" fill="black"/>
<path opacity="0.5" d="M89.4922 38.3842L89.5945 46.5682C90.0294 43.9462 90.4515 40.8534 91.2062 40.0643C92.1655 39.046 93.8923 38.4606 94.8516 38.4096C95.7982 38.3587 89.4922 38.3842 89.4922 38.3842Z" fill="black"/>
<path opacity="0.5" d="M101.244 38.7739L101.409 46.5682C101.693 44.0953 101.657 40.8952 102.554 40.1436C103.451 39.3921 105.304 38.8466 106.189 38.7981C107.074 38.7496 101.244 38.7739 101.244 38.7739Z" fill="black"/>
<path opacity="0.5" d="M73.8096 33.4748L74.2126 34.3415L76.3158 34.4777C76.9329 34.4777 90.9881 27.5936 92.4112 27.4698C93.8344 27.3336 111.164 33.7472 111.164 33.7472L92.6379 25.8973L73.8096 33.4748Z" fill="black"/>
<path opacity="0.5" d="M112.708 19.7376L106.01 18.0661L95.1484 16.927L84.1596 17.3232L75.4244 18.7966L69.2084 21.6072L67.0942 23.4149L67.2968 25.1483L68.0437 26.2874C68.7907 24.4797 73.7786 18.6728 89.3502 18.6109C104.922 18.549 114.138 20.6167 115.505 21.1491C116.873 21.6691 112.708 19.7376 112.708 19.7376Z" fill="black"/>
<path d="M92.4866 25.8973L73.3896 33.6469L73.9403 34.4777H92.4866H111.045L111.583 33.6469L92.4866 25.8973Z" stroke="black" stroke-width="0.998406" stroke-miterlimit="10"/>
<path d="M75.0564 34.78L74.6489 52.8083" stroke="black" stroke-width="0.998406" stroke-miterlimit="10"/>
<path d="M78.1602 50.0783L78.5505 38.3778H84.4558" stroke="black" stroke-width="0.998406" stroke-miterlimit="10"/>
<path d="M89.0723 49.6883V38.3778H94.9482" stroke="black" stroke-width="0.998406" stroke-miterlimit="10"/>
<path d="M101.025 50.0783L100.824 38.3778H106.7" stroke="black" stroke-width="0.998406" stroke-miterlimit="10"/>
<path d="M109.97 34.5861L111.164 53.1984" stroke="black" stroke-width="0.998406" stroke-miterlimit="10"/>
<path d="M68.1364 26.2874C67.1628 24.9857 67.3398 23.463 68.6043 22.37C69.8687 21.2771 75.1666 17.1388 92.11 17.323C109.053 17.5072 114.617 20.3684 116.159 21.6578C117.715 22.9472 117.702 24.9366 117.019 26.0049" stroke="black" stroke-width="0.998406" stroke-miterlimit="10"/>
<path d="M66.6743 53.1984L67.8223 29.7975C66.852 28.5341 66.9024 27.6403 67.6711 26.9847C68.9312 25.924 75.6383 21.9784 92.7072 21.9784C109.776 21.9784 116.462 25.924 117.722 26.9847C118.491 27.6403 118.541 28.5341 117.571 29.7975L119.138 53.1984" stroke="black" stroke-width="0.998406" stroke-miterlimit="10"/>
<path d="M77.1673 23.1673L76.7476 29.7975" stroke="black" stroke-width="0.998406" stroke-miterlimit="10"/>
<path d="M107.806 21.6072V18.487" stroke="black" stroke-width="0.998406" stroke-miterlimit="10"/>
<path d="M87.6602 16.8877V7.56662H96.4764L96.8938 17.317" stroke="black" stroke-width="0.998406" stroke-miterlimit="10"/>
<path d="M96.5863 10.2967C96.5863 9.68468 97.7329 5.61653 97.7329 5.61653H86.3062L87.6639 10.2967" stroke="black" stroke-width="0.998406" stroke-miterlimit="10"/>
<path d="M107.806 28.2374C107.806 27.9919 107.806 23.1673 107.806 23.1673" stroke="black" stroke-width="0.998406" stroke-miterlimit="10"/>
<path d="M77.5871 18.487L77.3843 21.7844" stroke="black" stroke-width="0.998406" stroke-miterlimit="10"/>
<path d="M92.2103 9.91963C94.8407 9.86672 95.4226 13.6379 92.1722 13.7966C89.4098 13.7966 89.4894 9.97436 92.2103 9.91963Z" stroke="black" stroke-width="0.998406" stroke-miterlimit="10"/>
<path d="M92.1255 5.70411V2.00001" stroke="black" stroke-width="0.998406" stroke-miterlimit="10"/>
<path d="M90.5737 3.35777C90.7637 3.35777 93.5117 3.35777 93.5117 3.35777" stroke="black" stroke-width="0.998406" stroke-miterlimit="10"/>
<path d="M131.841 15.6776V52.5309H191V43.8025L183.241 39.3413H150.073V15.6776H151.043L140.957 5.59148L130.677 15.6776H131.841Z" fill="white"/>
<path d="M134.381 15.8864H130.483L140.957 5.59147L151.353 15.8864H147.164" stroke="black" stroke-width="0.949916" stroke-miterlimit="10"/>
<path d="M131.824 52.6213V15.5077" stroke="black" stroke-width="0.949916" stroke-miterlimit="10"/>
<path d="M150.165 52.6213V15.5077" stroke="black" stroke-width="0.949916" stroke-miterlimit="10"/>
<path d="M139.599 39.3413L139.406 19.6199C139.406 19.6199 139.327 17.6173 140.621 17.6173C141.914 17.6173 141.723 19.6199 141.723 19.6199V39.3413" stroke="black" stroke-width="1.08246" stroke-miterlimit="10"/>
<path d="M134.411 39.2658L134.411 23.6863C134.411 23.6863 134.23 21.567 135.715 21.567C137.466 21.567 137.122 23.5476 137.122 23.5476L137.019 39.2658" stroke="black" stroke-width="1.08246" stroke-miterlimit="10"/>
<path d="M144.461 39.2803V23.577C144.461 23.577 144.348 21.567 145.789 21.567C146.904 21.567 146.904 23.464 146.904 23.464V39.3413" stroke="black" stroke-width="1.08246" stroke-miterlimit="10"/>
<path d="M150.165 39.3664H183.182L190.923 43.8449V53" stroke="black" stroke-width="0.910622" stroke-miterlimit="10"/>
<path d="M151.795 44.2897L187.315 44.2897" stroke="black" stroke-width="0.910622" stroke-miterlimit="10"/>
<path d="M165.653 45.7422V52.6213" stroke="black" stroke-width="0.949916" stroke-miterlimit="10"/>
<path d="M153.426 52.6213V46.1832H162.393V52.6213" stroke="black" stroke-width="0.949916" stroke-miterlimit="10"/>
<path opacity="0.5" d="M134.456 38.609L136.302 21.6905L134.456 22.4664L134.456 38.609Z" fill="black"/>
<path opacity="0.5" d="M139.568 34.0645L139.581 33.897L140.957 17.8113L139.581 18.7811L139.568 34.0645Z" fill="black"/>
<path opacity="0.5" d="M144.458 33.6858L146.089 21.567L144.778 22.5012L144.458 33.6858Z" fill="black"/>
<path opacity="0.5" d="M150.165 44.9663C151.043 40.3112 160.357 39.6222 165.785 39.3413C171.212 39.0604 150.165 38.9877 150.165 38.9877V44.9663Z" fill="black"/>
<path opacity="0.5" d="M132.382 15.6873C132.382 15.6873 138.299 8.23744 141.539 8.113C143.719 8.03834 144.362 9.02137 144.362 9.02137L140.808 6.08474L130.871 15.6873L132.849 15.737L134.071 15.8864" fill="black"/>
<path d="M141.198 42.7748V52.6213" stroke="black" stroke-width="1.08246" stroke-miterlimit="10"/>
<path d="M138.345 45.0471H144.051" stroke="black" stroke-width="1.08246" stroke-miterlimit="10"/>
<path d="M155.698 49.8154H157.329" stroke="black" stroke-width="1.08246" stroke-miterlimit="10"/>
<path d="M155.562 49.1945L155.297 49.5732" stroke="black" stroke-width="1.08246" stroke-miterlimit="10"/>
<path d="M158.414 50.7852V49.8362L160.451 49.8154" stroke="black" stroke-width="1.08246" stroke-miterlimit="10"/>
<path d="M140.688 10.6347C141.911 10.6203 142.072 11.4869 142.115 11.848C142.188 12.6712 141.503 13.3501 140.862 13.3501C140.221 13.3501 139.405 12.9023 139.405 11.978C139.391 10.7358 140.688 10.6347 140.688 10.6347Z" fill="black" fill-opacity="0.5" stroke="black" stroke-width="0.949916" stroke-miterlimit="10"/>
</svg>
