<svg width="581" height="581" viewBox="0 0 581 581" fill="none" xmlns="http://www.w3.org/2000/svg">
<g clip-path="url(#clip0_403_54)">
<rect width="581" height="581" rx="290.5" fill="#2A6266"/>
<path d="M463.638 269.976C444.226 253.986 404.242 245.816 392.859 243.752C391.076 243.428 389.785 241.877 389.802 240.065L390.663 146.031C390.681 144.001 389.04 142.345 387.01 142.345H308.174C306.156 142.345 304.52 143.976 304.517 145.994C304.499 158.06 304.389 197.248 303.707 220.944C303.65 222.913 302.043 224.457 300.073 224.486C264.761 225.014 189.824 233.691 119.705 281.03C118.828 281.622 118.25 282.52 118.166 283.575C116.272 307.247 118.319 438.655 118.319 438.655" stroke="white" stroke-width="35" stroke-linecap="round"/>
</g>
<defs>
<clipPath id="clip0_403_54">
<rect width="581" height="581" fill="white"/>
</clipPath>
</defs>
</svg>
