<svg width="26" height="26" viewBox="0 0 26 26" fill="none" xmlns="http://www.w3.org/2000/svg">
<path fill-rule="evenodd" clip-rule="evenodd" d="M4 0C2.34315 0 1 1.34315 1 3V23C1 24.6569 2.34314 26 4 26H6H8H18H20H21H22C23.6569 26 25 24.6569 25 23V6.76727C25 5.92998 24.6501 5.13078 24.0348 4.56286L19.9536 0.79559C19.3995 0.284051 18.673 0 17.9188 0H16H14H7H5H4ZM21 24H22C22.5523 24 23 23.5523 23 23V6.76727C23 6.48817 22.8834 6.22177 22.6783 6.03247L18.5971 2.2652C18.4123 2.09468 18.1702 2 17.9188 2L16 2L16 6C16 7.10457 15.1046 8 14 8L7 8C5.89543 8 5 7.10457 5 6L5 2H4C3.44771 2 3 2.44772 3 3V23C3 23.5523 3.44772 24 4 24H6V17C6 15.8954 6.89543 15 8 15H18C19.1046 15 20 15.8954 20 17V24H21ZM18 24V17H8V24H18ZM14 2L7 2L7 6L14 6L14 2Z" fill="black" fill-opacity="0.8"/>
</svg>
