<svg width="26" height="26" viewBox="0 0 26 26" fill="none" xmlns="http://www.w3.org/2000/svg">
<path fill-rule="evenodd" clip-rule="evenodd" d="M24 6H2L2 16.0858L4.79289 13.2929L5.5 12.5858L6.20711 13.2929L10 17.0858L16.7929 10.2929L17.5 9.58579L18.2071 10.2929L24 16.0858V6ZM2 20V18.9142L5.5 15.4142L9.29289 19.2071L10 19.9142L10.7071 19.2071L17.5 12.4142L24 18.9142V20H2ZM2 4C0.895431 4 0 4.89543 0 6V20C0 21.1046 0.89543 22 2 22H24C25.1046 22 26 21.1046 26 20V6C26 4.89543 25.1046 4 24 4H2ZM10.5 11C11.3284 11 12 10.3284 12 9.5C12 8.67157 11.3284 8 10.5 8C9.67157 8 9 8.67157 9 9.5C9 10.3284 9.67157 11 10.5 11Z" fill="black" fill-opacity="0.8"/>
</svg>
