<svg width="26" height="26" viewBox="0 0 26 26" fill="none" xmlns="http://www.w3.org/2000/svg">
<g clip-path="url(#clip0_908_391)">
<path fill-rule="evenodd" clip-rule="evenodd" d="M24 13C24 19.0751 19.0751 24 13 24C6.92487 24 2 19.0751 2 13C2 6.92487 6.92487 2 13 2C19.0751 2 24 6.92487 24 13ZM26 13C26 20.1797 20.1797 26 13 26C5.8203 26 0 20.1797 0 13C0 5.8203 5.8203 0 13 0C20.1797 0 26 5.8203 26 13ZM14 6C14 5.44772 13.5523 5 13 5C12.4477 5 12 5.44772 12 6V12.7485C12 13.4752 12.2638 14.1772 12.7423 14.724L15.7474 18.1585C16.1111 18.5741 16.7429 18.6163 17.1585 18.2526C17.5741 17.8889 17.6163 17.2571 17.2526 16.8415L14.2474 13.407C14.0879 13.2247 14 12.9908 14 12.7485V6Z" fill="black" fill-opacity="0.8"/>
</g>
<defs>
<clipPath id="clip0_908_391">
<rect width="26" height="26" fill="white"/>
</clipPath>
</defs>
</svg>
