<svg width="27" height="23" viewBox="0 0 27 23" fill="none" xmlns="http://www.w3.org/2000/svg">
<path d="M13.4857 21.0058C18.5 21.0058 23.1524 16.8303 26 11.5052C25 10.5 24.0322 6.5528 21 6.50519C17.9678 6.45758 16.9857 12 15 12C13.0143 12 4.5 2 3.5 6.00579C3.05837 7.77485 3.87142 12.2417 6.5 14.5C3.87142 13.7688 1 9.50578 1 13.0182C1 16.5306 7.5 21.0058 13.4857 21.0058Z" stroke="#272626" stroke-width="2" stroke-linecap="round" stroke-linejoin="round"/>
<path d="M6 4.38282C6 3.07136 6.21081 1.22374 7.43457 1.00517C8.65834 0.78659 11.5 8 15.5 10" stroke="#272626" stroke-width="2" stroke-linecap="round" stroke-linejoin="round"/>
<circle cx="22" cy="11.0052" r="1" fill="#272626"/>
</svg>
