<svg width="200" height="162" viewBox="0 0 200 162" fill="none" xmlns="http://www.w3.org/2000/svg">
<g clip-path="url(#clip0_902_430)">
<path d="M19.5122 82.5L17 163.5H181.5V74.5C165.5 63.5 144 62 144 62L142.5 22L136.5 12L116.5 14V55.5C116.5 55.5 56.5122 54 19.5122 82.5Z" fill="white"/>
<path opacity="0.2" d="M17.3916 110.902C19.9969 103.05 21.6061 86.8782 29.9967 82.0191C38.3873 77.1599 53.8658 70.5514 54.0191 70.5125C54.1723 70.4736 89.842 63.6708 89.842 63.6708L93.9415 63.6319L104.47 63.6319V57.604C104.47 57.604 100.378 57.2178 91.1446 57.9952C81.9111 58.7727 50.6092 64.0984 38.6938 70.5902C26.7784 77.0821 20.3417 81.9802 20.3417 81.9802L17.3916 110.902Z" fill="black"/>
<path opacity="0.2" d="M39.3838 151.408C44.2113 134.848 41.9508 119.571 51.1843 107.714C60.0729 96.2856 110.531 93.3701 110.531 93.3701L43.6366 97.0242L41.8742 100.912L39.3838 151.408Z" fill="black"/>
<path opacity="0.5" d="M116.355 30.3561C117.275 24.836 116.508 21.9983 118.846 18.4219C120.953 15.2343 134.937 12.9019 134.937 12.9019L115.666 14.1847L116.355 30.3561Z" fill="black"/>
<path opacity="0.5" d="M116.969 51.2702C117.16 45.3226 117.122 40.6577 119.766 38.7529C123.06 36.3816 133.75 34.2825 133.75 34.2825L115.168 35.3709L116.969 51.2702Z" fill="black"/>
<path opacity="0.5" d="M116.47 71.601C118.156 66.5474 117.428 62.3491 120.225 59.2781C123.443 55.7017 135.167 54.8076 135.167 54.8076L116.47 55.4296V71.601Z" fill="black"/>
<path d="M67.9072 162.876L68.4635 137.025L111.528 136.598V162.876" stroke="black" stroke-width="3.14531" stroke-miterlimit="10"/>
<path d="M115.742 35.3322L115.742 14.2667L136.278 11.8137L137.696 76.3437L116.011 77.3667V54.8078M115.742 35.3322L132.777 33.1377M115.742 35.3322L116.011 54.8078M116.011 54.8078L133.956 53.1882" stroke="black" stroke-width="3.14531" stroke-miterlimit="10"/>
<path d="M126.623 4C126.623 4.42761 126.854 12.9409 126.854 12.9409" stroke="black" stroke-width="3.14531" stroke-miterlimit="10"/>
<path d="M121.72 9.17022C121.796 9.17022 131.528 7.92627 131.528 7.92627" stroke="black" stroke-width="3.14531" stroke-miterlimit="10"/>
<path d="M145.75 162.876L143.392 69.1107C146.227 68.9552 150.468 69.7004 150.468 69.7004L151.058 105.084M144.74 138.386L152.237 138.386L152.827 162.876M143.476 109.386C143.744 109.386 151.412 109.386 151.412 109.386L151.648 133.98" stroke="black" stroke-width="3.14531" stroke-miterlimit="10"/>
<path d="M67.0845 81.708L79.6129 81.2416V69.4629" stroke="black" stroke-width="3.14531" stroke-miterlimit="10"/>
<path d="M66.7779 72.6489V90.9369M54.0195 76.777V91.5199M41.8745 82.6741C41.8745 83.6849 41.8745 91.5199 41.8745 91.5199" stroke="black" stroke-width="3.14531" stroke-miterlimit="10"/>
<path d="M29.001 99.1624L29.614 83.7685C48.7323 71.1346 74.4405 64.6428 92.7159 64.8371V80.3153M92.7159 80.3153L79.6128 81.2417M92.7159 80.3153L104.47 79.7256M38.6945 162.876L41.8745 97.0632L104.47 95.648V55.7795" stroke="black" stroke-width="3.14531" stroke-miterlimit="10"/>
<path d="M114.495 56.1368C114.495 56.1368 47.2769 57.0624 19.5381 82.7578L17.0122 163.5M182.012 163.5L182.331 73.4282C182.331 73.4282 156.748 61.6386 142.802 61.4442L142.025 21.2599L136.432 10.9973" stroke="black" stroke-width="3.14531" stroke-miterlimit="10"/>
</g>
<defs>
<clipPath id="clip0_902_430">
<rect width="200" height="162" fill="white"/>
</clipPath>
</defs>
</svg>
