<svg width="601" height="162" viewBox="0 0 601 162" fill="none" xmlns="http://www.w3.org/2000/svg">
<g clip-path="url(#clip0_527_355)">
<path d="M24.5122 83.5L22 164.5H186.5V75.5C170.5 64.5 149 63 149 63L147.5 23L141.5 13L121.5 15V56.5C121.5 56.5 61.5122 55 24.5122 83.5Z" fill="white"/>
<path opacity="0.2" d="M22.3916 111.902C24.9969 104.05 26.6061 87.8782 34.9967 83.0191C43.3873 78.1599 58.8658 71.5514 59.0191 71.5125C59.1723 71.4736 94.842 64.6708 94.842 64.6708L98.9415 64.6319L109.47 64.6319V58.604C109.47 58.604 105.378 58.2178 96.1446 58.9952C86.9111 59.7727 55.6092 65.0984 43.6938 71.5902C31.7784 78.0821 25.3417 82.9802 25.3417 82.9802L22.3916 111.902Z" fill="black"/>
<path opacity="0.2" d="M44.3838 152.408C49.2113 135.848 46.9508 120.571 56.1843 108.714C65.0729 97.2856 115.531 94.3701 115.531 94.3701L48.6366 98.0242L46.8742 101.912L44.3838 152.408Z" fill="black"/>
<path opacity="0.5" d="M121.355 31.3561C122.275 25.836 121.508 22.9983 123.846 19.4219C125.953 16.2343 139.937 13.9019 139.937 13.9019L120.666 15.1847L121.355 31.3561Z" fill="black"/>
<path opacity="0.5" d="M121.969 52.2702C122.16 46.3226 122.122 41.6577 124.766 39.7529C128.06 37.3816 138.75 35.2825 138.75 35.2825L120.168 36.3709L121.969 52.2702Z" fill="black"/>
<path opacity="0.5" d="M121.47 72.601C123.156 67.5474 122.428 63.3491 125.225 60.2781C128.443 56.7017 140.167 55.8076 140.167 55.8076L121.47 56.4296V72.601Z" fill="black"/>
<path d="M72.9072 163.876L73.4635 138.025L116.528 137.598V163.876" stroke="black" stroke-width="3.14531" stroke-miterlimit="10"/>
<path d="M120.742 36.3322L120.742 15.2667L141.278 12.8137L142.696 77.3437L121.011 78.3667V55.8078M120.742 36.3322L137.777 34.1377M120.742 36.3322L121.011 55.8078M121.011 55.8078L138.956 54.1882" stroke="black" stroke-width="3.14531" stroke-miterlimit="10"/>
<path d="M131.623 5C131.623 5.42761 131.854 13.9409 131.854 13.9409" stroke="black" stroke-width="3.14531" stroke-miterlimit="10"/>
<path d="M126.72 10.1702C126.796 10.1702 136.528 8.92627 136.528 8.92627" stroke="black" stroke-width="3.14531" stroke-miterlimit="10"/>
<path d="M150.75 163.876L148.392 70.1107C151.227 69.9552 155.468 70.7004 155.468 70.7004L156.058 106.084M149.74 139.386L157.237 139.386L157.827 163.876M148.476 110.386C148.744 110.386 156.412 110.386 156.412 110.386L156.648 134.98" stroke="black" stroke-width="3.14531" stroke-miterlimit="10"/>
<path d="M72.0845 82.708L84.6129 82.2416V70.4629" stroke="black" stroke-width="3.14531" stroke-miterlimit="10"/>
<path d="M71.7779 73.6489V91.9369M59.0195 77.777V92.5199M46.8745 83.6741C46.8745 84.6849 46.8745 92.5199 46.8745 92.5199" stroke="black" stroke-width="3.14531" stroke-miterlimit="10"/>
<path d="M34.001 100.162L34.614 84.7685C53.7323 72.1346 79.4405 65.6428 97.7159 65.8371V81.3153M97.7159 81.3153L84.6128 82.2417M97.7159 81.3153L109.47 80.7256M43.6945 163.876L46.8745 98.0632L109.47 96.648V56.7795" stroke="black" stroke-width="3.14531" stroke-miterlimit="10"/>
<path d="M119.495 57.1368C119.495 57.1368 52.2769 58.0624 24.5381 83.7578L22.0122 164.5M187.012 164.5L187.331 74.4282C187.331 74.4282 161.748 62.6386 147.802 62.4442L147.025 22.2599L141.432 11.9973" stroke="black" stroke-width="3.14531" stroke-miterlimit="10"/>
<path d="M220.533 91.9796L217 163H376C374.43 139.327 371.407 91.9796 371.878 91.9796C374.233 90.7959 376 83.102 369.522 81.9184C379.533 64.1633 347.144 52.3265 308.867 54.102C309.338 54.102 308.278 37.1361 307.689 28.6531L311.222 18H276.478L280.011 28.6531C280.207 37.1361 280.718 54.102 281.189 54.102C217.589 59.4286 214.644 76.5918 221.711 81.9184C218.178 83.102 215.822 87.2449 220.533 91.9796Z" fill="white"/>
<path opacity="0.5" d="M279.642 25.4341C281.183 25.8672 281.934 24.9221 283.174 24.4102C284.038 24.0558 285.015 24.292 285.917 24.4102C287.345 24.6071 288.773 24.8434 290.2 24.804C293.131 24.7646 296.024 24.1345 298.955 23.977C300.082 23.8982 301.172 23.8982 302.299 23.9376C303.088 23.5438 303.99 23.5832 304.779 23.9376C304.967 23.9376 305.155 23.9376 305.343 23.9376C305.343 24.0558 305.38 24.1345 305.38 24.2527C306.319 24.8434 307.033 25.8672 307.109 27.0487C307.559 27.3243 308.123 27.4818 308.724 27.4818C308.762 27.4818 308.799 27.4818 308.837 27.4818C309.1 26.8517 309.401 26.1823 309.626 25.5128C310.34 23.4651 310.64 21.3779 311.429 19.3695C311.392 19.3301 311.392 19.2514 311.354 19.212C310.415 17.4005 308.837 17.1642 307.071 17.0067C303.652 16.7704 300.195 16.6917 296.776 17.0855C293.544 17.4399 290.388 17.9912 287.119 17.4793C284.489 17.0855 282.46 17.1642 280.281 18.1881C279.98 18.1881 279.68 18.2275 279.417 18.3063C277.538 18.8576 276.711 20.7872 277.05 22.6775C277.275 24.0164 278.402 25.0796 279.642 25.4341Z" fill="black"/>
<path opacity="0.5" d="M287.509 68.5572C286.152 68.664 284.754 68.824 283.356 68.9841L302.725 68.5572C302.686 68.5572 309.794 66.8497 287.509 68.5572Z" fill="black"/>
<path opacity="0.5" d="M218.417 90.1931L221.786 91.514C222.705 87.6647 228.487 83.3247 233.618 81.1737C238.404 79.1735 262.718 70.9843 283.356 68.9841L265.513 69.286L235.111 75.0978L221.48 81.8529L217 87.0231L218.417 90.1931Z" fill="black"/>
<path opacity="0.5" d="M253.855 142.173C255.218 135.343 255.104 126.767 258.322 123.618C261.124 120.886 267.257 118.761 269.036 118.685C270.816 118.609 253.931 118.457 253.931 118.457L253.855 142.173Z" fill="black"/>
<path opacity="0.5" d="M286.374 117.62L286.685 142.503C288.007 134.531 289.29 125.128 291.585 122.728C294.501 119.633 299.751 117.853 302.668 117.698C305.546 117.543 286.374 117.62 286.374 117.62Z" fill="black"/>
<path opacity="0.5" d="M322.104 118.805L322.606 142.503C323.467 134.984 323.359 125.255 326.086 122.97C328.814 120.685 334.447 119.026 337.138 118.879C339.829 118.732 322.104 118.805 322.104 118.805Z" fill="black"/>
<path opacity="0.5" d="M238.693 102.694L239.918 105.329L246.313 105.743C248.189 105.743 290.921 84.8132 295.248 84.4368C299.575 84.0227 352.263 103.522 352.263 103.522L295.937 79.656L238.693 102.694Z" fill="black"/>
<path opacity="0.5" d="M356.956 60.9284L336.595 55.8465L303.57 52.3833L270.161 53.5879L243.602 58.0675L224.704 66.6127L218.276 72.1087L218.892 77.3788L221.163 80.842C223.434 75.346 238.599 57.6911 285.942 57.5029C333.284 57.3146 361.305 63.6012 365.462 65.2198C369.619 66.8009 356.956 60.9284 356.956 60.9284Z" fill="black"/>
<path d="M295.478 79.656L237.417 103.217L239.091 105.743H295.478H351.903L353.539 103.217L295.478 79.656Z" stroke="black" stroke-width="3.0355" stroke-miterlimit="10"/>
<path d="M242.484 106.663L241.246 161.475" stroke="black" stroke-width="3.0355" stroke-miterlimit="10"/>
<path d="M251.92 153.174L253.107 117.601H271.061" stroke="black" stroke-width="3.0355" stroke-miterlimit="10"/>
<path d="M285.097 151.989V117.601H302.962" stroke="black" stroke-width="3.0355" stroke-miterlimit="10"/>
<path d="M321.438 153.174L320.827 117.601H338.692" stroke="black" stroke-width="3.0355" stroke-miterlimit="10"/>
<path d="M348.634 106.073L352.263 162.661" stroke="black" stroke-width="3.0355" stroke-miterlimit="10"/>
<path d="M221.446 80.8418C218.485 76.8843 219.024 72.2547 222.868 68.9318C226.712 65.609 242.82 53.0269 294.334 53.587C345.847 54.147 362.762 62.8461 367.452 66.7664C372.181 70.6866 372.142 76.7349 370.066 79.9831" stroke="black" stroke-width="3.0355" stroke-miterlimit="10"/>
<path d="M217 163L220.49 91.5141C217.54 87.673 217.693 84.9553 220.03 82.9623C223.862 79.7373 244.254 67.7412 296.149 67.7412C348.044 67.7412 368.371 79.7373 372.202 82.9623C374.539 84.9553 374.693 87.673 371.743 91.5141L377 163" stroke="black" stroke-width="3.0355" stroke-miterlimit="10"/>
<path d="M248.902 71.3557L247.626 91.514" stroke="black" stroke-width="3.0355" stroke-miterlimit="10"/>
<path d="M342.055 66.6125V57.1262" stroke="black" stroke-width="3.0355" stroke-miterlimit="10"/>
<path d="M280.804 52.2637V23.9243H307.608L308.877 53.5688" stroke="black" stroke-width="3.0355" stroke-miterlimit="10"/>
<path d="M307.943 32.2249C307.943 30.3642 311.429 17.9956 311.429 17.9956H276.688L280.816 32.2249" stroke="black" stroke-width="3.0355" stroke-miterlimit="10"/>
<path d="M342.055 86.7708C342.055 86.0243 342.055 71.3557 342.055 71.3557" stroke="black" stroke-width="3.0355" stroke-miterlimit="10"/>
<path d="M250.178 57.1262L249.561 67.1513" stroke="black" stroke-width="3.0355" stroke-miterlimit="10"/>
<path d="M294.638 31.0783C302.636 30.9175 304.405 42.3831 294.523 42.8658C286.124 42.8658 286.366 31.2447 294.638 31.0783Z" stroke="black" stroke-width="3.0355" stroke-miterlimit="10"/>
<path d="M294.38 18.2618V7" stroke="black" stroke-width="3.0355" stroke-miterlimit="10"/>
<path d="M289.662 11.1279C290.239 11.1279 298.594 11.1279 298.594 11.1279" stroke="black" stroke-width="3.0355" stroke-miterlimit="10"/>
<path d="M411.128 50.6654V163H590.993V136.175L567.404 122.611H466.562V50.6654H469.51L438.845 20L407.59 50.6654H411.128Z" fill="white"/>
<path d="M418.851 51.3H407L438.845 20L470.451 51.3H457.716" stroke="black" stroke-width="2.88807" stroke-miterlimit="10"/>
<path d="M411.076 162.987V50.1487" stroke="black" stroke-width="2.88807" stroke-miterlimit="10"/>
<path d="M466.84 162.987V50.1487" stroke="black" stroke-width="2.88807" stroke-miterlimit="10"/>
<path d="M434.717 122.611L434.13 62.651C434.13 62.651 433.89 56.5625 437.822 56.5625C441.755 56.5625 441.173 62.651 441.173 62.651V122.611" stroke="black" stroke-width="3.29104" stroke-miterlimit="10"/>
<path d="M418.943 122.382L418.943 75.0147C418.943 75.0147 418.393 68.5713 422.907 68.5713C428.23 68.5713 427.186 74.5928 427.186 74.5928L426.872 122.382" stroke="black" stroke-width="3.29104" stroke-miterlimit="10"/>
<path d="M449.497 122.426V74.6824C449.497 74.6824 449.154 68.5713 453.535 68.5713C456.926 68.5713 456.926 74.3387 456.926 74.3387V122.611" stroke="black" stroke-width="3.29104" stroke-miterlimit="10"/>
<path d="M466.84 122.688H567.224L590.759 136.304L590.759 163" stroke="black" stroke-width="2.7686" stroke-miterlimit="10"/>
<path d="M471.797 137.656L579.788 137.656" stroke="black" stroke-width="2.7686" stroke-miterlimit="10"/>
<path d="M513.929 142.072V162.987" stroke="black" stroke-width="2.88807" stroke-miterlimit="10"/>
<path d="M476.753 162.987V143.413H504.016V162.987" stroke="black" stroke-width="2.88807" stroke-miterlimit="10"/>
<path opacity="0.5" d="M419.08 120.385L424.692 68.9468L419.08 71.3057L419.08 120.385Z" fill="black"/>
<path opacity="0.5" d="M434.621 106.568L434.66 106.059L438.845 57.1523L434.66 60.1009L434.621 106.568Z" fill="black"/>
<path opacity="0.5" d="M449.491 105.416L454.447 68.5713L450.462 71.4115L449.491 105.416Z" fill="black"/>
<path opacity="0.5" d="M466.84 139.713C469.51 125.56 497.827 123.465 514.329 122.611C530.831 121.757 466.84 121.536 466.84 121.536V139.713Z" fill="black"/>
<path opacity="0.5" d="M412.775 50.6947C412.775 50.6947 430.764 28.0447 440.614 27.6664C447.244 27.4394 449.199 30.4281 449.199 30.4281L438.391 21.4998L408.179 50.6947L414.193 50.8461L417.91 51.3001" fill="black"/>
<path d="M439.577 133.05V162.987" stroke="black" stroke-width="3.29104" stroke-miterlimit="10"/>
<path d="M430.903 139.959H448.252" stroke="black" stroke-width="3.29104" stroke-miterlimit="10"/>
<path d="M483.664 154.456H488.62" stroke="black" stroke-width="3.29104" stroke-miterlimit="10"/>
<path d="M483.248 152.568L482.444 153.719" stroke="black" stroke-width="3.29104" stroke-miterlimit="10"/>
<path d="M491.919 157.405V154.519L498.115 154.456" stroke="black" stroke-width="3.29104" stroke-miterlimit="10"/>
<path d="M438.026 35.3333C441.747 35.2894 442.234 37.9241 442.367 39.0219C442.588 41.525 440.506 43.5888 438.557 43.5888C436.608 43.5888 434.127 42.2276 434.127 39.4172C434.083 35.6407 438.026 35.3333 438.026 35.3333Z" fill="black" fill-opacity="0.5" stroke="black" stroke-width="2.88807" stroke-miterlimit="10"/>
</g>
<defs>
<clipPath id="clip0_527_355">
<rect width="601" height="162" fill="white"/>
</clipPath>
</defs>
</svg>
