<svg width="200" height="162" viewBox="0 0 200 162" fill="none" xmlns="http://www.w3.org/2000/svg">
<g clip-path="url(#clip0_902_497)">
<path d="M23.5333 90.9796L20 162H179C177.43 138.327 174.407 90.9796 174.878 90.9796C177.233 89.7959 179 82.102 172.522 80.9184C182.533 63.1633 150.144 51.3265 111.867 53.102C112.338 53.102 111.278 36.1361 110.689 27.6531L114.222 17H79.4778L83.0111 27.6531C83.2074 36.1361 83.7178 53.102 84.1889 53.102C20.5889 58.4286 17.6444 75.5918 24.7111 80.9184C21.1778 82.102 18.8222 86.2449 23.5333 90.9796Z" fill="white"/>
<path opacity="0.5" d="M82.6422 24.4341C84.1827 24.8672 84.9341 23.9221 86.1741 23.4102C87.0383 23.0558 88.0152 23.292 88.917 23.4102C90.3448 23.6071 91.7726 23.8434 93.2004 23.804C96.1311 23.7646 99.0243 23.1345 101.955 22.977C103.082 22.8982 104.172 22.8982 105.299 22.9376C106.088 22.5438 106.99 22.5832 107.779 22.9376C107.967 22.9376 108.155 22.9376 108.343 22.9376C108.343 23.0558 108.38 23.1345 108.38 23.2527C109.319 23.8434 110.033 24.8672 110.109 26.0487C110.559 26.3243 111.123 26.4818 111.724 26.4818C111.762 26.4818 111.799 26.4818 111.837 26.4818C112.1 25.8517 112.401 25.1823 112.626 24.5128C113.34 22.4651 113.64 20.3779 114.429 18.3695C114.392 18.3301 114.392 18.2514 114.354 18.212C113.415 16.4005 111.837 16.1642 110.071 16.0067C106.652 15.7704 103.195 15.6917 99.7758 16.0855C96.5444 16.4399 93.3882 16.9912 90.1193 16.4793C87.4892 16.0855 85.4602 16.1642 83.2809 17.1881C82.9803 17.1881 82.6797 17.2275 82.4167 17.3063C80.538 17.8576 79.7114 19.7872 80.0496 21.6775C80.275 23.0164 81.4022 24.0796 82.6422 24.4341Z" fill="black"/>
<path opacity="0.5" d="M90.5094 67.5572C89.1516 67.664 87.7538 67.824 86.356 67.9841L105.725 67.5572C105.686 67.5572 112.794 65.8497 90.5094 67.5572Z" fill="black"/>
<path opacity="0.5" d="M21.4167 89.1931L24.7862 90.514C25.7051 86.6647 31.4868 82.3247 36.6176 80.1737C41.4038 78.1735 65.7176 69.9843 86.3557 67.9841L68.5128 68.286L38.1109 74.0978L24.4799 80.8529L20 86.0231L21.4167 89.1931Z" fill="black"/>
<path opacity="0.5" d="M56.855 141.173C58.2179 134.343 58.1043 125.767 61.3223 122.618C64.1239 119.886 70.2571 117.761 72.0365 117.685C73.8158 117.609 56.9307 117.457 56.9307 117.457L56.855 141.173Z" fill="black"/>
<path opacity="0.5" d="M89.3735 116.62L89.6846 141.503C91.0069 133.531 92.2902 124.128 94.5847 121.728C97.5014 118.633 102.751 116.853 105.668 116.698C108.546 116.543 89.3735 116.62 89.3735 116.62Z" fill="black"/>
<path opacity="0.5" d="M125.104 117.805L125.606 141.503C126.467 133.984 126.359 124.255 129.086 121.97C131.814 119.685 137.447 118.026 140.138 117.879C142.829 117.732 125.104 117.805 125.104 117.805Z" fill="black"/>
<path opacity="0.5" d="M41.6929 101.694L42.9182 104.329L49.3127 104.743C51.189 104.743 93.9214 83.8132 98.2483 83.4368C102.575 83.0227 155.263 102.522 155.263 102.522L98.9375 78.656L41.6929 101.694Z" fill="black"/>
<path opacity="0.5" d="M159.956 59.9284L139.595 54.8465L106.57 51.3833L73.1606 52.5879L46.6024 57.0675L27.7037 65.6127L21.2759 71.1087L21.8917 76.3788L24.1626 79.842C26.4336 74.346 41.5987 56.6911 88.9416 56.5029C136.284 56.3146 164.305 62.6012 168.462 64.2198C172.619 65.8009 159.956 59.9284 159.956 59.9284Z" fill="black"/>
<path d="M98.4782 78.656L40.417 102.217L42.0911 104.743H98.4782H154.903L156.539 102.217L98.4782 78.656Z" stroke="black" stroke-width="3.0355" stroke-miterlimit="10"/>
<path d="M45.4844 105.663L44.2456 160.475" stroke="black" stroke-width="3.0355" stroke-miterlimit="10"/>
<path d="M54.9199 152.174L56.1067 116.601H74.061" stroke="black" stroke-width="3.0355" stroke-miterlimit="10"/>
<path d="M88.0972 150.989V116.601H105.962" stroke="black" stroke-width="3.0355" stroke-miterlimit="10"/>
<path d="M124.438 152.174L123.827 116.601H141.692" stroke="black" stroke-width="3.0355" stroke-miterlimit="10"/>
<path d="M151.634 105.073L155.263 161.661" stroke="black" stroke-width="3.0355" stroke-miterlimit="10"/>
<path d="M24.4456 79.8418C21.4855 75.8843 22.0237 71.2547 25.868 67.9318C29.7123 64.609 45.8199 52.0269 97.3335 52.587C148.847 53.147 165.762 61.8461 170.452 65.7664C175.181 69.6866 175.142 75.7349 173.066 78.9831" stroke="black" stroke-width="3.0355" stroke-miterlimit="10"/>
<path d="M20 162L23.4902 90.5141C20.5403 86.673 20.6935 83.9553 23.0305 81.9623C26.8616 78.7373 47.2537 66.7412 99.149 66.7412C151.044 66.7412 171.371 78.7373 175.202 81.9623C177.539 83.9553 177.693 86.673 174.743 90.5141L180 162" stroke="black" stroke-width="3.0355" stroke-miterlimit="10"/>
<path d="M51.902 70.3557L50.626 90.514" stroke="black" stroke-width="3.0355" stroke-miterlimit="10"/>
<path d="M145.055 65.6125V56.1262" stroke="black" stroke-width="3.0355" stroke-miterlimit="10"/>
<path d="M83.8037 51.2637V22.9243H110.608L111.877 52.5688" stroke="black" stroke-width="3.0355" stroke-miterlimit="10"/>
<path d="M110.943 31.2249C110.943 29.3642 114.429 16.9956 114.429 16.9956H79.688L83.816 31.2249" stroke="black" stroke-width="3.0355" stroke-miterlimit="10"/>
<path d="M145.055 85.7708C145.055 85.0243 145.055 70.3557 145.055 70.3557" stroke="black" stroke-width="3.0355" stroke-miterlimit="10"/>
<path d="M53.1777 56.1262L52.561 66.1513" stroke="black" stroke-width="3.0355" stroke-miterlimit="10"/>
<path d="M97.6385 30.0783C105.636 29.9175 107.405 41.3831 97.5226 41.8658C89.124 41.8658 89.3659 30.2447 97.6385 30.0783Z" stroke="black" stroke-width="3.0355" stroke-miterlimit="10"/>
<path d="M97.3799 17.2618V6" stroke="black" stroke-width="3.0355" stroke-miterlimit="10"/>
<path d="M92.6616 10.1279C93.2392 10.1279 101.594 10.1279 101.594 10.1279" stroke="black" stroke-width="3.0355" stroke-miterlimit="10"/>
</g>
<defs>
<clipPath id="clip0_902_497">
<rect width="200" height="162" fill="white"/>
</clipPath>
</defs>
</svg>
