<svg width="200" height="162" viewBox="0 0 200 162" fill="none" xmlns="http://www.w3.org/2000/svg">
<path d="M12.1282 49.6654V162H191.993V135.175L168.404 121.611H67.5618V49.6654H70.5104L39.845 19L8.58984 49.6654H12.1282Z" fill="white"/>
<path d="M19.851 50.3H8L39.8448 19L71.4509 50.3H58.7159" stroke="black" stroke-width="2.88807" stroke-miterlimit="10"/>
<path d="M12.0762 161.987V49.1487" stroke="black" stroke-width="2.88807" stroke-miterlimit="10"/>
<path d="M67.8398 161.987V49.1487" stroke="black" stroke-width="2.88807" stroke-miterlimit="10"/>
<path d="M35.7167 121.611L35.1298 61.651C35.1298 61.651 34.8904 55.5625 38.8225 55.5625C42.7545 55.5625 42.1733 61.651 42.1733 61.651V121.611" stroke="black" stroke-width="3.29104" stroke-miterlimit="10"/>
<path d="M19.943 121.382L19.9429 74.0147C19.9429 74.0147 19.3934 67.5713 23.9072 67.5713C29.23 67.5713 28.1855 73.5928 28.1855 73.5928L27.8715 121.382" stroke="black" stroke-width="3.29104" stroke-miterlimit="10"/>
<path d="M50.497 121.426V73.6824C50.497 73.6824 50.1541 67.5713 54.5352 67.5713C57.9257 67.5713 57.9257 73.3387 57.9257 73.3387V121.611" stroke="black" stroke-width="3.29104" stroke-miterlimit="10"/>
<path d="M67.8398 121.688H168.224L191.759 135.304L191.759 162" stroke="black" stroke-width="2.7686" stroke-miterlimit="10"/>
<path d="M72.7969 136.656L180.788 136.656" stroke="black" stroke-width="2.7686" stroke-miterlimit="10"/>
<path d="M114.929 141.072V161.987" stroke="black" stroke-width="2.88807" stroke-miterlimit="10"/>
<path d="M77.7534 161.987V142.413H105.016V161.987" stroke="black" stroke-width="2.88807" stroke-miterlimit="10"/>
<path opacity="0.5" d="M20.0797 119.385L25.6917 67.9468L20.0797 70.3057L20.0797 119.385Z" fill="black"/>
<path opacity="0.5" d="M35.6206 105.568L35.6597 105.059L39.8448 56.1523L35.6597 59.1009L35.6206 105.568Z" fill="black"/>
<path opacity="0.5" d="M50.4907 104.416L55.4475 67.5713L51.4616 70.4115L50.4907 104.416Z" fill="black"/>
<path opacity="0.5" d="M67.8398 138.713C70.5103 124.56 98.8269 122.465 115.329 121.611C131.831 120.757 67.8398 120.536 67.8398 120.536V138.713Z" fill="black"/>
<path opacity="0.5" d="M13.7748 49.6947C13.7748 49.6947 31.7641 27.0447 41.6138 26.6664C48.2441 26.4394 50.1987 29.4281 50.1987 29.4281L39.3909 20.4998L9.1792 49.6947L15.1928 49.8461L18.9104 50.3001" fill="black"/>
<path d="M40.5771 132.05V161.987" stroke="black" stroke-width="3.29104" stroke-miterlimit="10"/>
<path d="M31.9033 138.959H49.252" stroke="black" stroke-width="3.29104" stroke-miterlimit="10"/>
<path d="M84.6636 153.456H89.6203" stroke="black" stroke-width="3.29104" stroke-miterlimit="10"/>
<path d="M84.2477 151.568L83.4438 152.719" stroke="black" stroke-width="3.29104" stroke-miterlimit="10"/>
<path d="M92.9194 156.405V153.519L99.1154 153.456" stroke="black" stroke-width="3.29104" stroke-miterlimit="10"/>
<path d="M39.0256 34.3333C42.7466 34.2894 43.2339 36.9241 43.3668 38.0219C43.5883 40.525 41.5062 42.5888 39.5571 42.5888C37.608 42.5888 35.1273 41.2276 35.1273 38.4172C35.083 34.6407 39.0256 34.3333 39.0256 34.3333Z" fill="black" fill-opacity="0.5" stroke="black" stroke-width="2.88807" stroke-miterlimit="10"/>
</svg>
