<svg width="199" height="306" viewBox="0 0 199 306" fill="none" xmlns="http://www.w3.org/2000/svg">
<rect x="6" y="7" width="193" height="299" fill="#CCCCCC"/>
<rect width="193" height="299" fill="#EBEBEB"/>
<path fill-rule="evenodd" clip-rule="evenodd" d="M40.5 43.5C40.5 42.6716 39.8284 42 39 42C38.1716 42 37.5 42.6716 37.5 43.5V72H19C18.1716 72 17.5 72.6716 17.5 73.5C17.5 74.3284 18.1716 75 19 75H37.5V111H19C18.1716 111 17.5 111.672 17.5 112.5C17.5 113.328 18.1716 114 19 114H37.5V150H19C18.1716 150 17.5 150.672 17.5 151.5C17.5 152.328 18.1716 153 19 153H37.5V190H19C18.1716 190 17.5 190.672 17.5 191.5C17.5 192.328 18.1716 193 19 193H37.5V229H19C18.1716 229 17.5 229.672 17.5 230.5C17.5 231.328 18.1716 232 19 232H37.5V270.5C37.5 271.328 38.1716 272 39 272C39.8284 272 40.5 271.328 40.5 270.5V232H83.5V270.5C83.5 271.328 84.1716 272 85 272C85.8284 272 86.5 271.328 86.5 270.5V232H128.5V270.5C128.5 271.328 129.172 272 130 272C130.828 272 131.5 271.328 131.5 270.5V232H175C175.828 232 176.5 231.328 176.5 230.5C176.5 229.672 175.828 229 175 229H131.5V193H175C175.828 193 176.5 192.328 176.5 191.5C176.5 190.672 175.828 190 175 190H131.5V153H175C175.828 153 176.5 152.328 176.5 151.5C176.5 150.672 175.828 150 175 150H131.5V114H175C175.828 114 176.5 113.328 176.5 112.5C176.5 111.672 175.828 111 175 111H131.5V75H175C175.828 75 176.5 74.3284 176.5 73.5C176.5 72.6716 175.828 72 175 72H131.5V43.5C131.5 42.6716 130.828 42 130 42C129.172 42 128.5 42.6716 128.5 43.5V72H86.5V43.5C86.5 42.6716 85.8284 42 85 42C84.1716 42 83.5 42.6716 83.5 43.5V72H40.5V43.5ZM128.5 75H86.5V111H128.5V75ZM128.5 114H86.5V150H128.5V114ZM128.5 153H86.5V190H128.5V153ZM128.5 193H86.5V229H128.5V193ZM83.5 193V229H40.5V193H83.5ZM83.5 153V190H40.5V153H83.5ZM83.5 114V150H40.5V114H83.5ZM83.5 75V111H40.5V75H83.5Z" fill="black" fill-opacity="0.2"/>
</svg>
