<svg width="405" height="410" viewBox="0 0 405 410" fill="none" xmlns="http://www.w3.org/2000/svg">
<path d="M119.276 326.211L198.222 31.5814C248.92 28.6858 380.584 76.9347 398.274 95.2939L319.861 387.938C300.444 371.244 163.925 317.671 119.276 326.211Z" fill="black" fill-opacity="0.2"/>
<path d="M119.276 326.21L198.222 31.5812C248.92 28.6856 385.468 58.7715 403.159 77.1307L324.745 369.775C305.328 353.081 163.925 317.671 119.276 326.21Z" fill="#2A6266"/>
<path d="M102.399 342.01V36.9872C150.621 21.0685 290.286 33.5964 312.125 46.7513V349.719C289.05 338.619 143.317 322.206 102.399 342.01Z" fill="black" fill-opacity="0.2"/>
<path d="M102.4 342.01V36.9871C150.622 21.0683 290.304 14.788 312.143 27.9429V330.91C289.068 319.811 143.318 322.205 102.4 342.01Z" fill="#139B91"/>
<path d="M92.5443 387.696L13.5986 93.0668C56.0571 65.2098 194.205 41.163 218.705 48.2171L297.119 340.861C271.957 336.112 126.942 357.976 92.5443 387.696Z" fill="black" fill-opacity="0.2"/>
<path d="M92.5454 387.696L13.5997 93.067C56.0583 65.21 189.355 22.9914 213.855 30.0456L292.269 322.689C267.107 317.941 126.943 357.976 92.5454 387.696Z" fill="#F4AC11"/>
</svg>
