<svg width="176" height="141" viewBox="0 0 176 141" fill="none" xmlns="http://www.w3.org/2000/svg">
<g clip-path="url(#clip0_113_62)">
<path d="M17 73L14 141H155V65.5C148.5 62 132.8 55 122 55L121 21L116 13L98.5 15V50C55.5 52.5 30.5 60.5 17 73Z" fill="white"/>
<path opacity="0.5" d="M15.1699 96.9334C17.3789 90.2756 18.7432 76.5645 25.8573 72.4446C32.9713 68.3247 46.095 62.7216 46.2249 62.6886C46.3549 62.6557 76.5978 56.8878 76.5978 56.8878L80.0736 56.8548L89 56.8548V51.744C89 51.744 85.5309 51.4166 77.7022 52.0757C69.8735 52.7349 43.3338 57.2504 33.2312 62.7546C23.1286 68.2588 17.6712 72.4116 17.6712 72.4116L15.1699 96.9334Z" fill="black"/>
<path opacity="0.5" d="M33.8159 131.277C37.9089 117.236 35.9924 104.283 43.8211 94.2307C51.3574 84.5406 94.1393 82.0687 94.1393 82.0687L37.4217 85.1668L35.9274 88.4628L33.8159 131.277Z" fill="black"/>
<path opacity="0.5" d="M99.0769 28.6417C99.8565 23.9614 99.2068 21.5554 101.188 18.5231C102.975 15.8205 114.832 13.8429 114.832 13.8429L98.4922 14.9306L99.0769 28.6417Z" fill="black"/>
<path opacity="0.5" d="M99.5971 46.3738C99.7595 41.331 99.727 37.3759 101.968 35.7609C104.762 33.7504 113.825 31.9706 113.825 31.9706L98.0703 32.8934L99.5971 46.3738Z" fill="black"/>
<path opacity="0.5" d="M99.1743 63.6115C100.604 59.3268 99.9864 55.7672 102.358 53.1634C105.086 50.1311 115.027 49.3731 115.027 49.3731L99.1743 49.9004V63.6115Z" fill="black"/>
<path d="M58 141L58.4717 119.082L94.984 118.72V141" stroke="black" stroke-width="2.66679" stroke-miterlimit="10"/>
<path d="M98.5571 32.8606L98.5574 15L115.969 12.9202L117.171 67.6327L98.7847 68.5V49.3732M98.5571 32.8606L113 31M98.5571 32.8606L98.7847 49.3732M98.7847 49.3732L114 48" stroke="black" stroke-width="2.66679" stroke-miterlimit="10"/>
<path d="M107.783 6.29529C107.783 6.65784 107.978 13.8759 107.978 13.8759" stroke="black" stroke-width="2.66679" stroke-miterlimit="10"/>
<path d="M103.625 10.6789C103.69 10.6789 111.941 9.62418 111.941 9.62418" stroke="black" stroke-width="2.66679" stroke-miterlimit="10"/>
<path d="M124 141L122 61.5C124.404 61.3682 128 62 128 62L128.5 92M123.143 120.236L129.5 120.236L130 141M122.072 95.6481C122.299 95.6481 128.8 95.6481 128.8 95.6481L129 116.5" stroke="black" stroke-width="2.66679" stroke-miterlimit="10"/>
<path d="M57.3022 72.181L67.9246 71.7855V61.7988" stroke="black" stroke-width="2.66679" stroke-miterlimit="10"/>
<path d="M57.0424 64.5V80.0057M46.225 68V80.5M35.9277 73C35.9277 73.8569 35.9277 80.5 35.9277 80.5" stroke="black" stroke-width="2.66679" stroke-miterlimit="10"/>
<path d="M25.0127 86.9798L25.5324 73.9279C41.7421 63.2161 63.5391 57.7119 79.0341 57.8767V71M79.0341 71L67.9245 71.7855M79.0341 71L89 70.5M33.2315 141L35.9277 85.1999L89 84V50.1971" stroke="black" stroke-width="2.66679" stroke-miterlimit="10"/>
<path d="M97.5 50.5C97.5 50.5 40.5081 51.2848 16.9895 73.0709L14 141" stroke="black" stroke-width="2.66679" stroke-miterlimit="10"/>
<path d="M155.015 141.33V65.1607C155.015 65.1607 133.324 55.1648 121.5 55L120.842 20.9293L116.099 12.228" stroke="black" stroke-width="2.66679" stroke-miterlimit="10"/>
</g>
<defs>
<clipPath id="clip0_113_62">
<rect width="176" height="141" fill="white"/>
</clipPath>
</defs>
</svg>
