<svg width="160" height="160" viewBox="0 0 160 160" fill="none" xmlns="http://www.w3.org/2000/svg">
    <circle cx="80" cy="80" r="70" fill="white"></circle>
    <path fill-rule="evenodd" clip-rule="evenodd" d="M80 160C124.183 160 160 124.183 160 80C160 35.8172 124.183 0 80 0C35.8172 0 0 35.8172 0 80C0 98.0684 5.98998 114.738 16.0925 128.131C16.079 126.116 16.0664 124.056 16.055 121.98C15.9655 105.703 15.9443 87.6404 16.3034 83.1224C16.5576 79.9235 18.4014 77.6842 20.2127 76.4583C41.5036 62.0486 63.9491 57.6774 77.9541 56.5771C78.0649 49.252 78.0856 40.8431 78.0893 37.9791C78.0959 32.9081 82.2289 29 87.0901 29H113.67C118.673 29 122.715 33.0798 122.67 38.0823L122.433 63.9717C124.198 64.3955 126.191 64.9219 128.259 65.5575C133.102 67.0455 139.417 69.4384 143.965 73.1867C147.375 75.9965 147.861 81.0385 145.051 84.4481C142.242 87.8578 137.2 88.3441 133.79 85.5342C131.791 83.8872 128.033 82.226 123.56 80.8518C119.332 79.5525 115.401 78.784 113.809 78.4993C109.477 77.7251 106.341 73.941 106.381 69.5434L106.606 45H94.0655C94.0349 50.7035 93.966 58.273 93.8109 63.5254C93.6667 68.4089 89.6886 72.1998 84.9209 72.259C74.6631 72.3864 52.926 74.8098 32.1186 87.7987C31.9667 94.4671 31.9798 108.263 32.0547 121.893C32.1001 130.15 32.1657 138.156 32.2199 144.098C32.2202 144.123 32.2204 144.147 32.2206 144.171C45.5532 154.114 62.0892 160 80 160Z" fill="#2A6266"/>
</svg>
