<svg width="160" height="160" viewBox="0 0 160 160" fill="none" xmlns="http://www.w3.org/2000/svg">
<path fill-rule="evenodd" clip-rule="evenodd" d="M80 160C124.183 160 160 124.183 160 80C160 35.8172 124.183 0 80 0C35.8172 0 0 35.8172 0 80C0 101.058 8.13621 120.216 21.4365 134.501V89.834C18.9048 88.9015 16.6882 87.8395 14.9397 86.5747C13.5068 85.5382 11.6073 83.8136 10.6196 81.1555C9.47023 78.0624 10.0245 75.0121 11.3938 72.675C12.5754 70.6583 14.2447 69.3274 15.4785 68.5017C16.7999 67.6173 18.2554 66.8978 19.6561 66.3034C22.4582 65.1145 25.823 64.1019 29.2567 63.2345C39.2465 60.711 52.163 58.8524 60.0316 57.8543V38C60.0316 33.0294 64.061 29 69.0316 29H91.4343C96.4049 29 100.434 33.0294 100.434 38V57.8553C108.372 58.8636 121.45 60.7493 131.474 63.312C134.909 64.1904 138.283 65.2205 141.077 66.4377C142.472 67.0456 143.939 67.7923 145.266 68.7236C146.501 69.5903 148.218 71.0314 149.338 73.2387C150.659 75.8428 150.849 78.9646 149.512 81.8707C148.38 84.3319 146.481 85.9225 145.029 86.902C142.12 88.8648 137.974 90.367 133.112 91.6779C128.846 92.8281 124.455 90.3024 123.305 86.0365C122.532 83.1709 123.419 80.2489 125.377 78.2908C113.08 75.4012 96.5461 73.4679 92.4501 73.0163C87.8697 72.5112 84.4343 68.6409 84.4343 64.0665V45H76.0316V64.0663C76.0316 68.643 72.5937 72.5121 68.0145 73.0163C63.8896 73.4705 47.1122 75.4294 34.7693 78.3572C36.3408 79.905 37.4365 82.0806 37.4365 84.7203V147.75C49.7636 155.511 64.3575 160 80 160ZM24.2923 73.5915C24.2912 73.5912 24.299 73.5977 24.3171 73.6108L24.3289 73.6192C24.3065 73.601 24.2936 73.5919 24.2923 73.5915ZM24.3484 81.8184C24.318 81.8434 24.3007 81.8554 24.2996 81.8551C24.2986 81.8549 24.3138 81.8425 24.3484 81.8184ZM136.122 81.8556C136.121 81.8559 136.104 81.8439 136.074 81.8192L136.074 81.8196C136.108 81.8432 136.122 81.8553 136.122 81.8556ZM136.095 73.6284C136.127 73.6025 136.145 73.59 136.146 73.5902C136.147 73.5904 136.132 73.6033 136.095 73.6284Z" fill="#139B91"/>
</svg>
