<svg width="160" height="160" viewBox="0 0 160 160" fill="none" xmlns="http://www.w3.org/2000/svg">
    <circle cx="80" cy="80" r="76" fill="#333"></circle>
<path fill-rule="evenodd" clip-rule="evenodd" d="M80 160C124.183 160 160 124.183 160 80C160 35.8172 124.183 0 80 0C35.8172 0 0 35.8172 0 80C0 103.37 10.0208 124.399 26 139.026V54.7514C26 51.9136 27.3384 49.2421 29.6112 47.543L51.6485 31.0686C55.0041 28.5601 59.6469 28.6988 62.8468 31.4032L83.0203 48.4532C85.0436 50.1632 86.2108 52.6778 86.2108 55.327V84.2217H133.078C134.663 84.2217 136.219 84.6402 137.59 85.4348L144.403 89.383C148.226 91.5984 149.529 96.4933 147.313 100.316C145.098 104.139 140.203 105.442 136.38 103.226L131.196 100.222H79.2108C74.2402 100.222 70.2108 96.1922 70.2108 91.2217V58.576L56.7702 47.2165L42 58.2582V149.5C42 149.801 41.9834 150.098 41.9511 150.39C53.2667 156.519 66.2269 160 80 160Z" fill="#F4AC11"/>
</svg>
